<ttFont>
<head>
    <!-- Most of this table will be recalculated by the compiler -->
    <tableVersion value="1.0"/>
    <fontRevision value="1.0"/>
    <checkSumAdjustment value="0x9c61a94f"/>
    <magicNumber value="0x5f0f3cf5"/>
    <flags value="00000000 00000011"/>
    <unitsPerEm value="2048"/>
    <created value="Thu Jan  1 00:00:00 1970"/>
    <modified value="Thu Jan  1 00:00:00 1970"/>
    <xMin value="-59"/>
    <yMin value="-1966"/>
    <xMax value="2300"/>
    <yMax value="1595"/>
    <macStyle value="00000000 00000000"/>
    <lowestRecPPEM value="6"/>
    <fontDirectionHint value="2"/>
    <indexToLocFormat value="1"/>
    <glyphDataFormat value="0"/>
  </head>
    <TTGlyph name=".notdef" xMin="256" yMin="0" xMax="1280" yMax="1280">
      <contour>
        <pt x="256" y="0" on="1"/>
        <pt x="256" y="1280" on="1"/>
        <pt x="1280" y="1280" on="1"/>
        <pt x="1280" y="0" on="1"/>
      </contour>
      <contour>
        <pt x="1247" y="33" on="1"/>
        <pt x="1247" y="1247" on="1"/>
        <pt x="289" y="1247" on="1"/>
        <pt x="289" y="33" on="1"/>
      </contour>
    </TTGlyph>
    <TTGlyph name="A" xMin="57" yMin="-102" xMax="1649" yMax="1481">
      <contour>
        <pt x="57" y="76" on="1"/>
        <pt x="57" y="111" on="0"/>
        <pt x="108" y="236" on="0"/>
        <pt x="139" y="236" on="1"/>
        <pt x="145" y="236" on="0"/>
        <pt x="152" y="225" on="0"/>
        <pt x="155" y="206" on="0"/>
        <pt x="156" y="199" on="1"/>
        <pt x="170" y="154" on="0"/>
        <pt x="260" y="94" on="0"/>
        <pt x="307" y="94" on="1"/>
        <pt x="372" y="94" on="0"/>
        <pt x="556" y="327" on="0"/>
        <pt x="649" y="469" on="1"/>
        <pt x="690" y="528" on="1"/>
        <pt x="790" y="680" on="0"/>
        <pt x="940" y="930" on="0"/>
        <pt x="1095" y="1219" on="0"/>
        <pt x="1161" y="1360" on="1"/>
        <pt x="1180" y="1360" on="1"/>
        <pt x="1180" y="1388" on="0"/>
        <pt x="1232" y="1444" on="0"/>
        <pt x="1305" y="1481" on="0"/>
        <pt x="1327" y="1481" on="1"/>
        <pt x="1350" y="1481" on="1"/>
        <pt x="1362" y="1476" on="0"/>
        <pt x="1362" y="1462" on="1"/>
        <pt x="1362" y="1403" on="0"/>
        <pt x="1361" y="1326" on="0"/>
        <pt x="1360" y="1280" on="1"/>
        <pt x="1360" y="1070" on="0"/>
        <pt x="1377" y="677" on="0"/>
        <pt x="1397" y="444" on="1"/>
        <pt x="1403" y="384" on="0"/>
        <pt x="1420" y="274" on="0"/>
        <pt x="1448" y="151" on="0"/>
        <pt x="1462" y="104" on="1"/>
        <pt x="1468" y="84" on="0"/>
        <pt x="1503" y="59" on="0"/>
        <pt x="1524" y="59" on="1"/>
        <pt x="1582" y="92" on="0"/>
        <pt x="1622" y="96" on="1"/>
        <pt x="1634" y="96" on="1"/>
        <pt x="1649" y="88" on="0"/>
        <pt x="1649" y="80" on="1"/>
        <pt x="1649" y="53" on="0"/>
        <pt x="1548" y="-14" on="0"/>
        <pt x="1421" y="-61" on="0"/>
        <pt x="1389" y="-61" on="1"/>
        <pt x="1376" y="-61" on="1"/>
        <pt x="1314" y="-61" on="0"/>
        <pt x="1284" y="-6" on="1"/>
        <pt x="1266" y="34" on="0"/>
        <pt x="1217" y="295" on="0"/>
        <pt x="1217" y="336" on="1"/>
        <pt x="664" y="336" on="1"/>
        <pt x="583" y="214" on="0"/>
        <pt x="466" y="54" on="0"/>
        <pt x="305" y="-102" on="0"/>
        <pt x="244" y="-102" on="1"/>
        <pt x="174" y="-102" on="0"/>
        <pt x="57" y="7" on="0"/>
      </contour>
      <contour>
        <pt x="723" y="426" on="1"/>
        <pt x="779" y="453" on="0"/>
        <pt x="811" y="457" on="1"/>
        <pt x="1206" y="457" on="1"/>
        <pt x="1178" y="832" on="0"/>
        <pt x="1178" y="1190" on="1"/>
        <pt x="1178" y="1223" on="1"/>
        <pt x="1071" y="1004" on="0"/>
        <pt x="842" y="606" on="0"/>
      </contour>
    </TTGlyph>
    <TTGlyph name="B" xMin="61" yMin="-45" xMax="1360" yMax="1446">
      <contour>
        <pt x="76" y="-45" on="1"/>
        <pt x="61" y="-37" on="0"/>
        <pt x="61" y="-29" on="1"/>
        <pt x="61" y="-23" on="0"/>
        <pt x="63" y="-18" on="1"/>
        <pt x="131" y="109" on="0"/>
        <pt x="238" y="434" on="0"/>
        <pt x="318" y="789" on="0"/>
        <pt x="374" y="1120" on="0"/>
        <pt x="397" y="1294" on="1"/>
        <pt x="336" y="1264" on="1"/>
        <pt x="305" y="1248" on="0"/>
        <pt x="274" y="1245" on="1"/>
        <pt x="264" y="1245" on="1"/>
        <pt x="250" y="1252" on="0"/>
        <pt x="250" y="1262" on="1"/>
        <pt x="250" y="1296" on="0"/>
        <pt x="330" y="1341" on="1"/>
        <pt x="483" y="1419" on="1"/>
        <pt x="526" y="1442" on="0"/>
        <pt x="559" y="1444" on="1"/>
        <pt x="571" y="1444" on="1"/>
        <pt x="586" y="1439" on="0"/>
        <pt x="586" y="1425" on="1"/>
        <pt x="565" y="1268" on="0"/>
        <pt x="543" y="1135" on="1"/>
        <pt x="595" y="1201" on="0"/>
        <pt x="719" y="1310" on="0"/>
        <pt x="866" y="1397" on="0"/>
        <pt x="1028" y="1446" on="0"/>
        <pt x="1106" y="1446" on="1"/>
        <pt x="1118" y="1446" on="1"/>
        <pt x="1216" y="1446" on="0"/>
        <pt x="1360" y="1333" on="0"/>
        <pt x="1360" y="1237" on="1"/>
        <pt x="1360" y="1104" on="0"/>
        <pt x="1129" y="900" on="0"/>
        <pt x="971" y="829" on="1"/>
        <pt x="1106" y="805" on="0"/>
        <pt x="1282" y="626" on="0"/>
        <pt x="1282" y="494" on="1"/>
        <pt x="1282" y="374" on="0"/>
        <pt x="1150" y="174" on="0"/>
        <pt x="934" y="31" on="0"/>
        <pt x="685" y="-45" on="0"/>
        <pt x="573" y="-45" on="1"/>
        <pt x="561" y="-45" on="1"/>
        <pt x="480" y="-45" on="0"/>
        <pt x="326" y="22" on="0"/>
        <pt x="279" y="84" on="1"/>
        <pt x="274" y="91" on="0"/>
        <pt x="274" y="96" on="1"/>
        <pt x="274" y="128" on="0"/>
        <pt x="392" y="197" on="0"/>
        <pt x="432" y="201" on="1"/>
        <pt x="442" y="201" on="1"/>
        <pt x="449" y="198" on="0"/>
        <pt x="526" y="125" on="0"/>
        <pt x="553" y="111" on="1"/>
        <pt x="625" y="76" on="0"/>
        <pt x="711" y="76" on="1"/>
        <pt x="821" y="76" on="0"/>
        <pt x="995" y="148" on="0"/>
        <pt x="1100" y="296" on="0"/>
        <pt x="1100" y="406" on="1"/>
        <pt x="1100" y="504" on="0"/>
        <pt x="996" y="644" on="0"/>
        <pt x="824" y="717" on="0"/>
        <pt x="731" y="717" on="1"/>
        <pt x="697" y="717" on="0"/>
        <pt x="635" y="709" on="1"/>
        <pt x="623" y="709" on="1"/>
        <pt x="615" y="713" on="0"/>
        <pt x="608" y="719" on="0"/>
        <pt x="608" y="725" on="1"/>
        <pt x="608" y="748" on="0"/>
        <pt x="651" y="780" on="1"/>
        <pt x="692" y="810" on="0"/>
        <pt x="851" y="867" on="0"/>
        <pt x="1066" y="950" on="0"/>
        <pt x="1178" y="1062" on="0"/>
        <pt x="1178" y="1149" on="1"/>
        <pt x="1178" y="1203" on="0"/>
        <pt x="1119" y="1284" on="0"/>
        <pt x="1022" y="1325" on="0"/>
        <pt x="971" y="1325" on="1"/>
        <pt x="857" y="1325" on="0"/>
        <pt x="693" y="1177" on="0"/>
        <pt x="621" y="1053" on="1"/>
        <pt x="551" y="930" on="0"/>
        <pt x="444" y="633" on="0"/>
        <pt x="403" y="467" on="1"/>
        <pt x="352" y="261" on="0"/>
        <pt x="242" y="49" on="1"/>
        <pt x="222" y="13" on="0"/>
        <pt x="129" y="-41" on="0"/>
        <pt x="86" y="-45" on="1"/>
      </contour>
    </TTGlyph>
    <TTGlyph name="C" xMin="25" yMin="-49" xMax="1094" yMax="1444">
      <contour>
        <pt x="403" y="-49" on="1"/>
        <pt x="306" y="-49" on="0"/>
        <pt x="163" y="26" on="0"/>
        <pt x="68" y="161" on="0"/>
        <pt x="25" y="323" on="0"/>
        <pt x="25" y="416" on="1"/>
        <pt x="25" y="599" on="0"/>
        <pt x="160" y="972" on="0"/>
        <pt x="404" y="1269" on="0"/>
        <pt x="739" y="1444" on="0"/>
        <pt x="932" y="1444" on="1"/>
        <pt x="944" y="1444" on="1"/>
        <pt x="1011" y="1444" on="0"/>
        <pt x="1094" y="1376" on="0"/>
        <pt x="1094" y="1311" on="1"/>
        <pt x="1094" y="1254" on="0"/>
        <pt x="1028" y="1100" on="0"/>
        <pt x="981" y="1016" on="1"/>
        <pt x="959" y="979" on="0"/>
        <pt x="870" y="925" on="0"/>
        <pt x="823" y="920" on="1"/>
        <pt x="813" y="920" on="1"/>
        <pt x="799" y="927" on="0"/>
        <pt x="799" y="934" on="1"/>
        <pt x="799" y="943" on="0"/>
        <pt x="864" y="1071" on="0"/>
        <pt x="911" y="1184" on="0"/>
        <pt x="911" y="1225" on="1"/>
        <pt x="911" y="1275" on="0"/>
        <pt x="848" y="1323" on="0"/>
        <pt x="795" y="1323" on="1"/>
        <pt x="644" y="1323" on="0"/>
        <pt x="439" y="1179" on="0"/>
        <pt x="356" y="1038" on="1"/>
        <pt x="287" y="919" on="0"/>
        <pt x="207" y="642" on="0"/>
        <pt x="207" y="504" on="1"/>
        <pt x="207" y="391" on="0"/>
        <pt x="279" y="192" on="0"/>
        <pt x="435" y="72" on="0"/>
        <pt x="553" y="72" on="1"/>
        <pt x="677" y="72" on="0"/>
        <pt x="774" y="164" on="1"/>
        <pt x="787" y="178" on="0"/>
        <pt x="868" y="285" on="0"/>
        <pt x="938" y="335" on="0"/>
        <pt x="993" y="340" on="1"/>
        <pt x="1004" y="340" on="1"/>
        <pt x="1018" y="333" on="0"/>
        <pt x="1018" y="324" on="1"/>
        <pt x="1018" y="316" on="0"/>
        <pt x="1012" y="307" on="1"/>
        <pt x="954" y="211" on="0"/>
        <pt x="758" y="47" on="0"/>
        <pt x="524" y="-49" on="0"/>
        <pt x="416" y="-49" on="1"/>
      </contour>
    </TTGlyph>
    <TTGlyph name="D" xMin="39" yMin="0" xMax="1569" yMax="1399">
      <contour>
        <pt x="156" y="16" on="1"/>
        <pt x="156" y="45" on="0"/>
        <pt x="250" y="104" on="0"/>
        <pt x="287" y="117" on="1"/>
        <pt x="404" y="416" on="0"/>
        <pt x="463" y="659" on="1"/>
        <pt x="542" y="978" on="0"/>
        <pt x="565" y="1278" on="1"/>
        <pt x="456" y="1278" on="0"/>
        <pt x="350" y="1239" on="1"/>
        <pt x="295" y="1217" on="0"/>
        <pt x="238" y="1148" on="0"/>
        <pt x="219" y="1087" on="1"/>
        <pt x="199" y="1053" on="0"/>
        <pt x="103" y="993" on="0"/>
        <pt x="66" y="993" on="1"/>
        <pt x="53" y="993" on="1"/>
        <pt x="39" y="1002" on="0"/>
        <pt x="39" y="1014" on="1"/>
        <pt x="75" y="1138" on="0"/>
        <pt x="297" y="1312" on="0"/>
        <pt x="591" y="1399" on="0"/>
        <pt x="723" y="1399" on="1"/>
        <pt x="924" y="1399" on="1"/>
        <pt x="1046" y="1399" on="0"/>
        <pt x="1272" y="1351" on="0"/>
        <pt x="1459" y="1240" on="0"/>
        <pt x="1569" y="1056" on="0"/>
        <pt x="1569" y="926" on="1"/>
        <pt x="1569" y="725" on="0"/>
        <pt x="1357" y="381" on="0"/>
        <pt x="1005" y="132" on="0"/>
        <pt x="599" y="0" on="0"/>
        <pt x="410" y="0" on="1"/>
        <pt x="170" y="0" on="1"/>
        <pt x="166" y="2" on="0"/>
        <pt x="156" y="10" on="0"/>
      </contour>
      <contour>
        <pt x="438" y="121" on="1"/>
        <pt x="541" y="121" on="1"/>
        <pt x="702" y="121" on="0"/>
        <pt x="1002" y="217" on="0"/>
        <pt x="1244" y="403" on="0"/>
        <pt x="1386" y="673" on="0"/>
        <pt x="1386" y="836" on="1"/>
        <pt x="1386" y="998" on="0"/>
        <pt x="1208" y="1197" on="0"/>
        <pt x="928" y="1278" on="0"/>
        <pt x="770" y="1278" on="1"/>
        <pt x="739" y="1278" on="1"/>
        <pt x="716" y="1024" on="0"/>
        <pt x="645" y="741" on="1"/>
        <pt x="568" y="433" on="0"/>
      </contour>
    </TTGlyph>
    <TTGlyph name="E" xMin="59" yMin="-45" xMax="1155" yMax="1444">
      <contour>
        <pt x="59" y="209" on="1"/>
        <pt x="59" y="315" on="0"/>
        <pt x="188" y="526" on="0"/>
        <pt x="385" y="693" on="0"/>
        <pt x="481" y="741" on="1"/>
        <pt x="398" y="774" on="0"/>
        <pt x="297" y="888" on="0"/>
        <pt x="297" y="971" on="1"/>
        <pt x="297" y="1070" on="0"/>
        <pt x="417" y="1242" on="0"/>
        <pt x="611" y="1372" on="0"/>
        <pt x="830" y="1444" on="0"/>
        <pt x="920" y="1444" on="1"/>
        <pt x="932" y="1444" on="1"/>
        <pt x="1020" y="1444" on="0"/>
        <pt x="1155" y="1382" on="0"/>
        <pt x="1155" y="1307" on="1"/>
        <pt x="1155" y="1257" on="0"/>
        <pt x="1101" y="1167" on="0"/>
        <pt x="1013" y="1108" on="0"/>
        <pt x="965" y="1104" on="1"/>
        <pt x="954" y="1104" on="1"/>
        <pt x="950" y="1106" on="0"/>
        <pt x="940" y="1114" on="0"/>
        <pt x="940" y="1120" on="1"/>
        <pt x="940" y="1126" on="0"/>
        <pt x="942" y="1130" on="1"/>
        <pt x="952" y="1148" on="0"/>
        <pt x="965" y="1176" on="0"/>
        <pt x="973" y="1203" on="0"/>
        <pt x="973" y="1217" on="1"/>
        <pt x="973" y="1278" on="0"/>
        <pt x="858" y="1323" on="0"/>
        <pt x="784" y="1323" on="1"/>
        <pt x="706" y="1323" on="0"/>
        <pt x="564" y="1259" on="0"/>
        <pt x="479" y="1140" on="0"/>
        <pt x="479" y="1059" on="1"/>
        <pt x="479" y="941" on="0"/>
        <pt x="699" y="829" on="0"/>
        <pt x="827" y="829" on="1"/>
        <pt x="842" y="822" on="0"/>
        <pt x="842" y="813" on="1"/>
        <pt x="842" y="781" on="0"/>
        <pt x="723" y="713" on="0"/>
        <pt x="686" y="709" on="1"/>
        <pt x="508" y="709" on="0"/>
        <pt x="379" y="586" on="1"/>
        <pt x="322" y="525" on="0"/>
        <pt x="242" y="369" on="0"/>
        <pt x="242" y="299" on="1"/>
        <pt x="242" y="225" on="0"/>
        <pt x="334" y="124" on="0"/>
        <pt x="473" y="76" on="0"/>
        <pt x="545" y="76" on="1"/>
        <pt x="636" y="76" on="0"/>
        <pt x="749" y="140" on="0"/>
        <pt x="871" y="278" on="0"/>
        <pt x="938" y="335" on="0"/>
        <pt x="997" y="340" on="1"/>
        <pt x="1008" y="340" on="1"/>
        <pt x="1022" y="333" on="0"/>
        <pt x="1022" y="324" on="1"/>
        <pt x="1022" y="317" on="0"/>
        <pt x="1014" y="301" on="1"/>
        <pt x="949" y="206" on="0"/>
        <pt x="753" y="49" on="0"/>
        <pt x="521" y="-45" on="0"/>
        <pt x="410" y="-45" on="1"/>
        <pt x="397" y="-45" on="1"/>
        <pt x="318" y="-45" on="0"/>
        <pt x="160" y="12" on="0"/>
        <pt x="59" y="127" on="0"/>
      </contour>
    </TTGlyph>
    <TTGlyph name="F" xMin="35" yMin="-68" xMax="1698" yMax="1399">
      <contour>
        <pt x="35" y="92" on="1"/>
        <pt x="35" y="128" on="0"/>
        <pt x="151" y="197" on="0"/>
        <pt x="190" y="201" on="1"/>
        <pt x="203" y="201" on="1"/>
        <pt x="210" y="197" on="0"/>
        <pt x="263" y="110" on="0"/>
        <pt x="340" y="53" on="0"/>
        <pt x="410" y="53" on="1"/>
        <pt x="424" y="71" on="0"/>
        <pt x="434" y="88" on="1"/>
        <pt x="581" y="360" on="0"/>
        <pt x="684" y="643" on="1"/>
        <pt x="740" y="797" on="0"/>
        <pt x="829" y="1126" on="0"/>
        <pt x="854" y="1278" on="1"/>
        <pt x="768" y="1278" on="1"/>
        <pt x="564" y="1278" on="0"/>
        <pt x="510" y="1087" on="1"/>
        <pt x="490" y="1051" on="0"/>
        <pt x="399" y="997" on="0"/>
        <pt x="356" y="993" on="1"/>
        <pt x="344" y="993" on="1"/>
        <pt x="330" y="1002" on="0"/>
        <pt x="330" y="1014" on="1"/>
        <pt x="361" y="1123" on="0"/>
        <pt x="544" y="1299" on="0"/>
        <pt x="786" y="1399" on="0"/>
        <pt x="899" y="1399" on="1"/>
        <pt x="1499" y="1399" on="1"/>
        <pt x="1698" y="1399" on="0"/>
        <pt x="1698" y="1321" on="1"/>
        <pt x="1698" y="1276" on="0"/>
        <pt x="1590" y="1203" on="0"/>
        <pt x="1538" y="1198" on="1"/>
        <pt x="1528" y="1198" on="1"/>
        <pt x="1513" y="1206" on="0"/>
        <pt x="1513" y="1210" on="1"/>
        <pt x="1514" y="1216" on="0"/>
        <pt x="1516" y="1230" on="0"/>
        <pt x="1516" y="1233" on="1"/>
        <pt x="1516" y="1278" on="0"/>
        <pt x="1346" y="1278" on="1"/>
        <pt x="1022" y="1278" on="1"/>
        <pt x="964" y="991" on="0"/>
        <pt x="872" y="737" on="1"/>
        <pt x="1389" y="737" on="1"/>
        <pt x="1403" y="730" on="0"/>
        <pt x="1403" y="719" on="1"/>
        <pt x="1390" y="670" on="0"/>
        <pt x="1294" y="601" on="0"/>
        <pt x="1241" y="596" on="1"/>
        <pt x="1229" y="596" on="1"/>
        <pt x="1214" y="604" on="0"/>
        <pt x="1214" y="612" on="1"/>
        <pt x="1214" y="616" on="1"/>
        <pt x="827" y="616" on="1"/>
        <pt x="737" y="386" on="0"/>
        <pt x="614" y="158" on="1"/>
        <pt x="563" y="67" on="0"/>
        <pt x="375" y="-68" on="0"/>
        <pt x="281" y="-68" on="1"/>
        <pt x="270" y="-68" on="1"/>
        <pt x="190" y="-68" on="0"/>
        <pt x="62" y="17" on="0"/>
      </contour>
    </TTGlyph>
    <TTGlyph name="G" xMin="90" yMin="-244" xMax="1229" yMax="1444">
      <contour>
        <pt x="109" y="-156" on="1"/>
        <pt x="104" y="-153" on="0"/>
        <pt x="104" y="-143" on="1"/>
        <pt x="104" y="-109" on="0"/>
        <pt x="224" y="-43" on="0"/>
        <pt x="262" y="-39" on="1"/>
        <pt x="272" y="-39" on="1"/>
        <pt x="369" y="-86" on="0"/>
        <pt x="490" y="-123" on="0"/>
        <pt x="580" y="-123" on="1"/>
        <pt x="625" y="-123" on="0"/>
        <pt x="651" y="-111" on="1"/>
        <pt x="725" y="-63" on="0"/>
        <pt x="843" y="186" on="0"/>
        <pt x="883" y="317" on="1"/>
        <pt x="789" y="240" on="0"/>
        <pt x="560" y="139" on="0"/>
        <pt x="449" y="139" on="1"/>
        <pt x="329" y="139" on="0"/>
        <pt x="168" y="251" on="0"/>
        <pt x="90" y="440" on="0"/>
        <pt x="90" y="557" on="1"/>
        <pt x="90" y="731" on="0"/>
        <pt x="230" y="1053" on="0"/>
        <pt x="473" y="1301" on="0"/>
        <pt x="794" y="1444" on="0"/>
        <pt x="967" y="1444" on="1"/>
        <pt x="979" y="1444" on="1"/>
        <pt x="1081" y="1444" on="0"/>
        <pt x="1229" y="1388" on="0"/>
        <pt x="1229" y="1307" on="1"/>
        <pt x="1229" y="1268" on="0"/>
        <pt x="1178" y="1160" on="0"/>
        <pt x="1105" y="1058" on="0"/>
        <pt x="1071" y="1024" on="1"/>
        <pt x="1011" y="971" on="0"/>
        <pt x="944" y="965" on="1"/>
        <pt x="934" y="965" on="1"/>
        <pt x="920" y="972" on="0"/>
        <pt x="920" y="979" on="1"/>
        <pt x="920" y="989" on="0"/>
        <pt x="996" y="1095" on="0"/>
        <pt x="1047" y="1182" on="0"/>
        <pt x="1047" y="1217" on="1"/>
        <pt x="1047" y="1282" on="0"/>
        <pt x="915" y="1323" on="0"/>
        <pt x="829" y="1323" on="1"/>
        <pt x="737" y="1323" on="0"/>
        <pt x="586" y="1273" on="0"/>
        <pt x="464" y="1175" on="0"/>
        <pt x="412" y="1098" on="1"/>
        <pt x="346" y="999" on="0"/>
        <pt x="272" y="760" on="0"/>
        <pt x="272" y="645" on="1"/>
        <pt x="272" y="569" on="0"/>
        <pt x="310" y="433" on="0"/>
        <pt x="389" y="323" on="0"/>
        <pt x="507" y="260" on="0"/>
        <pt x="586" y="260" on="1"/>
        <pt x="658" y="260" on="0"/>
        <pt x="784" y="330" on="0"/>
        <pt x="885" y="447" on="0"/>
        <pt x="958" y="593" on="0"/>
        <pt x="975" y="659" on="1"/>
        <pt x="986" y="695" on="0"/>
        <pt x="1091" y="757" on="0"/>
        <pt x="1133" y="760" on="1"/>
        <pt x="1143" y="760" on="1"/>
        <pt x="1157" y="753" on="0"/>
        <pt x="1157" y="741" on="1"/>
        <pt x="1126" y="613" on="0"/>
        <pt x="1093" y="482" on="0"/>
        <pt x="1045" y="327" on="0"/>
        <pt x="977" y="157" on="0"/>
        <pt x="938" y="90" on="1"/>
        <pt x="886" y="-3" on="0"/>
        <pt x="735" y="-155" on="0"/>
        <pt x="549" y="-244" on="0"/>
        <pt x="444" y="-244" on="1"/>
        <pt x="434" y="-244" on="1"/>
        <pt x="255" y="-244" on="0"/>
      </contour>
    </TTGlyph>
    <TTGlyph name="H" xMin="39" yMin="-100" xMax="1642" yMax="1399">
      <contour>
        <pt x="283" y="-68" on="1"/>
        <pt x="283" y="-63" on="0"/>
        <pt x="285" y="-57" on="1"/>
        <pt x="316" y="21" on="0"/>
        <pt x="399" y="252" on="0"/>
        <pt x="467" y="467" on="0"/>
        <pt x="496" y="569" on="1"/>
        <pt x="309" y="569" on="1"/>
        <pt x="295" y="576" on="0"/>
        <pt x="295" y="586" on="1"/>
        <pt x="295" y="620" on="0"/>
        <pt x="415" y="686" on="0"/>
        <pt x="453" y="690" on="1"/>
        <pt x="528" y="690" on="1"/>
        <pt x="563" y="823" on="0"/>
        <pt x="616" y="1099" on="0"/>
        <pt x="616" y="1194" on="1"/>
        <pt x="616" y="1230" on="0"/>
        <pt x="562" y="1278" on="0"/>
        <pt x="526" y="1278" on="1"/>
        <pt x="409" y="1278" on="0"/>
        <pt x="270" y="1192" on="0"/>
        <pt x="219" y="1087" on="1"/>
        <pt x="199" y="1053" on="0"/>
        <pt x="103" y="993" on="0"/>
        <pt x="66" y="993" on="1"/>
        <pt x="53" y="993" on="1"/>
        <pt x="39" y="1000" on="0"/>
        <pt x="39" y="1010" on="1"/>
        <pt x="39" y="1016" on="0"/>
        <pt x="41" y="1020" on="1"/>
        <pt x="84" y="1107" on="0"/>
        <pt x="217" y="1248" on="0"/>
        <pt x="381" y="1346" on="0"/>
        <pt x="571" y="1399" on="0"/>
        <pt x="666" y="1399" on="1"/>
        <pt x="678" y="1399" on="1"/>
        <pt x="727" y="1399" on="0"/>
        <pt x="799" y="1331" on="0"/>
        <pt x="799" y="1282" on="1"/>
        <pt x="799" y="1166" on="0"/>
        <pt x="729" y="835" on="0"/>
        <pt x="688" y="690" on="1"/>
        <pt x="1219" y="690" on="1"/>
        <pt x="1305" y="987" on="0"/>
        <pt x="1427" y="1305" on="1"/>
        <pt x="1449" y="1343" on="0"/>
        <pt x="1537" y="1394" on="0"/>
        <pt x="1581" y="1399" on="1"/>
        <pt x="1593" y="1399" on="1"/>
        <pt x="1608" y="1392" on="0"/>
        <pt x="1608" y="1382" on="1"/>
        <pt x="1608" y="1378" on="0"/>
        <pt x="1606" y="1372" on="1"/>
        <pt x="1573" y="1291" on="0"/>
        <pt x="1491" y="1061" on="0"/>
        <pt x="1442" y="909" on="0"/>
        <pt x="1399" y="764" on="1"/>
        <pt x="1268" y="288" on="0"/>
        <pt x="1268" y="102" on="1"/>
        <pt x="1268" y="69" on="0"/>
        <pt x="1315" y="20" on="0"/>
        <pt x="1350" y="20" on="1"/>
        <pt x="1396" y="20" on="0"/>
        <pt x="1450" y="33" on="1"/>
        <pt x="1458" y="50" on="0"/>
        <pt x="1468" y="75" on="0"/>
        <pt x="1485" y="95" on="0"/>
        <pt x="1503" y="109" on="1"/>
        <pt x="1562" y="152" on="0"/>
        <pt x="1618" y="160" on="1"/>
        <pt x="1628" y="160" on="1"/>
        <pt x="1642" y="153" on="0"/>
        <pt x="1642" y="139" on="1"/>
        <pt x="1619" y="57" on="0"/>
        <pt x="1477" y="-50" on="0"/>
        <pt x="1293" y="-100" on="0"/>
        <pt x="1202" y="-100" on="1"/>
        <pt x="1151" y="-100" on="0"/>
        <pt x="1085" y="-34" on="0"/>
        <pt x="1085" y="14" on="1"/>
        <pt x="1085" y="197" on="0"/>
        <pt x="1192" y="590" on="1"/>
        <pt x="1153" y="571" on="0"/>
        <pt x="1126" y="569" on="1"/>
        <pt x="653" y="569" on="1"/>
        <pt x="615" y="439" on="0"/>
        <pt x="522" y="164" on="0"/>
        <pt x="463" y="10" on="1"/>
        <pt x="443" y="-25" on="0"/>
        <pt x="352" y="-79" on="0"/>
        <pt x="307" y="-84" on="1"/>
        <pt x="297" y="-84" on="1"/>
        <pt x="293" y="-82" on="0"/>
        <pt x="283" y="-74" on="0"/>
      </contour>
    </TTGlyph>
    <TTGlyph name="I" xMin="-53" yMin="0" xMax="1307" yMax="1399">
      <contour>
        <pt x="-39" y="0" on="1"/>
        <pt x="-43" y="2" on="0"/>
        <pt x="-53" y="10" on="0"/>
        <pt x="-53" y="16" on="1"/>
        <pt x="-53" y="49" on="0"/>
        <pt x="66" y="117" on="0"/>
        <pt x="102" y="121" on="1"/>
        <pt x="287" y="121" on="1"/>
        <pt x="318" y="121" on="0"/>
        <pt x="351" y="158" on="0"/>
        <pt x="375" y="199" on="1"/>
        <pt x="431" y="292" on="0"/>
        <pt x="481" y="471" on="1"/>
        <pt x="492" y="505" on="0"/>
        <pt x="516" y="604" on="0"/>
        <pt x="530" y="659" on="1"/>
        <pt x="552" y="748" on="0"/>
        <pt x="594" y="907" on="0"/>
        <pt x="655" y="1082" on="0"/>
        <pt x="734" y="1226" on="0"/>
        <pt x="784" y="1278" on="1"/>
        <pt x="659" y="1278" on="1"/>
        <pt x="535" y="1278" on="0"/>
        <pt x="367" y="1266" on="0"/>
        <pt x="289" y="1241" on="1"/>
        <pt x="266" y="1230" on="0"/>
        <pt x="233" y="1146" on="0"/>
        <pt x="231" y="1143" on="1"/>
        <pt x="204" y="1108" on="0"/>
        <pt x="122" y="1063" on="0"/>
        <pt x="82" y="1059" on="1"/>
        <pt x="72" y="1059" on="1"/>
        <pt x="57" y="1066" on="0"/>
        <pt x="57" y="1077" on="1"/>
        <pt x="107" y="1262" on="0"/>
        <pt x="362" y="1352" on="1"/>
        <pt x="451" y="1380" on="0"/>
        <pt x="658" y="1399" on="0"/>
        <pt x="791" y="1399" on="1"/>
        <pt x="1292" y="1399" on="1"/>
        <pt x="1307" y="1391" on="0"/>
        <pt x="1307" y="1382" on="1"/>
        <pt x="1307" y="1350" on="0"/>
        <pt x="1187" y="1282" on="0"/>
        <pt x="1149" y="1278" on="1"/>
        <pt x="907" y="1278" on="1"/>
        <pt x="845" y="1202" on="0"/>
        <pt x="768" y="960" on="0"/>
        <pt x="713" y="741" on="1"/>
        <pt x="687" y="630" on="0"/>
        <pt x="647" y="482" on="0"/>
        <pt x="588" y="323" on="0"/>
        <pt x="497" y="173" on="0"/>
        <pt x="438" y="121" on="1"/>
        <pt x="840" y="121" on="1"/>
        <pt x="877" y="121" on="0"/>
        <pt x="918" y="133" on="1"/>
        <pt x="922" y="134" on="0"/>
        <pt x="943" y="185" on="0"/>
        <pt x="944" y="186" on="1"/>
        <pt x="968" y="218" on="0"/>
        <pt x="1051" y="266" on="0"/>
        <pt x="1092" y="270" on="1"/>
        <pt x="1104" y="270" on="1"/>
        <pt x="1118" y="261" on="0"/>
        <pt x="1118" y="250" on="1"/>
        <pt x="1098" y="179" on="0"/>
        <pt x="961" y="63" on="0"/>
        <pt x="784" y="0" on="0"/>
        <pt x="709" y="0" on="1"/>
      </contour>
    </TTGlyph>
    <TTGlyph name="Ifractur" xMin="115" yMin="-23" xMax="1419" yMax="1444">
      <contour>
        <pt x="133" y="322" on="1"/>
        <pt x="115" y="322" on="0"/>
        <pt x="115" y="340" on="1"/>
        <pt x="115" y="358" on="1"/>
        <pt x="115" y="375" on="0"/>
        <pt x="133" y="375" on="1"/>
        <pt x="276" y="375" on="1"/>
        <pt x="361" y="375" on="0"/>
        <pt x="500" y="295" on="0"/>
        <pt x="700" y="109" on="0"/>
        <pt x="788" y="42" on="0"/>
        <pt x="858" y="25" on="1"/>
        <pt x="922" y="37" on="0"/>
        <pt x="1035" y="108" on="0"/>
        <pt x="1104" y="219" on="0"/>
        <pt x="1104" y="285" on="1"/>
        <pt x="1104" y="333" on="0"/>
        <pt x="1054" y="407" on="0"/>
        <pt x="951" y="514" on="0"/>
        <pt x="903" y="593" on="0"/>
        <pt x="903" y="643" on="1"/>
        <pt x="903" y="712" on="0"/>
        <pt x="982" y="822" on="0"/>
        <pt x="1110" y="883" on="0"/>
        <pt x="1176" y="883" on="1"/>
        <pt x="1233" y="883" on="0"/>
        <pt x="1346" y="836" on="0"/>
        <pt x="1419" y="745" on="0"/>
        <pt x="1419" y="686" on="1"/>
        <pt x="1419" y="666" on="0"/>
        <pt x="1403" y="666" on="1"/>
        <pt x="1366" y="666" on="1"/>
        <pt x="1348" y="666" on="0"/>
        <pt x="1348" y="682" on="1"/>
        <pt x="1348" y="748" on="0"/>
        <pt x="1243" y="829" on="0"/>
        <pt x="1176" y="829" on="1"/>
        <pt x="1120" y="829" on="0"/>
        <pt x="1081" y="712" on="0"/>
        <pt x="1081" y="643" on="1"/>
        <pt x="1081" y="598" on="0"/>
        <pt x="1128" y="526" on="0"/>
        <pt x="1230" y="420" on="0"/>
        <pt x="1282" y="338" on="0"/>
        <pt x="1282" y="285" on="1"/>
        <pt x="1282" y="193" on="0"/>
        <pt x="1179" y="54" on="0"/>
        <pt x="1013" y="-23" on="0"/>
        <pt x="924" y="-23" on="1"/>
        <pt x="780" y="-23" on="1"/>
        <pt x="691" y="-23" on="0"/>
        <pt x="549" y="63" on="0"/>
        <pt x="360" y="234" on="0"/>
        <pt x="222" y="322" on="0"/>
      </contour>
      <contour>
        <pt x="115" y="1051" on="1"/>
        <pt x="115" y="1134" on="0"/>
        <pt x="187" y="1282" on="0"/>
        <pt x="311" y="1387" on="0"/>
        <pt x="468" y="1444" on="0"/>
        <pt x="551" y="1444" on="1"/>
        <pt x="662" y="1444" on="0"/>
        <pt x="877" y="1354" on="0"/>
        <pt x="1049" y="1195" on="0"/>
        <pt x="1106" y="1096" on="1"/>
        <pt x="1124" y="1062" on="0"/>
        <pt x="1154" y="1026" on="0"/>
        <pt x="1176" y="1026" on="1"/>
        <pt x="1238" y="1026" on="0"/>
        <pt x="1348" y="1072" on="0"/>
        <pt x="1348" y="1126" on="1"/>
        <pt x="1348" y="1145" on="0"/>
        <pt x="1366" y="1145" on="1"/>
        <pt x="1403" y="1145" on="1"/>
        <pt x="1419" y="1145" on="0"/>
        <pt x="1419" y="1122" on="1"/>
        <pt x="1419" y="1044" on="0"/>
        <pt x="1265" y="973" on="0"/>
        <pt x="1176" y="973" on="1"/>
        <pt x="1069" y="973" on="0"/>
        <pt x="920" y="1080" on="0"/>
        <pt x="752" y="1288" on="0"/>
        <pt x="633" y="1391" on="0"/>
        <pt x="551" y="1391" on="1"/>
        <pt x="457" y="1391" on="0"/>
        <pt x="287" y="1302" on="0"/>
        <pt x="186" y="1146" on="0"/>
        <pt x="186" y="1051" on="1"/>
        <pt x="186" y="952" on="0"/>
        <pt x="296" y="796" on="0"/>
        <pt x="474" y="711" on="0"/>
        <pt x="571" y="711" on="1"/>
        <pt x="578" y="711" on="0"/>
        <pt x="588" y="700" on="0"/>
        <pt x="588" y="694" on="1"/>
        <pt x="588" y="676" on="1"/>
        <pt x="588" y="657" on="0"/>
        <pt x="567" y="657" on="1"/>
        <pt x="455" y="657" on="0"/>
        <pt x="245" y="756" on="0"/>
        <pt x="115" y="936" on="0"/>
      </contour>
    </TTGlyph>
    <TTGlyph name="J" xMin="96" yMin="-244" xMax="1720" yMax="1399">
      <contour>
        <pt x="96" y="66" on="1"/>
        <pt x="96" y="111" on="0"/>
        <pt x="110" y="172" on="0"/>
        <pt x="137" y="199" on="1"/>
        <pt x="198" y="252" on="0"/>
        <pt x="264" y="260" on="1"/>
        <pt x="274" y="260" on="1"/>
        <pt x="289" y="250" on="0"/>
        <pt x="289" y="240" on="1"/>
        <pt x="279" y="192" on="0"/>
        <pt x="279" y="156" on="1"/>
        <pt x="279" y="31" on="0"/>
        <pt x="455" y="-123" on="0"/>
        <pt x="582" y="-123" on="1"/>
        <pt x="757" y="-123" on="0"/>
        <pt x="879" y="88" on="1"/>
        <pt x="905" y="132" on="0"/>
        <pt x="947" y="252" on="0"/>
        <pt x="986" y="399" on="0"/>
        <pt x="1017" y="529" on="0"/>
        <pt x="1030" y="575" on="1"/>
        <pt x="1098" y="817" on="0"/>
        <pt x="1259" y="1170" on="0"/>
        <pt x="1395" y="1278" on="1"/>
        <pt x="1124" y="1278" on="1"/>
        <pt x="1053" y="1278" on="0"/>
        <pt x="921" y="1236" on="0"/>
        <pt x="820" y="1162" on="0"/>
        <pt x="745" y="1050" on="0"/>
        <pt x="725" y="979" on="1"/>
        <pt x="715" y="945" on="0"/>
        <pt x="611" y="882" on="0"/>
        <pt x="569" y="879" on="1"/>
        <pt x="557" y="879" on="1"/>
        <pt x="543" y="886" on="0"/>
        <pt x="543" y="897" on="1"/>
        <pt x="572" y="1003" on="0"/>
        <pt x="719" y="1188" on="0"/>
        <pt x="924" y="1325" on="0"/>
        <pt x="1146" y="1399" on="0"/>
        <pt x="1255" y="1399" on="1"/>
        <pt x="1706" y="1399" on="1"/>
        <pt x="1720" y="1392" on="0"/>
        <pt x="1720" y="1382" on="1"/>
        <pt x="1720" y="1350" on="0"/>
        <pt x="1601" y="1282" on="0"/>
        <pt x="1565" y="1278" on="1"/>
        <pt x="1550" y="1278" on="0"/>
        <pt x="1522" y="1274" on="1"/>
        <pt x="1516" y="1272" on="1"/>
        <pt x="1512" y="1272" on="0"/>
        <pt x="1509" y="1271" on="0"/>
        <pt x="1507" y="1270" on="1"/>
        <pt x="1507" y="1270" on="0"/>
        <pt x="1501" y="1266" on="1"/>
        <pt x="1433" y="1209" on="0"/>
        <pt x="1316" y="981" on="0"/>
        <pt x="1219" y="691" on="0"/>
        <pt x="1144" y="400" on="0"/>
        <pt x="1124" y="322" on="1"/>
        <pt x="1096" y="215" on="0"/>
        <pt x="963" y="11" on="0"/>
        <pt x="773" y="-153" on="0"/>
        <pt x="558" y="-244" on="0"/>
        <pt x="444" y="-244" on="1"/>
        <pt x="434" y="-244" on="1"/>
        <pt x="342" y="-244" on="0"/>
        <pt x="187" y="-167" on="0"/>
        <pt x="96" y="-27" on="0"/>
      </contour>
    </TTGlyph>
    <TTGlyph name="K" xMin="61" yMin="-45" xMax="1501" yMax="1444">
      <contour>
        <pt x="76" y="-45" on="1"/>
        <pt x="61" y="-37" on="0"/>
        <pt x="61" y="-29" on="1"/>
        <pt x="61" y="-25" on="0"/>
        <pt x="63" y="-18" on="1"/>
        <pt x="118" y="120" on="0"/>
        <pt x="237" y="470" on="0"/>
        <pt x="338" y="833" on="0"/>
        <pt x="401" y="1171" on="0"/>
        <pt x="401" y="1296" on="1"/>
        <pt x="336" y="1264" on="1"/>
        <pt x="305" y="1248" on="0"/>
        <pt x="274" y="1245" on="1"/>
        <pt x="264" y="1245" on="1"/>
        <pt x="250" y="1252" on="0"/>
        <pt x="250" y="1262" on="1"/>
        <pt x="250" y="1296" on="0"/>
        <pt x="330" y="1341" on="1"/>
        <pt x="500" y="1427" on="1"/>
        <pt x="528" y="1441" on="0"/>
        <pt x="559" y="1444" on="1"/>
        <pt x="571" y="1444" on="1"/>
        <pt x="581" y="1439" on="0"/>
        <pt x="586" y="1434" on="0"/>
        <pt x="586" y="1425" on="1"/>
        <pt x="586" y="1280" on="0"/>
        <pt x="525" y="935" on="0"/>
        <pt x="426" y="570" on="0"/>
        <pt x="296" y="187" on="0"/>
        <pt x="242" y="49" on="1"/>
        <pt x="222" y="13" on="0"/>
        <pt x="129" y="-41" on="0"/>
        <pt x="86" y="-45" on="1"/>
      </contour>
      <contour>
        <pt x="1010" y="-45" on="1"/>
        <pt x="932" y="-45" on="0"/>
        <pt x="756" y="156" on="0"/>
        <pt x="600" y="459" on="0"/>
        <pt x="502" y="748" on="0"/>
        <pt x="502" y="819" on="1"/>
        <pt x="502" y="895" on="0"/>
        <pt x="713" y="1110" on="0"/>
        <pt x="1017" y="1311" on="0"/>
        <pt x="1304" y="1444" on="0"/>
        <pt x="1376" y="1444" on="1"/>
        <pt x="1389" y="1444" on="1"/>
        <pt x="1438" y="1444" on="0"/>
        <pt x="1501" y="1369" on="0"/>
        <pt x="1501" y="1321" on="1"/>
        <pt x="1501" y="1274" on="0"/>
        <pt x="1446" y="1218" on="0"/>
        <pt x="1395" y="1210" on="1"/>
        <pt x="1382" y="1210" on="1"/>
        <pt x="1366" y="1224" on="0"/>
        <pt x="1366" y="1233" on="1"/>
        <pt x="1366" y="1240" on="0"/>
        <pt x="1370" y="1262" on="0"/>
        <pt x="1370" y="1268" on="1"/>
        <pt x="1370" y="1302" on="0"/>
        <pt x="1331" y="1348" on="0"/>
        <pt x="1298" y="1348" on="1"/>
        <pt x="1255" y="1348" on="0"/>
        <pt x="1041" y="1242" on="0"/>
        <pt x="798" y="1079" on="0"/>
        <pt x="633" y="921" on="0"/>
        <pt x="633" y="872" on="1"/>
        <pt x="633" y="807" on="0"/>
        <pt x="726" y="533" on="0"/>
        <pt x="873" y="243" on="0"/>
        <pt x="1035" y="51" on="0"/>
        <pt x="1102" y="51" on="1"/>
        <pt x="1189" y="51" on="0"/>
        <pt x="1340" y="136" on="0"/>
        <pt x="1360" y="215" on="1"/>
        <pt x="1370" y="245" on="0"/>
        <pt x="1428" y="280" on="0"/>
        <pt x="1460" y="283" on="1"/>
        <pt x="1473" y="283" on="1"/>
        <pt x="1491" y="270" on="0"/>
        <pt x="1491" y="262" on="1"/>
        <pt x="1491" y="258" on="0"/>
        <pt x="1489" y="254" on="1"/>
        <pt x="1457" y="120" on="0"/>
        <pt x="1170" y="-45" on="0"/>
        <pt x="1022" y="-45" on="1"/>
      </contour>
    </TTGlyph>
    <TTGlyph name="L" xMin="63" yMin="-45" xMax="1343" yMax="1444">
      <contour>
        <pt x="76" y="-45" on="1"/>
        <pt x="63" y="-45" on="0"/>
        <pt x="63" y="-31" on="1"/>
        <pt x="63" y="-23" on="0"/>
        <pt x="70" y="-12" on="1"/>
        <pt x="85" y="12" on="0"/>
        <pt x="145" y="71" on="0"/>
        <pt x="158" y="88" on="1"/>
        <pt x="210" y="163" on="0"/>
        <pt x="240" y="221" on="1"/>
        <pt x="292" y="329" on="0"/>
        <pt x="330" y="469" on="1"/>
        <pt x="386" y="692" on="0"/>
        <pt x="477" y="970" on="0"/>
        <pt x="551" y="1094" on="1"/>
        <pt x="609" y="1190" on="0"/>
        <pt x="779" y="1349" on="0"/>
        <pt x="986" y="1444" on="0"/>
        <pt x="1094" y="1444" on="1"/>
        <pt x="1106" y="1444" on="1"/>
        <pt x="1159" y="1444" on="0"/>
        <pt x="1231" y="1391" on="0"/>
        <pt x="1268" y="1302" on="0"/>
        <pt x="1268" y="1251" on="1"/>
        <pt x="1268" y="1173" on="0"/>
        <pt x="1243" y="1143" on="1"/>
        <pt x="1172" y="1066" on="0"/>
        <pt x="1075" y="1053" on="1"/>
        <pt x="1063" y="1053" on="1"/>
        <pt x="1051" y="1053" on="0"/>
        <pt x="1051" y="1067" on="1"/>
        <pt x="1051" y="1069" on="0"/>
        <pt x="1061" y="1127" on="0"/>
        <pt x="1061" y="1147" on="1"/>
        <pt x="1061" y="1213" on="0"/>
        <pt x="995" y="1311" on="0"/>
        <pt x="930" y="1311" on="1"/>
        <pt x="854" y="1311" on="0"/>
        <pt x="854" y="1298" on="1"/>
        <pt x="798" y="1259" on="0"/>
        <pt x="695" y="1078" on="0"/>
        <pt x="618" y="867" on="0"/>
        <pt x="558" y="654" on="0"/>
        <pt x="535" y="561" on="1"/>
        <pt x="510" y="460" on="0"/>
        <pt x="431" y="275" on="0"/>
        <pt x="377" y="193" on="1"/>
        <pt x="401" y="201" on="0"/>
        <pt x="436" y="201" on="1"/>
        <pt x="449" y="201" on="1"/>
        <pt x="520" y="201" on="0"/>
        <pt x="662" y="172" on="0"/>
        <pt x="860" y="116" on="0"/>
        <pt x="992" y="89" on="0"/>
        <pt x="1065" y="88" on="1"/>
        <pt x="1087" y="88" on="0"/>
        <pt x="1115" y="128" on="0"/>
        <pt x="1142" y="199" on="0"/>
        <pt x="1151" y="211" on="1"/>
        <pt x="1182" y="245" on="0"/>
        <pt x="1272" y="295" on="0"/>
        <pt x="1317" y="301" on="1"/>
        <pt x="1329" y="301" on="1"/>
        <pt x="1335" y="301" on="0"/>
        <pt x="1343" y="293" on="0"/>
        <pt x="1343" y="287" on="1"/>
        <pt x="1343" y="287" on="0"/>
        <pt x="1341" y="281" on="1"/>
        <pt x="1321" y="201" on="0"/>
        <pt x="1173" y="46" on="0"/>
        <pt x="984" y="-45" on="0"/>
        <pt x="905" y="-45" on="1"/>
        <pt x="893" y="-45" on="1"/>
        <pt x="822" y="-45" on="0"/>
        <pt x="686" y="-19" on="0"/>
        <pt x="488" y="37" on="0"/>
        <pt x="347" y="67" on="0"/>
        <pt x="276" y="68" on="1"/>
        <pt x="185" y="-32" on="0"/>
        <pt x="88" y="-45" on="1"/>
      </contour>
    </TTGlyph>
    <TTGlyph name="M" xMin="55" yMin="-102" xMax="2300" yMax="1444">
      <contour>
        <pt x="55" y="4" on="1"/>
        <pt x="55" y="40" on="0"/>
        <pt x="106" y="164" on="0"/>
        <pt x="137" y="164" on="1"/>
        <pt x="139" y="164" on="0"/>
        <pt x="143" y="162" on="1"/>
        <pt x="174" y="131" on="0"/>
        <pt x="259" y="94" on="0"/>
        <pt x="301" y="94" on="1"/>
        <pt x="345" y="94" on="0"/>
        <pt x="460" y="314" on="0"/>
        <pt x="564" y="593" on="0"/>
        <pt x="586" y="662" on="1"/>
        <pt x="623" y="774" on="0"/>
        <pt x="686" y="1005" on="0"/>
        <pt x="733" y="1233" on="0"/>
        <pt x="750" y="1358" on="1"/>
        <pt x="750" y="1370" on="0"/>
        <pt x="764" y="1384" on="1"/>
        <pt x="784" y="1405" on="0"/>
        <pt x="817" y="1425" on="1"/>
        <pt x="844" y="1438" on="0"/>
        <pt x="877" y="1444" on="1"/>
        <pt x="891" y="1444" on="1"/>
        <pt x="905" y="1437" on="0"/>
        <pt x="907" y="1430" on="1"/>
        <pt x="942" y="1220" on="0"/>
        <pt x="1029" y="805" on="0"/>
        <pt x="1142" y="416" on="0"/>
        <pt x="1210" y="279" on="1"/>
        <pt x="1382" y="443" on="0"/>
        <pt x="1524" y="602" on="1"/>
        <pt x="1640" y="733" on="0"/>
        <pt x="1819" y="941" on="0"/>
        <pt x="1964" y="1112" on="0"/>
        <pt x="2176" y="1366" on="0"/>
        <pt x="2222" y="1423" on="1"/>
        <pt x="2241" y="1444" on="0"/>
        <pt x="2253" y="1444" on="1"/>
        <pt x="2269" y="1444" on="0"/>
        <pt x="2269" y="1409" on="1"/>
        <pt x="2269" y="1381" on="0"/>
        <pt x="2257" y="1339" on="1"/>
        <pt x="2166" y="889" on="0"/>
        <pt x="2126" y="422" on="1"/>
        <pt x="2120" y="352" on="0"/>
        <pt x="2120" y="281" on="1"/>
        <pt x="2120" y="203" on="0"/>
        <pt x="2130" y="111" on="1"/>
        <pt x="2133" y="69" on="0"/>
        <pt x="2179" y="61" on="1"/>
        <pt x="2235" y="92" on="0"/>
        <pt x="2273" y="96" on="1"/>
        <pt x="2286" y="96" on="1"/>
        <pt x="2300" y="89" on="0"/>
        <pt x="2300" y="80" on="1"/>
        <pt x="2300" y="39" on="0"/>
        <pt x="2098" y="-59" on="0"/>
        <pt x="2048" y="-59" on="1"/>
        <pt x="2036" y="-59" on="1"/>
        <pt x="1972" y="-59" on="0"/>
        <pt x="1937" y="88" on="0"/>
        <pt x="1937" y="193" on="1"/>
        <pt x="1937" y="477" on="0"/>
        <pt x="2036" y="1047" on="1"/>
        <pt x="1898" y="882" on="0"/>
        <pt x="1725" y="677" on="0"/>
        <pt x="1550" y="476" on="0"/>
        <pt x="1345" y="256" on="0"/>
        <pt x="1266" y="178" on="1"/>
        <pt x="1168" y="75" on="0"/>
        <pt x="1147" y="70" on="1"/>
        <pt x="1133" y="70" on="1"/>
        <pt x="1098" y="87" on="0"/>
        <pt x="975" y="380" on="0"/>
        <pt x="950" y="465" on="1"/>
        <pt x="902" y="634" on="0"/>
        <pt x="824" y="954" on="0"/>
        <pt x="788" y="1128" on="1"/>
        <pt x="771" y="1038" on="0"/>
        <pt x="651" y="621" on="0"/>
        <pt x="493" y="195" on="0"/>
        <pt x="316" y="-102" on="0"/>
        <pt x="236" y="-102" on="1"/>
        <pt x="185" y="-102" on="0"/>
        <pt x="55" y="-41" on="0"/>
      </contour>
    </TTGlyph>
    <TTGlyph name="N" xMin="-59" yMin="-102" xMax="2003" yMax="1595">
      <contour>
        <pt x="-59" y="4" on="1"/>
        <pt x="-59" y="42" on="0"/>
        <pt x="-7" y="164" on="0"/>
        <pt x="23" y="164" on="1"/>
        <pt x="27" y="164" on="0"/>
        <pt x="29" y="162" on="1"/>
        <pt x="94" y="94" on="0"/>
        <pt x="190" y="94" on="1"/>
        <pt x="244" y="94" on="0"/>
        <pt x="327" y="289" on="0"/>
        <pt x="367" y="418" on="1"/>
        <pt x="388" y="483" on="0"/>
        <pt x="449" y="693" on="0"/>
        <pt x="465" y="758" on="1"/>
        <pt x="479" y="812" on="0"/>
        <pt x="518" y="997" on="0"/>
        <pt x="543" y="1135" on="0"/>
        <pt x="563" y="1279" on="0"/>
        <pt x="571" y="1358" on="1"/>
        <pt x="571" y="1369" on="0"/>
        <pt x="586" y="1384" on="1"/>
        <pt x="608" y="1407" on="0"/>
        <pt x="639" y="1425" on="1"/>
        <pt x="668" y="1438" on="0"/>
        <pt x="698" y="1444" on="1"/>
        <pt x="715" y="1444" on="1"/>
        <pt x="727" y="1438" on="0"/>
        <pt x="729" y="1430" on="1"/>
        <pt x="780" y="1251" on="0"/>
        <pt x="856" y="1024" on="1"/>
        <pt x="925" y="814" on="0"/>
        <pt x="1023" y="546" on="0"/>
        <pt x="1156" y="249" on="0"/>
        <pt x="1235" y="123" on="1"/>
        <pt x="1342" y="582" on="0"/>
        <pt x="1448" y="956" on="1"/>
        <pt x="1475" y="1051" on="1"/>
        <pt x="1519" y="1206" on="0"/>
        <pt x="1576" y="1379" on="0"/>
        <pt x="1620" y="1448" on="1"/>
        <pt x="1656" y="1504" on="0"/>
        <pt x="1772" y="1568" on="0"/>
        <pt x="1910" y="1595" on="0"/>
        <pt x="1985" y="1595" on="1"/>
        <pt x="2003" y="1595" on="0"/>
        <pt x="2003" y="1561" on="1"/>
        <pt x="2003" y="1537" on="0"/>
        <pt x="1982" y="1462" on="0"/>
        <pt x="1946" y="1404" on="0"/>
        <pt x="1923" y="1399" on="1"/>
        <pt x="1842" y="1399" on="0"/>
        <pt x="1715" y="1373" on="0"/>
        <pt x="1663" y="1339" on="1"/>
        <pt x="1637" y="1320" on="0"/>
        <pt x="1628" y="1300" on="0"/>
        <pt x="1612" y="1251" on="1"/>
        <pt x="1586" y="1179" on="0"/>
        <pt x="1559" y="1077" on="1"/>
        <pt x="1532" y="985" on="1"/>
        <pt x="1480" y="797" on="0"/>
        <pt x="1399" y="487" on="0"/>
        <pt x="1325" y="182" on="0"/>
        <pt x="1290" y="27" on="1"/>
        <pt x="1291" y="27" on="0"/>
        <pt x="1288" y="32" on="0"/>
        <pt x="1288" y="33" on="1"/>
        <pt x="1288" y="15" on="0"/>
        <pt x="1241" y="-25" on="0"/>
        <pt x="1180" y="-52" on="0"/>
        <pt x="1161" y="-55" on="1"/>
        <pt x="1147" y="-55" on="1"/>
        <pt x="1113" y="-38" on="0"/>
        <pt x="949" y="274" on="0"/>
        <pt x="907" y="375" on="1"/>
        <pt x="755" y="751" on="0"/>
        <pt x="629" y="1161" on="1"/>
        <pt x="613" y="1062" on="0"/>
        <pt x="513" y="633" on="0"/>
        <pt x="375" y="197" on="0"/>
        <pt x="210" y="-102" on="0"/>
        <pt x="127" y="-102" on="1"/>
        <pt x="74" y="-102" on="0"/>
        <pt x="-59" y="-42" on="0"/>
      </contour>
    </TTGlyph>
    <TTGlyph name="O" xMin="117" yMin="-45" xMax="1591" yMax="1444">
      <contour>
        <pt x="596" y="-45" on="1"/>
        <pt x="371" y="-45" on="0"/>
        <pt x="117" y="274" on="0"/>
        <pt x="117" y="506" on="1"/>
        <pt x="117" y="809" on="0"/>
        <pt x="317" y="1077" on="1"/>
        <pt x="364" y="1139" on="0"/>
        <pt x="544" y="1311" on="0"/>
        <pt x="730" y="1437" on="0"/>
        <pt x="795" y="1444" on="1"/>
        <pt x="805" y="1444" on="1"/>
        <pt x="819" y="1437" on="0"/>
        <pt x="819" y="1427" on="1"/>
        <pt x="819" y="1419" on="0"/>
        <pt x="811" y="1407" on="1"/>
        <pt x="799" y="1392" on="0"/>
        <pt x="618" y="1264" on="0"/>
        <pt x="608" y="1255" on="1"/>
        <pt x="514" y="1173" on="0"/>
        <pt x="446" y="1073" on="1"/>
        <pt x="375" y="967" on="0"/>
        <pt x="299" y="721" on="0"/>
        <pt x="299" y="592" on="1"/>
        <pt x="299" y="455" on="0"/>
        <pt x="400" y="218" on="0"/>
        <pt x="603" y="76" on="0"/>
        <pt x="743" y="76" on="1"/>
        <pt x="890" y="76" on="0"/>
        <pt x="1141" y="225" on="0"/>
        <pt x="1313" y="465" on="0"/>
        <pt x="1409" y="760" on="0"/>
        <pt x="1409" y="899" on="1"/>
        <pt x="1409" y="1011" on="0"/>
        <pt x="1342" y="1202" on="0"/>
        <pt x="1198" y="1323" on="0"/>
        <pt x="1087" y="1323" on="1"/>
        <pt x="1042" y="1323" on="0"/>
        <pt x="1001" y="1305" on="1"/>
        <pt x="934" y="1269" on="0"/>
        <pt x="813" y="1082" on="0"/>
        <pt x="772" y="983" on="1"/>
        <pt x="751" y="947" on="0"/>
        <pt x="659" y="893" on="0"/>
        <pt x="616" y="889" on="1"/>
        <pt x="606" y="889" on="1"/>
        <pt x="602" y="891" on="0"/>
        <pt x="592" y="899" on="0"/>
        <pt x="592" y="905" on="1"/>
        <pt x="592" y="909" on="0"/>
        <pt x="594" y="915" on="1"/>
        <pt x="686" y="1146" on="0"/>
        <pt x="846" y="1282" on="1"/>
        <pt x="932" y="1356" on="0"/>
        <pt x="1122" y="1444" on="0"/>
        <pt x="1223" y="1444" on="1"/>
        <pt x="1235" y="1444" on="1"/>
        <pt x="1359" y="1444" on="0"/>
        <pt x="1517" y="1316" on="0"/>
        <pt x="1591" y="1107" on="0"/>
        <pt x="1591" y="987" on="1"/>
        <pt x="1591" y="854" on="0"/>
        <pt x="1520" y="598" on="0"/>
        <pt x="1389" y="374" on="0"/>
        <pt x="1294" y="279" on="1"/>
        <pt x="1197" y="184" on="0"/>
        <pt x="978" y="40" on="0"/>
        <pt x="730" y="-45" on="0"/>
        <pt x="606" y="-45" on="1"/>
      </contour>
    </TTGlyph>
    <TTGlyph name="P" xMin="39" yMin="-106" xMax="1501" yMax="1399">
      <contour>
        <pt x="221" y="-90" on="1"/>
        <pt x="221" y="-84" on="0"/>
        <pt x="223" y="-80" on="1"/>
        <pt x="292" y="88" on="0"/>
        <pt x="405" y="430" on="0"/>
        <pt x="451" y="606" on="1"/>
        <pt x="536" y="953" on="0"/>
        <pt x="565" y="1278" on="1"/>
        <pt x="456" y="1278" on="0"/>
        <pt x="350" y="1239" on="1"/>
        <pt x="295" y="1217" on="0"/>
        <pt x="238" y="1148" on="0"/>
        <pt x="219" y="1087" on="1"/>
        <pt x="199" y="1053" on="0"/>
        <pt x="103" y="993" on="0"/>
        <pt x="66" y="993" on="1"/>
        <pt x="53" y="993" on="1"/>
        <pt x="39" y="1002" on="0"/>
        <pt x="39" y="1014" on="1"/>
        <pt x="75" y="1138" on="0"/>
        <pt x="297" y="1312" on="0"/>
        <pt x="591" y="1399" on="0"/>
        <pt x="723" y="1399" on="1"/>
        <pt x="985" y="1399" on="1"/>
        <pt x="1072" y="1399" on="0"/>
        <pt x="1247" y="1366" on="0"/>
        <pt x="1403" y="1290" on="0"/>
        <pt x="1501" y="1163" on="0"/>
        <pt x="1501" y="1071" on="1"/>
        <pt x="1501" y="978" on="0"/>
        <pt x="1411" y="803" on="0"/>
        <pt x="1273" y="660" on="0"/>
        <pt x="1186" y="600" on="1"/>
        <pt x="1057" y="515" on="0"/>
        <pt x="773" y="420" on="0"/>
        <pt x="629" y="420" on="1"/>
        <pt x="618" y="420" on="1"/>
        <pt x="614" y="422" on="0"/>
        <pt x="604" y="430" on="0"/>
        <pt x="604" y="436" on="1"/>
        <pt x="604" y="470" on="0"/>
        <pt x="723" y="537" on="0"/>
        <pt x="760" y="541" on="1"/>
        <pt x="861" y="541" on="0"/>
        <pt x="1058" y="596" on="0"/>
        <pt x="1135" y="653" on="1"/>
        <pt x="1188" y="695" on="0"/>
        <pt x="1269" y="798" on="0"/>
        <pt x="1319" y="921" on="0"/>
        <pt x="1319" y="985" on="1"/>
        <pt x="1319" y="1092" on="0"/>
        <pt x="1162" y="1225" on="0"/>
        <pt x="936" y="1278" on="0"/>
        <pt x="831" y="1278" on="1"/>
        <pt x="739" y="1278" on="1"/>
        <pt x="720" y="1104" on="0"/>
        <pt x="659" y="783" on="0"/>
        <pt x="576" y="471" on="0"/>
        <pt x="464" y="139" on="0"/>
        <pt x="401" y="-12" on="1"/>
        <pt x="379" y="-48" on="0"/>
        <pt x="291" y="-101" on="0"/>
        <pt x="246" y="-106" on="1"/>
        <pt x="236" y="-106" on="1"/>
        <pt x="228" y="-102" on="0"/>
        <pt x="223" y="-99" on="0"/>
        <pt x="221" y="-96" on="0"/>
      </contour>
    </TTGlyph>
    <TTGlyph name="Q" xMin="233" yMin="-258" xMax="1614" yMax="1444">
      <contour>
        <pt x="287" y="-59" on="1"/>
        <pt x="272" y="-51" on="0"/>
        <pt x="272" y="-43" on="1"/>
        <pt x="272" y="-9" on="0"/>
        <pt x="393" y="57" on="0"/>
        <pt x="428" y="61" on="1"/>
        <pt x="590" y="61" on="0"/>
        <pt x="791" y="78" on="0"/>
        <pt x="1001" y="149" on="0"/>
        <pt x="1098" y="225" on="1"/>
        <pt x="1241" y="345" on="0"/>
        <pt x="1405" y="672" on="0"/>
        <pt x="1405" y="854" on="1"/>
        <pt x="1405" y="946" on="0"/>
        <pt x="1353" y="1117" on="0"/>
        <pt x="1250" y="1248" on="0"/>
        <pt x="1094" y="1323" on="0"/>
        <pt x="997" y="1323" on="1"/>
        <pt x="846" y="1323" on="0"/>
        <pt x="576" y="1128" on="0"/>
        <pt x="416" y="828" on="0"/>
        <pt x="416" y="678" on="1"/>
        <pt x="416" y="585" on="0"/>
        <pt x="491" y="425" on="0"/>
        <pt x="633" y="330" on="0"/>
        <pt x="729" y="330" on="1"/>
        <pt x="793" y="330" on="0"/>
        <pt x="877" y="358" on="1"/>
        <pt x="905" y="372" on="0"/>
        <pt x="943" y="391" on="0"/>
        <pt x="985" y="409" on="0"/>
        <pt x="1008" y="410" on="1"/>
        <pt x="1020" y="410" on="1"/>
        <pt x="1034" y="403" on="0"/>
        <pt x="1034" y="395" on="1"/>
        <pt x="1034" y="385" on="0"/>
        <pt x="1026" y="373" on="1"/>
        <pt x="994" y="329" on="0"/>
        <pt x="836" y="254" on="0"/>
        <pt x="655" y="209" on="0"/>
        <pt x="592" y="209" on="1"/>
        <pt x="580" y="209" on="1"/>
        <pt x="474" y="209" on="0"/>
        <pt x="316" y="312" on="0"/>
        <pt x="233" y="484" on="0"/>
        <pt x="233" y="588" on="1"/>
        <pt x="233" y="745" on="0"/>
        <pt x="392" y="1053" on="0"/>
        <pt x="661" y="1302" on="0"/>
        <pt x="982" y="1444" on="0"/>
        <pt x="1135" y="1444" on="1"/>
        <pt x="1145" y="1444" on="1"/>
        <pt x="1251" y="1444" on="0"/>
        <pt x="1416" y="1366" on="0"/>
        <pt x="1530" y="1227" on="0"/>
        <pt x="1587" y="1046" on="0"/>
        <pt x="1587" y="942" on="1"/>
        <pt x="1587" y="778" on="0"/>
        <pt x="1459" y="471" on="0"/>
        <pt x="1240" y="227" on="0"/>
        <pt x="954" y="45" on="0"/>
        <pt x="793" y="-6" on="1"/>
        <pt x="836" y="-20" on="0"/>
        <pt x="983" y="-72" on="0"/>
        <pt x="1120" y="-113" on="0"/>
        <pt x="1248" y="-136" on="0"/>
        <pt x="1315" y="-137" on="1"/>
        <pt x="1365" y="-137" on="0"/>
        <pt x="1391" y="-115" on="1"/>
        <pt x="1411" y="-94" on="0"/>
        <pt x="1430" y="-39" on="0"/>
        <pt x="1440" y="-25" on="1"/>
        <pt x="1466" y="10" on="0"/>
        <pt x="1548" y="56" on="0"/>
        <pt x="1589" y="61" on="1"/>
        <pt x="1599" y="61" on="1"/>
        <pt x="1614" y="54" on="0"/>
        <pt x="1614" y="41" on="1"/>
        <pt x="1591" y="-43" on="0"/>
        <pt x="1448" y="-180" on="0"/>
        <pt x="1263" y="-258" on="0"/>
        <pt x="1180" y="-258" on="1"/>
        <pt x="1169" y="-258" on="1"/>
        <pt x="1067" y="-258" on="0"/>
        <pt x="880" y="-211" on="0"/>
        <pt x="588" y="-109" on="0"/>
        <pt x="398" y="-59" on="0"/>
      </contour>
    </TTGlyph>
    <TTGlyph name="R" xMin="39" yMin="-45" xMax="1716" yMax="1399">
      <contour>
        <pt x="236" y="-29" on="1"/>
        <pt x="236" y="-25" on="0"/>
        <pt x="238" y="-18" on="1"/>
        <pt x="309" y="152" on="0"/>
        <pt x="413" y="462" on="0"/>
        <pt x="457" y="637" on="1"/>
        <pt x="537" y="947" on="0"/>
        <pt x="565" y="1278" on="1"/>
        <pt x="456" y="1278" on="0"/>
        <pt x="350" y="1239" on="1"/>
        <pt x="295" y="1217" on="0"/>
        <pt x="238" y="1148" on="0"/>
        <pt x="219" y="1087" on="1"/>
        <pt x="199" y="1053" on="0"/>
        <pt x="103" y="993" on="0"/>
        <pt x="66" y="993" on="1"/>
        <pt x="53" y="993" on="1"/>
        <pt x="39" y="1002" on="0"/>
        <pt x="39" y="1014" on="1"/>
        <pt x="75" y="1138" on="0"/>
        <pt x="297" y="1312" on="0"/>
        <pt x="591" y="1399" on="0"/>
        <pt x="723" y="1399" on="1"/>
        <pt x="938" y="1399" on="1"/>
        <pt x="1081" y="1399" on="0"/>
        <pt x="1312" y="1373" on="0"/>
        <pt x="1499" y="1259" on="0"/>
        <pt x="1499" y="1143" on="1"/>
        <pt x="1499" y="1050" on="0"/>
        <pt x="1412" y="879" on="0"/>
        <pt x="1269" y="742" on="0"/>
        <pt x="1097" y="639" on="0"/>
        <pt x="1010" y="608" on="1"/>
        <pt x="1041" y="571" on="0"/>
        <pt x="1124" y="390" on="0"/>
        <pt x="1218" y="193" on="0"/>
        <pt x="1311" y="76" on="0"/>
        <pt x="1362" y="76" on="1"/>
        <pt x="1422" y="76" on="0"/>
        <pt x="1491" y="121" on="0"/>
        <pt x="1565" y="212" on="0"/>
        <pt x="1633" y="265" on="0"/>
        <pt x="1690" y="270" on="1"/>
        <pt x="1702" y="270" on="1"/>
        <pt x="1716" y="263" on="0"/>
        <pt x="1716" y="254" on="1"/>
        <pt x="1716" y="251" on="0"/>
        <pt x="1712" y="241" on="0"/>
        <pt x="1710" y="236" on="1"/>
        <pt x="1660" y="161" on="0"/>
        <pt x="1499" y="29" on="0"/>
        <pt x="1313" y="-45" on="0"/>
        <pt x="1225" y="-45" on="1"/>
        <pt x="1212" y="-45" on="1"/>
        <pt x="1133" y="-45" on="0"/>
        <pt x="1025" y="108" on="0"/>
        <pt x="897" y="411" on="0"/>
        <pt x="800" y="559" on="0"/>
        <pt x="729" y="559" on="1"/>
        <pt x="725" y="561" on="0"/>
        <pt x="715" y="569" on="0"/>
        <pt x="715" y="575" on="1"/>
        <pt x="715" y="608" on="0"/>
        <pt x="834" y="676" on="0"/>
        <pt x="870" y="680" on="1"/>
        <pt x="983" y="680" on="0"/>
        <pt x="1190" y="768" on="0"/>
        <pt x="1317" y="939" on="0"/>
        <pt x="1317" y="1053" on="1"/>
        <pt x="1317" y="1156" on="0"/>
        <pt x="1136" y="1255" on="0"/>
        <pt x="914" y="1278" on="0"/>
        <pt x="784" y="1278" on="1"/>
        <pt x="739" y="1278" on="1"/>
        <pt x="707" y="973" on="0"/>
        <pt x="544" y="352" on="0"/>
        <pt x="416" y="49" on="1"/>
        <pt x="396" y="13" on="0"/>
        <pt x="303" y="-41" on="0"/>
        <pt x="260" y="-45" on="1"/>
        <pt x="250" y="-45" on="1"/>
        <pt x="246" y="-43" on="0"/>
        <pt x="236" y="-35" on="0"/>
      </contour>
    </TTGlyph>
    <TTGlyph name="Rfractur" xMin="90" yMin="-45" xMax="1464" yMax="1466">
      <contour>
        <pt x="119" y="158" on="1"/>
        <pt x="108" y="158" on="0"/>
        <pt x="90" y="176" on="0"/>
        <pt x="90" y="186" on="1"/>
        <pt x="90" y="199" on="0"/>
        <pt x="111" y="211" on="0"/>
        <pt x="133" y="217" on="1"/>
        <pt x="125" y="229" on="0"/>
        <pt x="125" y="240" on="1"/>
        <pt x="125" y="244" on="0"/>
        <pt x="129" y="252" on="1"/>
        <pt x="147" y="268" on="1"/>
        <pt x="150" y="272" on="0"/>
        <pt x="160" y="272" on="1"/>
        <pt x="167" y="272" on="0"/>
        <pt x="176" y="262" on="0"/>
        <pt x="184" y="244" on="0"/>
        <pt x="186" y="240" on="1"/>
        <pt x="192" y="243" on="0"/>
        <pt x="216" y="252" on="0"/>
        <pt x="223" y="252" on="1"/>
        <pt x="234" y="252" on="0"/>
        <pt x="252" y="234" on="0"/>
        <pt x="252" y="223" on="1"/>
        <pt x="252" y="210" on="0"/>
        <pt x="219" y="195" on="0"/>
        <pt x="205" y="190" on="1"/>
        <pt x="276" y="8" on="0"/>
        <pt x="397" y="8" on="1"/>
        <pt x="477" y="8" on="0"/>
        <pt x="524" y="347" on="0"/>
        <pt x="524" y="520" on="1"/>
        <pt x="524" y="911" on="1"/>
        <pt x="524" y="1391" on="0"/>
        <pt x="342" y="1391" on="1"/>
        <pt x="271" y="1391" on="0"/>
        <pt x="184" y="1269" on="0"/>
        <pt x="184" y="1198" on="1"/>
        <pt x="184" y="1163" on="0"/>
        <pt x="219" y="1119" on="0"/>
        <pt x="340" y="991" on="0"/>
        <pt x="397" y="890" on="0"/>
        <pt x="397" y="825" on="1"/>
        <pt x="397" y="498" on="0"/>
        <pt x="231" y="498" on="1"/>
        <pt x="173" y="498" on="0"/>
        <pt x="115" y="604" on="0"/>
        <pt x="115" y="666" on="1"/>
        <pt x="115" y="688" on="0"/>
        <pt x="133" y="688" on="1"/>
        <pt x="158" y="688" on="1"/>
        <pt x="164" y="688" on="0"/>
        <pt x="174" y="677" on="0"/>
        <pt x="174" y="670" on="1"/>
        <pt x="174" y="629" on="0"/>
        <pt x="198" y="551" on="0"/>
        <pt x="231" y="551" on="1"/>
        <pt x="324" y="551" on="0"/>
        <pt x="324" y="817" on="1"/>
        <pt x="324" y="873" on="0"/>
        <pt x="258" y="963" on="0"/>
        <pt x="201" y="1022" on="1"/>
        <pt x="158" y="1071" on="0"/>
        <pt x="115" y="1146" on="0"/>
        <pt x="115" y="1192" on="1"/>
        <pt x="115" y="1257" on="0"/>
        <pt x="174" y="1373" on="0"/>
        <pt x="277" y="1444" on="0"/>
        <pt x="342" y="1444" on="1"/>
        <pt x="401" y="1444" on="0"/>
        <pt x="511" y="1389" on="0"/>
        <pt x="598" y="1294" on="0"/>
        <pt x="627" y="1239" on="1"/>
        <pt x="698" y="1354" on="0"/>
        <pt x="991" y="1466" on="0"/>
        <pt x="1147" y="1466" on="1"/>
        <pt x="1157" y="1466" on="0"/>
        <pt x="1163" y="1460" on="1"/>
        <pt x="1460" y="924" on="1"/>
        <pt x="1464" y="912" on="0"/>
        <pt x="1464" y="911" on="1"/>
        <pt x="1464" y="898" on="0"/>
        <pt x="1458" y="895" on="1"/>
        <pt x="1335" y="827" on="1"/>
        <pt x="1311" y="814" on="0"/>
        <pt x="1245" y="778" on="0"/>
        <pt x="1195" y="753" on="0"/>
        <pt x="1140" y="729" on="0"/>
        <pt x="1112" y="721" on="1"/>
        <pt x="1139" y="254" on="1"/>
        <pt x="1139" y="240" on="0"/>
        <pt x="1130" y="203" on="0"/>
        <pt x="1130" y="193" on="1"/>
        <pt x="1130" y="144" on="0"/>
        <pt x="1182" y="54" on="0"/>
        <pt x="1223" y="27" on="1"/>
        <pt x="1380" y="160" on="1"/>
        <pt x="1384" y="164" on="0"/>
        <pt x="1393" y="164" on="1"/>
        <pt x="1401" y="164" on="0"/>
        <pt x="1431" y="144" on="0"/>
        <pt x="1434" y="143" on="1"/>
        <pt x="1440" y="140" on="0"/>
        <pt x="1440" y="129" on="1"/>
        <pt x="1440" y="119" on="0"/>
        <pt x="1434" y="113" on="1"/>
        <pt x="1237" y="-41" on="1"/>
        <pt x="1233" y="-45" on="0"/>
        <pt x="1227" y="-45" on="1"/>
        <pt x="1190" y="-45" on="1"/>
        <pt x="1128" y="-45" on="0"/>
        <pt x="1018" y="20" on="0"/>
        <pt x="952" y="130" on="0"/>
        <pt x="952" y="193" on="1"/>
        <pt x="952" y="204" on="0"/>
        <pt x="961" y="243" on="0"/>
        <pt x="961" y="254" on="1"/>
        <pt x="936" y="702" on="1"/>
        <pt x="702" y="702" on="1"/>
        <pt x="702" y="516" on="1"/>
        <pt x="702" y="410" on="0"/>
        <pt x="642" y="147" on="0"/>
        <pt x="503" y="-45" on="0"/>
        <pt x="397" y="-45" on="1"/>
        <pt x="235" y="-45" on="0"/>
        <pt x="152" y="170" on="1"/>
        <pt x="144" y="166" on="0"/>
        <pt x="122" y="158" on="0"/>
      </contour>
      <contour>
        <pt x="702" y="774" on="1"/>
        <pt x="1020" y="774" on="1"/>
        <pt x="1057" y="774" on="0"/>
        <pt x="1148" y="807" on="0"/>
        <pt x="1225" y="848" on="0"/>
        <pt x="1280" y="879" on="1"/>
        <pt x="1004" y="1382" on="1"/>
        <pt x="885" y="1361" on="0"/>
        <pt x="698" y="1249" on="0"/>
        <pt x="664" y="1153" on="1"/>
        <pt x="684" y="1092" on="0"/>
        <pt x="702" y="973" on="0"/>
        <pt x="702" y="911" on="1"/>
      </contour>
    </TTGlyph>
    <TTGlyph name="S" xMin="37" yMin="-45" xMax="1315" yMax="1444">
      <contour>
        <pt x="37" y="254" on="1"/>
        <pt x="37" y="372" on="0"/>
        <pt x="127" y="465" on="1"/>
        <pt x="166" y="501" on="0"/>
        <pt x="268" y="551" on="0"/>
        <pt x="315" y="551" on="1"/>
        <pt x="328" y="551" on="1"/>
        <pt x="342" y="544" on="0"/>
        <pt x="342" y="535" on="1"/>
        <pt x="342" y="524" on="0"/>
        <pt x="328" y="505" on="0"/>
        <pt x="314" y="493" on="0"/>
        <pt x="299" y="481" on="1"/>
        <pt x="286" y="471" on="0"/>
        <pt x="255" y="454" on="0"/>
        <pt x="243" y="443" on="0"/>
        <pt x="236" y="428" on="1"/>
        <pt x="219" y="386" on="0"/>
        <pt x="219" y="342" on="1"/>
        <pt x="219" y="261" on="0"/>
        <pt x="336" y="140" on="0"/>
        <pt x="509" y="76" on="0"/>
        <pt x="590" y="76" on="1"/>
        <pt x="694" y="76" on="0"/>
        <pt x="877" y="140" on="0"/>
        <pt x="993" y="274" on="0"/>
        <pt x="993" y="379" on="1"/>
        <pt x="993" y="443" on="0"/>
        <pt x="932" y="545" on="0"/>
        <pt x="828" y="625" on="0"/>
        <pt x="728" y="676" on="0"/>
        <pt x="659" y="707" on="1"/>
        <pt x="540" y="762" on="0"/>
        <pt x="391" y="901" on="0"/>
        <pt x="391" y="1001" on="1"/>
        <pt x="391" y="1124" on="0"/>
        <pt x="585" y="1328" on="0"/>
        <pt x="869" y="1444" on="0"/>
        <pt x="983" y="1444" on="1"/>
        <pt x="995" y="1444" on="1"/>
        <pt x="1064" y="1444" on="0"/>
        <pt x="1213" y="1407" on="0"/>
        <pt x="1315" y="1319" on="0"/>
        <pt x="1315" y="1247" on="1"/>
        <pt x="1315" y="1161" on="0"/>
        <pt x="1272" y="1118" on="1"/>
        <pt x="1200" y="1064" on="0"/>
        <pt x="1145" y="1059" on="1"/>
        <pt x="1133" y="1059" on="1"/>
        <pt x="1118" y="1066" on="0"/>
        <pt x="1118" y="1077" on="1"/>
        <pt x="1122" y="1095" on="0"/>
        <pt x="1127" y="1111" on="0"/>
        <pt x="1133" y="1143" on="0"/>
        <pt x="1133" y="1157" on="1"/>
        <pt x="1133" y="1247" on="0"/>
        <pt x="952" y="1323" on="0"/>
        <pt x="846" y="1323" on="1"/>
        <pt x="729" y="1323" on="0"/>
        <pt x="573" y="1201" on="0"/>
        <pt x="573" y="1092" on="1"/>
        <pt x="573" y="938" on="0"/>
        <pt x="813" y="827" on="1"/>
        <pt x="913" y="783" on="0"/>
        <pt x="1067" y="694" on="0"/>
        <pt x="1176" y="560" on="0"/>
        <pt x="1176" y="469" on="1"/>
        <pt x="1176" y="321" on="0"/>
        <pt x="940" y="85" on="0"/>
        <pt x="596" y="-45" on="0"/>
        <pt x="453" y="-45" on="1"/>
        <pt x="442" y="-45" on="1"/>
        <pt x="356" y="-45" on="0"/>
        <pt x="164" y="27" on="0"/>
        <pt x="37" y="163" on="0"/>
      </contour>
    </TTGlyph>
    <TTGlyph name="T" xMin="70" yMin="-139" xMax="1708" yMax="1468">
      <contour>
        <pt x="424" y="-127" on="1"/>
        <pt x="424" y="-123" on="0"/>
        <pt x="428" y="-115" on="1"/>
        <pt x="460" y="-44" on="0"/>
        <pt x="514" y="97" on="0"/>
        <pt x="555" y="227" on="0"/>
        <pt x="573" y="303" on="1"/>
        <pt x="805" y="1221" on="1"/>
        <pt x="815" y="1244" on="0"/>
        <pt x="844" y="1266" on="1"/>
        <pt x="432" y="1266" on="1"/>
        <pt x="365" y="1266" on="0"/>
        <pt x="340" y="1245" on="1"/>
        <pt x="276" y="1184" on="0"/>
        <pt x="276" y="1106" on="1"/>
        <pt x="276" y="1081" on="0"/>
        <pt x="211" y="1026" on="0"/>
        <pt x="123" y="986" on="0"/>
        <pt x="96" y="983" on="1"/>
        <pt x="84" y="983" on="1"/>
        <pt x="70" y="983" on="0"/>
        <pt x="70" y="1004" on="1"/>
        <pt x="70" y="1080" on="0"/>
        <pt x="173" y="1223" on="0"/>
        <pt x="336" y="1335" on="0"/>
        <pt x="516" y="1399" on="0"/>
        <pt x="588" y="1399" on="1"/>
        <pt x="1473" y="1399" on="1"/>
        <pt x="1518" y="1399" on="0"/>
        <pt x="1540" y="1401" on="1"/>
        <pt x="1609" y="1460" on="0"/>
        <pt x="1683" y="1468" on="1"/>
        <pt x="1696" y="1468" on="1"/>
        <pt x="1701" y="1468" on="0"/>
        <pt x="1708" y="1460" on="0"/>
        <pt x="1708" y="1454" on="1"/>
        <pt x="1708" y="1436" on="0"/>
        <pt x="1690" y="1413" on="1"/>
        <pt x="1622" y="1327" on="0"/>
        <pt x="1439" y="1266" on="0"/>
        <pt x="1317" y="1266" on="1"/>
        <pt x="997" y="1266" on="1"/>
        <pt x="778" y="395" on="1"/>
        <pt x="724" y="180" on="0"/>
        <pt x="629" y="-33" on="1"/>
        <pt x="616" y="-57" on="0"/>
        <pt x="555" y="-103" on="0"/>
        <pt x="477" y="-136" on="0"/>
        <pt x="451" y="-139" on="1"/>
        <pt x="438" y="-139" on="1"/>
        <pt x="424" y="-139" on="0"/>
      </contour>
    </TTGlyph>
    <TTGlyph name="U" xMin="-35" yMin="-57" xMax="1409" yMax="1399">
      <contour>
        <pt x="158" y="-45" on="1"/>
        <pt x="60" y="-45" on="0"/>
        <pt x="-35" y="100" on="0"/>
        <pt x="-35" y="203" on="1"/>
        <pt x="-35" y="278" on="0"/>
        <pt x="-6" y="377" on="1"/>
        <pt x="16" y="456" on="0"/>
        <pt x="84" y="625" on="0"/>
        <pt x="194" y="877" on="0"/>
        <pt x="268" y="1055" on="0"/>
        <pt x="301" y="1173" on="0"/>
        <pt x="301" y="1210" on="1"/>
        <pt x="301" y="1278" on="0"/>
        <pt x="242" y="1278" on="1"/>
        <pt x="214" y="1278" on="0"/>
        <pt x="169" y="1263" on="0"/>
        <pt x="116" y="1232" on="0"/>
        <pt x="71" y="1212" on="0"/>
        <pt x="43" y="1208" on="1"/>
        <pt x="33" y="1208" on="1"/>
        <pt x="18" y="1216" on="0"/>
        <pt x="18" y="1225" on="1"/>
        <pt x="18" y="1276" on="0"/>
        <pt x="292" y="1399" on="0"/>
        <pt x="379" y="1399" on="1"/>
        <pt x="391" y="1399" on="1"/>
        <pt x="483" y="1399" on="0"/>
        <pt x="483" y="1296" on="1"/>
        <pt x="483" y="1258" on="0"/>
        <pt x="463" y="1184" on="1"/>
        <pt x="446" y="1123" on="0"/>
        <pt x="374" y="948" on="0"/>
        <pt x="263" y="695" on="0"/>
        <pt x="198" y="532" on="0"/>
        <pt x="172" y="446" on="1"/>
        <pt x="147" y="355" on="0"/>
        <pt x="147" y="289" on="1"/>
        <pt x="147" y="238" on="0"/>
        <pt x="180" y="137" on="0"/>
        <pt x="252" y="76" on="0"/>
        <pt x="305" y="76" on="1"/>
        <pt x="322" y="76" on="0"/>
        <pt x="354" y="84" on="1"/>
        <pt x="485" y="130" on="0"/>
        <pt x="808" y="496" on="0"/>
        <pt x="1085" y="939" on="0"/>
        <pt x="1155" y="1098" on="1"/>
        <pt x="1168" y="1132" on="0"/>
        <pt x="1211" y="1253" on="0"/>
        <pt x="1229" y="1305" on="1"/>
        <pt x="1253" y="1344" on="0"/>
        <pt x="1342" y="1394" on="0"/>
        <pt x="1384" y="1399" on="1"/>
        <pt x="1395" y="1399" on="1"/>
        <pt x="1409" y="1392" on="0"/>
        <pt x="1409" y="1380" on="1"/>
        <pt x="1385" y="1282" on="0"/>
        <pt x="1333" y="1165" on="1"/>
        <pt x="1273" y="990" on="0"/>
        <pt x="1155" y="609" on="0"/>
        <pt x="1065" y="226" on="0"/>
        <pt x="1065" y="109" on="1"/>
        <pt x="1065" y="71" on="0"/>
        <pt x="1104" y="63" on="1"/>
        <pt x="1152" y="91" on="0"/>
        <pt x="1194" y="96" on="1"/>
        <pt x="1204" y="96" on="1"/>
        <pt x="1219" y="88" on="0"/>
        <pt x="1219" y="80" on="1"/>
        <pt x="1219" y="52" on="0"/>
        <pt x="1124" y="-12" on="0"/>
        <pt x="1004" y="-57" on="0"/>
        <pt x="975" y="-57" on="1"/>
        <pt x="963" y="-57" on="1"/>
        <pt x="933" y="-57" on="0"/>
        <pt x="883" y="-15" on="0"/>
        <pt x="883" y="16" on="1"/>
        <pt x="883" y="86" on="0"/>
        <pt x="905" y="236" on="0"/>
        <pt x="934" y="367" on="0"/>
        <pt x="977" y="519" on="0"/>
        <pt x="997" y="592" on="1"/>
        <pt x="892" y="447" on="0"/>
        <pt x="622" y="158" on="0"/>
        <pt x="308" y="-45" on="0"/>
        <pt x="168" y="-45" on="1"/>
      </contour>
    </TTGlyph>
    <TTGlyph name="V" xMin="66" yMin="-98" xMax="1350" yMax="1399">
      <contour>
        <pt x="373" y="-61" on="1"/>
        <pt x="372" y="-61" on="0"/>
        <pt x="381" y="-10" on="1"/>
        <pt x="428" y="332" on="0"/>
        <pt x="428" y="569" on="1"/>
        <pt x="428" y="692" on="0"/>
        <pt x="407" y="918" on="0"/>
        <pt x="337" y="1143" on="0"/>
        <pt x="194" y="1290" on="0"/>
        <pt x="80" y="1290" on="1"/>
        <pt x="66" y="1296" on="0"/>
        <pt x="66" y="1309" on="1"/>
        <pt x="66" y="1329" on="0"/>
        <pt x="110" y="1368" on="0"/>
        <pt x="174" y="1396" on="0"/>
        <pt x="193" y="1399" on="1"/>
        <pt x="207" y="1399" on="1"/>
        <pt x="435" y="1399" on="0"/>
        <pt x="586" y="931" on="0"/>
        <pt x="586" y="641" on="1"/>
        <pt x="586" y="444" on="0"/>
        <pt x="555" y="182" on="1"/>
        <pt x="654" y="263" on="0"/>
        <pt x="827" y="421" on="0"/>
        <pt x="982" y="584" on="0"/>
        <pt x="1055" y="674" on="1"/>
        <pt x="1106" y="740" on="0"/>
        <pt x="1183" y="852" on="0"/>
        <pt x="1251" y="987" on="0"/>
        <pt x="1251" y="1032" on="1"/>
        <pt x="1251" y="1082" on="0"/>
        <pt x="1204" y="1159" on="0"/>
        <pt x="1122" y="1202" on="0"/>
        <pt x="1071" y="1202" on="1"/>
        <pt x="1057" y="1202" on="0"/>
        <pt x="1057" y="1239" on="1"/>
        <pt x="1057" y="1278" on="0"/>
        <pt x="1109" y="1399" on="0"/>
        <pt x="1141" y="1399" on="1"/>
        <pt x="1206" y="1399" on="0"/>
        <pt x="1302" y="1333" on="0"/>
        <pt x="1350" y="1222" on="0"/>
        <pt x="1350" y="1157" on="1"/>
        <pt x="1350" y="1008" on="0"/>
        <pt x="1161" y="648" on="0"/>
        <pt x="862" y="292" on="0"/>
        <pt x="541" y="1" on="0"/>
        <pt x="406" y="-92" on="1"/>
        <pt x="396" y="-98" on="0"/>
        <pt x="389" y="-98" on="1"/>
        <pt x="373" y="-98" on="0"/>
      </contour>
    </TTGlyph>
    <TTGlyph name="W" xMin="66" yMin="-98" xMax="2122" yMax="1399">
      <contour>
        <pt x="291" y="-61" on="1"/>
        <pt x="291" y="-52" on="0"/>
        <pt x="297" y="-26" on="0"/>
        <pt x="304" y="3" on="0"/>
        <pt x="307" y="14" on="1"/>
        <pt x="335" y="148" on="0"/>
        <pt x="385" y="529" on="0"/>
        <pt x="385" y="705" on="1"/>
        <pt x="385" y="932" on="0"/>
        <pt x="262" y="1290" on="0"/>
        <pt x="80" y="1290" on="1"/>
        <pt x="66" y="1296" on="0"/>
        <pt x="66" y="1309" on="1"/>
        <pt x="66" y="1329" on="0"/>
        <pt x="110" y="1368" on="0"/>
        <pt x="174" y="1396" on="0"/>
        <pt x="193" y="1399" on="1"/>
        <pt x="207" y="1399" on="1"/>
        <pt x="407" y="1399" on="0"/>
        <pt x="543" y="1021" on="0"/>
        <pt x="543" y="776" on="1"/>
        <pt x="543" y="569" on="0"/>
        <pt x="500" y="272" on="1"/>
        <pt x="676" y="498" on="0"/>
        <pt x="1009" y="1014" on="0"/>
        <pt x="1141" y="1272" on="1"/>
        <pt x="1128" y="1305" on="1"/>
        <pt x="1128" y="1340" on="0"/>
        <pt x="1216" y="1393" on="0"/>
        <pt x="1255" y="1399" on="1"/>
        <pt x="1272" y="1399" on="1"/>
        <pt x="1285" y="1390" on="0"/>
        <pt x="1286" y="1389" on="1"/>
        <pt x="1404" y="1036" on="0"/>
        <pt x="1460" y="698" on="1"/>
        <pt x="1474" y="623" on="0"/>
        <pt x="1495" y="451" on="0"/>
        <pt x="1508" y="312" on="0"/>
        <pt x="1516" y="195" on="1"/>
        <pt x="1573" y="264" on="0"/>
        <pt x="1744" y="491" on="0"/>
        <pt x="1917" y="757" on="0"/>
        <pt x="2023" y="982" on="0"/>
        <pt x="2023" y="1055" on="1"/>
        <pt x="2023" y="1121" on="0"/>
        <pt x="1954" y="1202" on="0"/>
        <pt x="1890" y="1202" on="1"/>
        <pt x="1876" y="1202" on="0"/>
        <pt x="1876" y="1239" on="1"/>
        <pt x="1876" y="1278" on="0"/>
        <pt x="1928" y="1399" on="0"/>
        <pt x="1960" y="1399" on="1"/>
        <pt x="2041" y="1399" on="0"/>
        <pt x="2122" y="1265" on="0"/>
        <pt x="2122" y="1178" on="1"/>
        <pt x="2122" y="943" on="0"/>
        <pt x="1874" y="539" on="1"/>
        <pt x="1776" y="381" on="0"/>
        <pt x="1509" y="18" on="0"/>
        <pt x="1401" y="-90" on="1"/>
        <pt x="1389" y="-98" on="0"/>
        <pt x="1380" y="-98" on="1"/>
        <pt x="1373" y="-98" on="0"/>
        <pt x="1368" y="-90" on="0"/>
        <pt x="1365" y="-75" on="0"/>
        <pt x="1364" y="-70" on="1"/>
        <pt x="1364" y="544" on="0"/>
        <pt x="1174" y="1169" on="1"/>
        <pt x="1102" y="1028" on="0"/>
        <pt x="922" y="722" on="0"/>
        <pt x="834" y="586" on="1"/>
        <pt x="797" y="530" on="1"/>
        <pt x="767" y="487" on="0"/>
        <pt x="528" y="156" on="0"/>
        <pt x="328" y="-98" on="0"/>
        <pt x="307" y="-98" on="1"/>
        <pt x="291" y="-98" on="0"/>
      </contour>
    </TTGlyph>
    <TTGlyph name="X" xMin="104" yMin="0" xMax="1655" yMax="1399">
      <contour>
        <pt x="201" y="0" on="1"/>
        <pt x="157" y="0" on="0"/>
        <pt x="104" y="70" on="0"/>
        <pt x="104" y="117" on="1"/>
        <pt x="104" y="166" on="0"/>
        <pt x="131" y="213" on="1"/>
        <pt x="172" y="270" on="0"/>
        <pt x="322" y="395" on="0"/>
        <pt x="502" y="515" on="0"/>
        <pt x="719" y="646" on="0"/>
        <pt x="760" y="670" on="1"/>
        <pt x="834" y="715" on="1"/>
        <pt x="805" y="1034" on="1"/>
        <pt x="805" y="1119" on="0"/>
        <pt x="741" y="1278" on="0"/>
        <pt x="670" y="1278" on="1"/>
        <pt x="651" y="1278" on="1"/>
        <pt x="630" y="1240" on="0"/>
        <pt x="541" y="1187" on="0"/>
        <pt x="498" y="1184" on="1"/>
        <pt x="485" y="1184" on="1"/>
        <pt x="471" y="1191" on="0"/>
        <pt x="471" y="1202" on="1"/>
        <pt x="497" y="1294" on="0"/>
        <pt x="700" y="1399" on="0"/>
        <pt x="807" y="1399" on="1"/>
        <pt x="819" y="1399" on="1"/>
        <pt x="907" y="1399" on="0"/>
        <pt x="987" y="1228" on="0"/>
        <pt x="987" y="1130" on="1"/>
        <pt x="1016" y="823" on="1"/>
        <pt x="1025" y="829" on="0"/>
        <pt x="1193" y="931" on="0"/>
        <pt x="1330" y="1021" on="0"/>
        <pt x="1428" y="1096" on="0"/>
        <pt x="1456" y="1130" on="1"/>
        <pt x="1473" y="1157" on="0"/>
        <pt x="1473" y="1192" on="1"/>
        <pt x="1473" y="1228" on="0"/>
        <pt x="1438" y="1278" on="0"/>
        <pt x="1405" y="1278" on="1"/>
        <pt x="1401" y="1280" on="0"/>
        <pt x="1391" y="1288" on="0"/>
        <pt x="1391" y="1294" on="1"/>
        <pt x="1391" y="1328" on="0"/>
        <pt x="1508" y="1395" on="0"/>
        <pt x="1546" y="1399" on="1"/>
        <pt x="1559" y="1399" on="1"/>
        <pt x="1604" y="1399" on="0"/>
        <pt x="1655" y="1329" on="0"/>
        <pt x="1655" y="1282" on="1"/>
        <pt x="1655" y="1230" on="0"/>
        <pt x="1628" y="1186" on="1"/>
        <pt x="1580" y="1117" on="0"/>
        <pt x="1370" y="957" on="0"/>
        <pt x="1160" y="826" on="0"/>
        <pt x="1022" y="743" on="1"/>
        <pt x="1059" y="365" on="1"/>
        <pt x="1059" y="280" on="0"/>
        <pt x="1122" y="121" on="0"/>
        <pt x="1194" y="121" on="1"/>
        <pt x="1210" y="121" on="1"/>
        <pt x="1232" y="158" on="0"/>
        <pt x="1322" y="212" on="0"/>
        <pt x="1364" y="215" on="1"/>
        <pt x="1376" y="215" on="1"/>
        <pt x="1391" y="208" on="0"/>
        <pt x="1391" y="197" on="1"/>
        <pt x="1374" y="134" on="0"/>
        <pt x="1266" y="46" on="0"/>
        <pt x="1123" y="0" on="0"/>
        <pt x="1055" y="0" on="1"/>
        <pt x="1044" y="0" on="1"/>
        <pt x="957" y="0" on="0"/>
        <pt x="877" y="169" on="0"/>
        <pt x="877" y="268" on="1"/>
        <pt x="842" y="635" on="1"/>
        <pt x="669" y="532" on="0"/>
        <pt x="544" y="457" on="0"/>
        <pt x="342" y="317" on="0"/>
        <pt x="303" y="268" on="1"/>
        <pt x="287" y="244" on="0"/>
        <pt x="287" y="207" on="1"/>
        <pt x="287" y="171" on="0"/>
        <pt x="322" y="121" on="0"/>
        <pt x="354" y="121" on="1"/>
        <pt x="369" y="113" on="0"/>
        <pt x="369" y="104" on="1"/>
        <pt x="369" y="72" on="0"/>
        <pt x="249" y="4" on="0"/>
        <pt x="211" y="0" on="1"/>
      </contour>
    </TTGlyph>
    <TTGlyph name="Y" xMin="63" yMin="-281" xMax="1466" yMax="1399">
      <contour>
        <pt x="63" y="-49" on="1"/>
        <pt x="63" y="-37" on="1"/>
        <pt x="71" y="8" on="0"/>
        <pt x="106" y="84" on="0"/>
        <pt x="135" y="84" on="1"/>
        <pt x="142" y="84" on="0"/>
        <pt x="152" y="67" on="0"/>
        <pt x="152" y="59" on="1"/>
        <pt x="165" y="-21" on="0"/>
        <pt x="289" y="-115" on="0"/>
        <pt x="373" y="-115" on="1"/>
        <pt x="463" y="-115" on="0"/>
        <pt x="678" y="66" on="1"/>
        <pt x="686" y="137" on="0"/>
        <pt x="692" y="271" on="0"/>
        <pt x="692" y="373" on="1"/>
        <pt x="692" y="505" on="0"/>
        <pt x="666" y="804" on="0"/>
        <pt x="586" y="1094" on="0"/>
        <pt x="419" y="1290" on="0"/>
        <pt x="287" y="1290" on="1"/>
        <pt x="279" y="1284" on="0"/>
        <pt x="253" y="1256" on="0"/>
        <pt x="233" y="1243" on="1"/>
        <pt x="208" y="1228" on="0"/>
        <pt x="166" y="1221" on="1"/>
        <pt x="152" y="1221" on="1"/>
        <pt x="135" y="1227" on="0"/>
        <pt x="135" y="1239" on="1"/>
        <pt x="135" y="1264" on="0"/>
        <pt x="193" y="1320" on="0"/>
        <pt x="288" y="1371" on="0"/>
        <pt x="367" y="1399" on="0"/>
        <pt x="395" y="1399" on="1"/>
        <pt x="410" y="1399" on="1"/>
        <pt x="554" y="1399" on="0"/>
        <pt x="736" y="1196" on="0"/>
        <pt x="821" y="903" on="0"/>
        <pt x="850" y="589" on="0"/>
        <pt x="850" y="444" on="1"/>
        <pt x="850" y="419" on="0"/>
        <pt x="847" y="328" on="0"/>
        <pt x="844" y="239" on="0"/>
        <pt x="844" y="213" on="1"/>
        <pt x="1037" y="406" on="0"/>
        <pt x="1174" y="608" on="1"/>
        <pt x="1242" y="712" on="0"/>
        <pt x="1376" y="989" on="0"/>
        <pt x="1376" y="1069" on="1"/>
        <pt x="1376" y="1116" on="0"/>
        <pt x="1329" y="1191" on="0"/>
        <pt x="1250" y="1233" on="0"/>
        <pt x="1202" y="1233" on="1"/>
        <pt x="1189" y="1244" on="0"/>
        <pt x="1186" y="1268" on="1"/>
        <pt x="1186" y="1278" on="1"/>
        <pt x="1193" y="1320" on="0"/>
        <pt x="1231" y="1399" on="0"/>
        <pt x="1262" y="1399" on="1"/>
        <pt x="1325" y="1399" on="0"/>
        <pt x="1418" y="1332" on="0"/>
        <pt x="1466" y="1224" on="0"/>
        <pt x="1466" y="1161" on="1"/>
        <pt x="1466" y="1149" on="1"/>
        <pt x="1466" y="1049" on="0"/>
        <pt x="1356" y="764" on="0"/>
        <pt x="1286" y="643" on="1"/>
        <pt x="1221" y="530" on="0"/>
        <pt x="1078" y="330" on="0"/>
        <pt x="993" y="233" on="1"/>
        <pt x="900" y="131" on="0"/>
        <pt x="665" y="-94" on="0"/>
        <pt x="402" y="-281" on="0"/>
        <pt x="322" y="-281" on="1"/>
        <pt x="215" y="-281" on="0"/>
        <pt x="75" y="-153" on="0"/>
      </contour>
    </TTGlyph>
    <TTGlyph name="Z" xMin="74" yMin="0" xMax="1573" yMax="1399">
      <contour>
        <pt x="88" y="0" on="1"/>
        <pt x="74" y="0" on="0"/>
        <pt x="74" y="14" on="1"/>
        <pt x="74" y="21" on="0"/>
        <pt x="82" y="33" on="1"/>
        <pt x="95" y="52" on="0"/>
        <pt x="148" y="99" on="0"/>
        <pt x="201" y="142" on="0"/>
        <pt x="227" y="164" on="1"/>
        <pt x="307" y="231" on="0"/>
        <pt x="463" y="371" on="1"/>
        <pt x="650" y="539" on="0"/>
        <pt x="831" y="715" on="1"/>
        <pt x="612" y="715" on="1"/>
        <pt x="594" y="726" on="0"/>
        <pt x="594" y="737" on="1"/>
        <pt x="594" y="764" on="0"/>
        <pt x="665" y="807" on="0"/>
        <pt x="696" y="811" on="1"/>
        <pt x="928" y="811" on="1"/>
        <pt x="1037" y="920" on="0"/>
        <pt x="1225" y="1124" on="0"/>
        <pt x="1305" y="1219" on="1"/>
        <pt x="1300" y="1217" on="1"/>
        <pt x="1278" y="1214" on="1"/>
        <pt x="1270" y="1212" on="0"/>
        <pt x="1255" y="1212" on="1"/>
        <pt x="1243" y="1212" on="1"/>
        <pt x="1163" y="1212" on="0"/>
        <pt x="867" y="1265" on="0"/>
        <pt x="780" y="1266" on="1"/>
        <pt x="701" y="1266" on="0"/>
        <pt x="615" y="1211" on="0"/>
        <pt x="596" y="1139" on="1"/>
        <pt x="581" y="1101" on="0"/>
        <pt x="459" y="1031" on="0"/>
        <pt x="416" y="1026" on="1"/>
        <pt x="403" y="1026" on="1"/>
        <pt x="389" y="1026" on="0"/>
        <pt x="389" y="1040" on="1"/>
        <pt x="389" y="1042" on="0"/>
        <pt x="391" y="1047" on="1"/>
        <pt x="414" y="1141" on="0"/>
        <pt x="600" y="1305" on="0"/>
        <pt x="841" y="1399" on="0"/>
        <pt x="940" y="1399" on="1"/>
        <pt x="952" y="1399" on="1"/>
        <pt x="1009" y="1399" on="0"/>
        <pt x="1110" y="1386" on="0"/>
        <pt x="1227" y="1366" on="0"/>
        <pt x="1367" y="1346" on="0"/>
        <pt x="1423" y="1346" on="1"/>
        <pt x="1487" y="1391" on="0"/>
        <pt x="1546" y="1399" on="1"/>
        <pt x="1559" y="1399" on="1"/>
        <pt x="1565" y="1399" on="0"/>
        <pt x="1573" y="1389" on="0"/>
        <pt x="1573" y="1384" on="1"/>
        <pt x="1573" y="1368" on="0"/>
        <pt x="1431" y="1203" on="0"/>
        <pt x="1220" y="978" on="0"/>
        <pt x="1090" y="842" on="0"/>
        <pt x="1059" y="811" on="1"/>
        <pt x="1095" y="811" on="0"/>
        <pt x="1165" y="803" on="0"/>
        <pt x="1225" y="773" on="0"/>
        <pt x="1225" y="745" on="1"/>
        <pt x="1225" y="709" on="0"/>
        <pt x="1160" y="665" on="0"/>
        <pt x="1122" y="662" on="1"/>
        <pt x="1110" y="662" on="1"/>
        <pt x="1094" y="674" on="0"/>
        <pt x="1094" y="682" on="1"/>
        <pt x="1094" y="690" on="1"/>
        <pt x="1093" y="692" on="0"/>
        <pt x="1092" y="694" on="0"/>
        <pt x="1090" y="696" on="1"/>
        <pt x="1058" y="711" on="0"/>
        <pt x="961" y="715" on="1"/>
        <pt x="675" y="438" on="0"/>
        <pt x="375" y="180" on="1"/>
        <pt x="389" y="182" on="0"/>
        <pt x="412" y="184" on="0"/>
        <pt x="428" y="186" on="0"/>
        <pt x="444" y="186" on="1"/>
        <pt x="457" y="186" on="1"/>
        <pt x="537" y="186" on="0"/>
        <pt x="713" y="170" on="0"/>
        <pt x="850" y="154" on="0"/>
        <pt x="1046" y="135" on="0"/>
        <pt x="1133" y="133" on="1"/>
        <pt x="1163" y="133" on="0"/>
        <pt x="1231" y="271" on="0"/>
        <pt x="1243" y="319" on="1"/>
        <pt x="1253" y="345" on="0"/>
        <pt x="1318" y="395" on="0"/>
        <pt x="1393" y="429" on="0"/>
        <pt x="1423" y="432" on="1"/>
        <pt x="1436" y="432" on="1"/>
        <pt x="1448" y="432" on="0"/>
        <pt x="1448" y="420" on="1"/>
        <pt x="1448" y="412" on="1"/>
        <pt x="1405" y="249" on="0"/>
        <pt x="1270" y="129" on="1"/>
        <pt x="1110" y="0" on="0"/>
        <pt x="975" y="0" on="1"/>
        <pt x="963" y="0" on="1"/>
        <pt x="882" y="0" on="0"/>
        <pt x="786" y="8" on="0"/>
        <pt x="539" y="36" on="0"/>
        <pt x="354" y="53" on="0"/>
        <pt x="285" y="53" on="1"/>
        <pt x="252" y="53" on="0"/>
        <pt x="212" y="41" on="0"/>
        <pt x="129" y="4" on="0"/>
        <pt x="100" y="0" on="1"/>
      </contour>
    </TTGlyph>
    <TTGlyph name="aleph" xMin="115" yMin="0" xMax="1135" yMax="1421">
      <contour>
        <pt x="115" y="18" on="1"/>
        <pt x="115" y="37" on="1"/>
        <pt x="115" y="53" on="0"/>
        <pt x="133" y="53" on="1"/>
        <pt x="293" y="53" on="0"/>
        <pt x="293" y="125" on="1"/>
        <pt x="293" y="167" on="0"/>
        <pt x="258" y="256" on="0"/>
        <pt x="201" y="361" on="0"/>
        <pt x="170" y="443" on="0"/>
        <pt x="170" y="485" on="1"/>
        <pt x="170" y="600" on="0"/>
        <pt x="258" y="817" on="0"/>
        <pt x="334" y="940" on="1"/>
        <pt x="268" y="1016" on="1"/>
        <pt x="224" y="1065" on="0"/>
        <pt x="163" y="1140" on="0"/>
        <pt x="115" y="1229" on="0"/>
        <pt x="115" y="1268" on="1"/>
        <pt x="115" y="1312" on="0"/>
        <pt x="139" y="1421" on="0"/>
        <pt x="170" y="1421" on="1"/>
        <pt x="177" y="1421" on="0"/>
        <pt x="190" y="1412" on="0"/>
        <pt x="190" y="1405" on="1"/>
        <pt x="190" y="1301" on="0"/>
        <pt x="299" y="1180" on="1"/>
        <pt x="850" y="553" on="1"/>
        <pt x="855" y="596" on="0"/>
        <pt x="885" y="768" on="0"/>
        <pt x="909" y="896" on="0"/>
        <pt x="925" y="1013" on="0"/>
        <pt x="928" y="1067" on="1"/>
        <pt x="866" y="1124" on="0"/>
        <pt x="795" y="1217" on="0"/>
        <pt x="795" y="1268" on="1"/>
        <pt x="795" y="1312" on="0"/>
        <pt x="819" y="1421" on="0"/>
        <pt x="850" y="1421" on="1"/>
        <pt x="862" y="1421" on="0"/>
        <pt x="870" y="1405" on="1"/>
        <pt x="870" y="1391" on="0"/>
        <pt x="910" y="1321" on="0"/>
        <pt x="975" y="1221" on="0"/>
        <pt x="981" y="1212" on="1"/>
        <pt x="998" y="1185" on="0"/>
        <pt x="1092" y="1097" on="0"/>
        <pt x="1135" y="1037" on="0"/>
        <pt x="1135" y="993" on="1"/>
        <pt x="1135" y="946" on="0"/>
        <pt x="1112" y="838" on="0"/>
        <pt x="1079" y="838" on="1"/>
        <pt x="1059" y="838" on="0"/>
        <pt x="1059" y="856" on="1"/>
        <pt x="1059" y="927" on="0"/>
        <pt x="993" y="1004" on="1"/>
        <pt x="989" y="960" on="0"/>
        <pt x="969" y="836" on="0"/>
        <pt x="940" y="678" on="0"/>
        <pt x="921" y="535" on="0"/>
        <pt x="918" y="479" on="1"/>
        <pt x="981" y="406" on="1"/>
        <pt x="1050" y="329" on="0"/>
        <pt x="1135" y="210" on="0"/>
        <pt x="1135" y="154" on="1"/>
        <pt x="1135" y="108" on="0"/>
        <pt x="1112" y="0" on="0"/>
        <pt x="1079" y="0" on="1"/>
        <pt x="1059" y="0" on="0"/>
        <pt x="1059" y="18" on="1"/>
        <pt x="1059" y="121" on="0"/>
        <pt x="950" y="242" on="1"/>
        <pt x="387" y="881" on="1"/>
        <pt x="315" y="720" on="0"/>
        <pt x="315" y="487" on="1"/>
        <pt x="315" y="441" on="0"/>
        <pt x="361" y="364" on="0"/>
        <pt x="452" y="259" on="0"/>
        <pt x="500" y="178" on="0"/>
        <pt x="500" y="125" on="1"/>
        <pt x="500" y="60" on="0"/>
        <pt x="378" y="0" on="0"/>
        <pt x="305" y="0" on="1"/>
        <pt x="133" y="0" on="1"/>
        <pt x="115" y="0" on="0"/>
      </contour>
    </TTGlyph>
    <TTGlyph name="angbracketleft" xMin="225" yMin="-512" xMax="680" yMax="1536">
      <contour>
        <pt x="602" y="-487" on="1"/>
        <pt x="229" y="498" on="1"/>
        <pt x="225" y="506" on="0"/>
        <pt x="225" y="512" on="1"/>
        <pt x="225" y="516" on="0"/>
        <pt x="229" y="528" on="1"/>
        <pt x="602" y="1511" on="1"/>
        <pt x="609" y="1536" on="0"/>
        <pt x="639" y="1536" on="1"/>
        <pt x="657" y="1536" on="0"/>
        <pt x="680" y="1514" on="0"/>
        <pt x="680" y="1495" on="1"/>
        <pt x="680" y="1490" on="0"/>
        <pt x="679" y="1484" on="0"/>
        <pt x="678" y="1481" on="1"/>
        <pt x="309" y="512" on="1"/>
        <pt x="678" y="-457" on="1"/>
        <pt x="679" y="-460" on="0"/>
        <pt x="680" y="-465" on="0"/>
        <pt x="680" y="-471" on="1"/>
        <pt x="680" y="-489" on="0"/>
        <pt x="656" y="-512" on="0"/>
        <pt x="639" y="-512" on="1"/>
        <pt x="609" y="-512" on="0"/>
      </contour>
    </TTGlyph>
    <TTGlyph name="angbracketright" xMin="115" yMin="-512" xMax="569" yMax="1536">
      <contour>
        <pt x="115" y="-471" on="1"/>
        <pt x="115" y="-465" on="0"/>
        <pt x="119" y="-457" on="1"/>
        <pt x="485" y="512" on="1"/>
        <pt x="119" y="1481" on="1"/>
        <pt x="115" y="1489" on="0"/>
        <pt x="115" y="1495" on="1"/>
        <pt x="115" y="1512" on="0"/>
        <pt x="137" y="1536" on="0"/>
        <pt x="156" y="1536" on="1"/>
        <pt x="183" y="1536" on="0"/>
        <pt x="195" y="1511" on="1"/>
        <pt x="567" y="528" on="1"/>
        <pt x="568" y="524" on="0"/>
        <pt x="569" y="518" on="0"/>
        <pt x="569" y="512" on="1"/>
        <pt x="569" y="507" on="0"/>
        <pt x="568" y="501" on="0"/>
        <pt x="567" y="498" on="1"/>
        <pt x="195" y="-487" on="1"/>
        <pt x="183" y="-512" on="0"/>
        <pt x="156" y="-512" on="1"/>
        <pt x="139" y="-512" on="0"/>
        <pt x="115" y="-488" on="0"/>
      </contour>
    </TTGlyph>
    <TTGlyph name="approxequal" xMin="115" yMin="115" xMax="1477" yMax="989">
      <contour>
        <pt x="143" y="115" on="1"/>
        <pt x="121" y="115" on="0"/>
        <pt x="115" y="166" on="1"/>
        <pt x="115" y="178" on="1"/>
        <pt x="115" y="271" on="0"/>
        <pt x="206" y="425" on="0"/>
        <pt x="364" y="512" on="0"/>
        <pt x="455" y="512" on="1"/>
        <pt x="565" y="512" on="0"/>
        <pt x="798" y="371" on="0"/>
        <pt x="1028" y="229" on="0"/>
        <pt x="1137" y="229" on="1"/>
        <pt x="1242" y="229" on="0"/>
        <pt x="1419" y="359" on="0"/>
        <pt x="1419" y="461" on="1"/>
        <pt x="1425" y="512" on="0"/>
        <pt x="1448" y="512" on="1"/>
        <pt x="1471" y="512" on="0"/>
        <pt x="1477" y="461" on="1"/>
        <pt x="1477" y="449" on="1"/>
        <pt x="1477" y="356" on="0"/>
        <pt x="1385" y="202" on="0"/>
        <pt x="1228" y="115" on="0"/>
        <pt x="1137" y="115" on="1"/>
        <pt x="1051" y="115" on="0"/>
        <pt x="900" y="186" on="0"/>
        <pt x="697" y="323" on="0"/>
        <pt x="543" y="397" on="0"/>
        <pt x="455" y="397" on="1"/>
        <pt x="390" y="397" on="0"/>
        <pt x="256" y="339" on="0"/>
        <pt x="172" y="234" on="0"/>
        <pt x="172" y="166" on="1"/>
        <pt x="166" y="115" on="0"/>
      </contour>
      <contour>
        <pt x="143" y="592" on="1"/>
        <pt x="121" y="592" on="0"/>
        <pt x="115" y="643" on="1"/>
        <pt x="115" y="655" on="1"/>
        <pt x="115" y="748" on="0"/>
        <pt x="206" y="902" on="0"/>
        <pt x="364" y="989" on="0"/>
        <pt x="455" y="989" on="1"/>
        <pt x="565" y="989" on="0"/>
        <pt x="798" y="848" on="0"/>
        <pt x="1028" y="707" on="0"/>
        <pt x="1137" y="707" on="1"/>
        <pt x="1242" y="707" on="0"/>
        <pt x="1419" y="837" on="0"/>
        <pt x="1419" y="938" on="1"/>
        <pt x="1425" y="989" on="0"/>
        <pt x="1448" y="989" on="1"/>
        <pt x="1471" y="989" on="0"/>
        <pt x="1477" y="938" on="1"/>
        <pt x="1477" y="926" on="1"/>
        <pt x="1477" y="833" on="0"/>
        <pt x="1385" y="679" on="0"/>
        <pt x="1228" y="592" on="0"/>
        <pt x="1137" y="592" on="1"/>
        <pt x="1051" y="592" on="0"/>
        <pt x="900" y="663" on="0"/>
        <pt x="697" y="800" on="0"/>
        <pt x="543" y="874" on="0"/>
        <pt x="455" y="874" on="1"/>
        <pt x="390" y="874" on="0"/>
        <pt x="256" y="816" on="0"/>
        <pt x="172" y="711" on="0"/>
        <pt x="172" y="643" on="1"/>
        <pt x="166" y="592" on="0"/>
      </contour>
    </TTGlyph>
    <TTGlyph name="arrowboth" xMin="115" yMin="-23" xMax="1931" yMax="1047">
      <contour>
        <pt x="551" y="-4" on="1"/>
        <pt x="536" y="80" on="0"/>
        <pt x="463" y="236" on="0"/>
        <pt x="353" y="366" on="0"/>
        <pt x="213" y="464" on="0"/>
        <pt x="131" y="492" on="1"/>
        <pt x="115" y="495" on="0"/>
        <pt x="115" y="512" on="1"/>
        <pt x="115" y="527" on="0"/>
        <pt x="131" y="535" on="1"/>
        <pt x="214" y="564" on="0"/>
        <pt x="353" y="659" on="0"/>
        <pt x="463" y="789" on="0"/>
        <pt x="536" y="945" on="0"/>
        <pt x="551" y="1028" on="1"/>
        <pt x="556" y="1047" on="0"/>
        <pt x="571" y="1047" on="1"/>
        <pt x="612" y="1047" on="1"/>
        <pt x="633" y="1047" on="0"/>
        <pt x="633" y="1020" on="1"/>
        <pt x="610" y="884" on="0"/>
        <pt x="455" y="638" on="0"/>
        <pt x="338" y="553" on="1"/>
        <pt x="1708" y="553" on="1"/>
        <pt x="1630" y="609" on="0"/>
        <pt x="1510" y="756" on="0"/>
        <pt x="1430" y="925" on="0"/>
        <pt x="1413" y="1020" on="1"/>
        <pt x="1413" y="1047" on="0"/>
        <pt x="1434" y="1047" on="1"/>
        <pt x="1475" y="1047" on="1"/>
        <pt x="1482" y="1047" on="0"/>
        <pt x="1493" y="1035" on="0"/>
        <pt x="1495" y="1028" on="1"/>
        <pt x="1512" y="940" on="0"/>
        <pt x="1585" y="789" on="0"/>
        <pt x="1695" y="659" on="0"/>
        <pt x="1831" y="565" on="0"/>
        <pt x="1917" y="535" on="1"/>
        <pt x="1931" y="526" on="0"/>
        <pt x="1931" y="512" on="1"/>
        <pt x="1931" y="496" on="0"/>
        <pt x="1917" y="492" on="1"/>
        <pt x="1810" y="455" on="0"/>
        <pt x="1632" y="308" on="0"/>
        <pt x="1516" y="109" on="0"/>
        <pt x="1495" y="-4" on="1"/>
        <pt x="1493" y="-11" on="0"/>
        <pt x="1481" y="-23" on="0"/>
        <pt x="1475" y="-23" on="1"/>
        <pt x="1434" y="-23" on="1"/>
        <pt x="1413" y="-23" on="0"/>
        <pt x="1413" y="4" on="1"/>
        <pt x="1439" y="144" on="0"/>
        <pt x="1595" y="391" on="0"/>
        <pt x="1708" y="471" on="1"/>
        <pt x="338" y="471" on="1"/>
        <pt x="453" y="389" on="0"/>
        <pt x="610" y="140" on="0"/>
        <pt x="633" y="4" on="1"/>
        <pt x="633" y="-23" on="0"/>
        <pt x="612" y="-23" on="1"/>
        <pt x="571" y="-23" on="1"/>
        <pt x="556" y="-23" on="0"/>
      </contour>
    </TTGlyph>
    <TTGlyph name="arrowbothv" xMin="35" yMin="-557" xMax="989" yMax="1581">
      <contour>
        <pt x="489" y="-539" on="1"/>
        <pt x="472" y="-420" on="0"/>
        <pt x="352" y="-225" on="0"/>
        <pt x="162" y="-88" on="0"/>
        <pt x="49" y="-63" on="1"/>
        <pt x="35" y="-58" on="0"/>
        <pt x="35" y="-45" on="1"/>
        <pt x="35" y="0" on="1"/>
        <pt x="35" y="8" on="0"/>
        <pt x="50" y="18" on="0"/>
        <pt x="57" y="18" on="1"/>
        <pt x="59" y="18" on="0"/>
        <pt x="63" y="16" on="1"/>
        <pt x="145" y="-2" on="0"/>
        <pt x="297" y="-81" on="0"/>
        <pt x="426" y="-200" on="0"/>
        <pt x="471" y="-274" on="1"/>
        <pt x="471" y="1298" on="1"/>
        <pt x="403" y="1187" on="0"/>
        <pt x="189" y="1035" on="0"/>
        <pt x="63" y="1008" on="1"/>
        <pt x="59" y="1006" on="0"/>
        <pt x="57" y="1006" on="1"/>
        <pt x="51" y="1006" on="0"/>
        <pt x="35" y="1019" on="0"/>
        <pt x="35" y="1024" on="1"/>
        <pt x="35" y="1069" on="1"/>
        <pt x="35" y="1082" on="0"/>
        <pt x="49" y="1087" on="1"/>
        <pt x="162" y="1112" on="0"/>
        <pt x="352" y="1249" on="0"/>
        <pt x="472" y="1444" on="0"/>
        <pt x="489" y="1563" on="1"/>
        <pt x="493" y="1572" on="0"/>
        <pt x="505" y="1581" on="0"/>
        <pt x="512" y="1581" on="1"/>
        <pt x="519" y="1581" on="0"/>
        <pt x="533" y="1570" on="0"/>
        <pt x="535" y="1563" on="1"/>
        <pt x="559" y="1389" on="0"/>
        <pt x="803" y="1126" on="0"/>
        <pt x="975" y="1087" on="1"/>
        <pt x="989" y="1082" on="0"/>
        <pt x="989" y="1069" on="1"/>
        <pt x="989" y="1024" on="1"/>
        <pt x="989" y="1018" on="0"/>
        <pt x="975" y="1006" on="0"/>
        <pt x="967" y="1006" on="1"/>
        <pt x="965" y="1006" on="0"/>
        <pt x="961" y="1008" on="1"/>
        <pt x="837" y="1035" on="0"/>
        <pt x="621" y="1187" on="0"/>
        <pt x="553" y="1298" on="1"/>
        <pt x="553" y="-274" on="1"/>
        <pt x="620" y="-164" on="0"/>
        <pt x="837" y="-11" on="0"/>
        <pt x="961" y="16" on="1"/>
        <pt x="965" y="18" on="0"/>
        <pt x="967" y="18" on="1"/>
        <pt x="975" y="18" on="0"/>
        <pt x="989" y="8" on="0"/>
        <pt x="989" y="0" on="1"/>
        <pt x="989" y="-45" on="1"/>
        <pt x="989" y="-50" on="0"/>
        <pt x="981" y="-61" on="0"/>
        <pt x="975" y="-63" on="1"/>
        <pt x="862" y="-88" on="0"/>
        <pt x="672" y="-225" on="0"/>
        <pt x="552" y="-420" on="0"/>
        <pt x="535" y="-539" on="1"/>
        <pt x="530" y="-557" on="0"/>
        <pt x="512" y="-557" on="1"/>
        <pt x="494" y="-557" on="0"/>
      </contour>
    </TTGlyph>
    <TTGlyph name="arrowdblboth" xMin="70" yMin="-51" xMax="1976" yMax="1075">
      <contour>
        <pt x="86" y="492" on="1"/>
        <pt x="70" y="495" on="0"/>
        <pt x="70" y="512" on="1"/>
        <pt x="70" y="527" on="0"/>
        <pt x="86" y="535" on="1"/>
        <pt x="269" y="605" on="0"/>
        <pt x="550" y="881" on="0"/>
        <pt x="623" y="1061" on="1"/>
        <pt x="628" y="1075" on="0"/>
        <pt x="641" y="1075" on="1"/>
        <pt x="682" y="1075" on="1"/>
        <pt x="689" y="1075" on="0"/>
        <pt x="702" y="1062" on="0"/>
        <pt x="702" y="1053" on="1"/>
        <pt x="702" y="1017" on="0"/>
        <pt x="567" y="803" on="0"/>
        <pt x="522" y="752" on="1"/>
        <pt x="1524" y="752" on="1"/>
        <pt x="1475" y="811" on="0"/>
        <pt x="1343" y="1017" on="0"/>
        <pt x="1343" y="1053" on="1"/>
        <pt x="1343" y="1061" on="0"/>
        <pt x="1357" y="1075" on="0"/>
        <pt x="1364" y="1075" on="1"/>
        <pt x="1405" y="1075" on="1"/>
        <pt x="1418" y="1075" on="0"/>
        <pt x="1423" y="1061" on="1"/>
        <pt x="1473" y="939" on="0"/>
        <pt x="1631" y="736" on="0"/>
        <pt x="1837" y="583" on="0"/>
        <pt x="1962" y="535" on="1"/>
        <pt x="1976" y="526" on="0"/>
        <pt x="1976" y="512" on="1"/>
        <pt x="1976" y="496" on="0"/>
        <pt x="1962" y="492" on="1"/>
        <pt x="1780" y="422" on="0"/>
        <pt x="1499" y="147" on="0"/>
        <pt x="1423" y="-37" on="1"/>
        <pt x="1418" y="-51" on="0"/>
        <pt x="1405" y="-51" on="1"/>
        <pt x="1364" y="-51" on="1"/>
        <pt x="1357" y="-51" on="0"/>
        <pt x="1343" y="-35" on="0"/>
        <pt x="1343" y="-29" on="1"/>
        <pt x="1343" y="9" on="0"/>
        <pt x="1481" y="222" on="0"/>
        <pt x="1524" y="272" on="1"/>
        <pt x="522" y="272" on="1"/>
        <pt x="562" y="228" on="0"/>
        <pt x="702" y="9" on="0"/>
        <pt x="702" y="-29" on="1"/>
        <pt x="702" y="-36" on="0"/>
        <pt x="689" y="-51" on="0"/>
        <pt x="682" y="-51" on="1"/>
        <pt x="641" y="-51" on="1"/>
        <pt x="628" y="-51" on="0"/>
        <pt x="623" y="-37" on="1"/>
        <pt x="549" y="145" on="0"/>
        <pt x="268" y="421" on="0"/>
      </contour>
      <contour>
        <pt x="225" y="512" on="1"/>
        <pt x="347" y="446" on="0"/>
        <pt x="444" y="354" on="1"/>
        <pt x="1602" y="354" on="1"/>
        <pt x="1699" y="446" on="0"/>
        <pt x="1821" y="512" on="1"/>
        <pt x="1699" y="578" on="0"/>
        <pt x="1602" y="670" on="1"/>
        <pt x="444" y="670" on="1"/>
        <pt x="347" y="578" on="0"/>
      </contour>
    </TTGlyph>
    <TTGlyph name="arrowdblbothv" xMin="61" yMin="-557" xMax="1188" yMax="1581">
      <contour>
        <pt x="604" y="-545" on="1"/>
        <pt x="556" y="-424" on="0"/>
        <pt x="402" y="-213" on="0"/>
        <pt x="200" y="-56" on="0"/>
        <pt x="78" y="-6" on="1"/>
        <pt x="61" y="0" on="0"/>
        <pt x="61" y="12" on="1"/>
        <pt x="61" y="57" on="1"/>
        <pt x="61" y="63" on="0"/>
        <pt x="77" y="76" on="0"/>
        <pt x="84" y="76" on="1"/>
        <pt x="119" y="76" on="0"/>
        <pt x="339" y="-62" on="0"/>
        <pt x="385" y="-104" on="1"/>
        <pt x="385" y="1128" on="1"/>
        <pt x="338" y="1087" on="0"/>
        <pt x="119" y="948" on="0"/>
        <pt x="84" y="948" on="1"/>
        <pt x="77" y="948" on="0"/>
        <pt x="61" y="961" on="0"/>
        <pt x="61" y="967" on="1"/>
        <pt x="61" y="1012" on="1"/>
        <pt x="61" y="1017" on="0"/>
        <pt x="72" y="1028" on="0"/>
        <pt x="78" y="1030" on="1"/>
        <pt x="198" y="1078" on="0"/>
        <pt x="402" y="1237" on="0"/>
        <pt x="555" y="1444" on="0"/>
        <pt x="606" y="1571" on="1"/>
        <pt x="609" y="1581" on="0"/>
        <pt x="625" y="1581" on="1"/>
        <pt x="640" y="1581" on="0"/>
        <pt x="647" y="1563" on="1"/>
        <pt x="716" y="1383" on="0"/>
        <pt x="991" y="1103" on="0"/>
        <pt x="1171" y="1030" on="1"/>
        <pt x="1188" y="1025" on="0"/>
        <pt x="1188" y="1012" on="1"/>
        <pt x="1188" y="967" on="1"/>
        <pt x="1188" y="959" on="0"/>
        <pt x="1172" y="948" on="0"/>
        <pt x="1165" y="948" on="1"/>
        <pt x="1130" y="948" on="0"/>
        <pt x="915" y="1086" on="0"/>
        <pt x="864" y="1128" on="1"/>
        <pt x="864" y="-104" on="1"/>
        <pt x="912" y="-62" on="0"/>
        <pt x="1130" y="76" on="0"/>
        <pt x="1165" y="76" on="1"/>
        <pt x="1172" y="76" on="0"/>
        <pt x="1188" y="65" on="0"/>
        <pt x="1188" y="57" on="1"/>
        <pt x="1188" y="12" on="1"/>
        <pt x="1188" y="-1" on="0"/>
        <pt x="1171" y="-6" on="1"/>
        <pt x="1051" y="-54" on="0"/>
        <pt x="846" y="-214" on="0"/>
        <pt x="697" y="-418" on="0"/>
        <pt x="645" y="-547" on="1"/>
        <pt x="638" y="-557" on="0"/>
        <pt x="625" y="-557" on="1"/>
        <pt x="612" y="-557" on="0"/>
      </contour>
      <contour>
        <pt x="625" y="-401" on="1"/>
        <pt x="690" y="-281" on="0"/>
        <pt x="782" y="-182" on="1"/>
        <pt x="782" y="1206" on="1"/>
        <pt x="690" y="1305" on="0"/>
        <pt x="625" y="1425" on="1"/>
        <pt x="561" y="1308" on="0"/>
        <pt x="467" y="1206" on="1"/>
        <pt x="467" y="-182" on="1"/>
        <pt x="561" y="-284" on="0"/>
      </contour>
    </TTGlyph>
    <TTGlyph name="arrowdbldown" xMin="61" yMin="-397" xMax="1188" yMax="1421">
      <contour>
        <pt x="602" y="-379" on="1"/>
        <pt x="549" y="-167" on="0"/>
        <pt x="270" y="173" on="0"/>
        <pt x="74" y="270" on="1"/>
        <pt x="61" y="276" on="0"/>
        <pt x="61" y="285" on="1"/>
        <pt x="61" y="330" on="1"/>
        <pt x="61" y="337" on="0"/>
        <pt x="77" y="348" on="0"/>
        <pt x="84" y="348" on="1"/>
        <pt x="119" y="348" on="0"/>
        <pt x="347" y="181" on="0"/>
        <pt x="385" y="141" on="1"/>
        <pt x="385" y="1384" on="1"/>
        <pt x="385" y="1400" on="0"/>
        <pt x="411" y="1421" on="0"/>
        <pt x="426" y="1421" on="1"/>
        <pt x="441" y="1421" on="0"/>
        <pt x="467" y="1400" on="0"/>
        <pt x="467" y="1384" on="1"/>
        <pt x="467" y="51" on="1"/>
        <pt x="568" y="-74" on="0"/>
        <pt x="625" y="-213" on="1"/>
        <pt x="682" y="-71" on="0"/>
        <pt x="782" y="51" on="1"/>
        <pt x="782" y="1384" on="1"/>
        <pt x="782" y="1400" on="0"/>
        <pt x="808" y="1421" on="0"/>
        <pt x="823" y="1421" on="1"/>
        <pt x="840" y="1421" on="0"/>
        <pt x="864" y="1400" on="0"/>
        <pt x="864" y="1384" on="1"/>
        <pt x="864" y="141" on="1"/>
        <pt x="905" y="182" on="0"/>
        <pt x="1130" y="348" on="0"/>
        <pt x="1165" y="348" on="1"/>
        <pt x="1172" y="348" on="0"/>
        <pt x="1188" y="338" on="0"/>
        <pt x="1188" y="330" on="1"/>
        <pt x="1188" y="285" on="1"/>
        <pt x="1188" y="276" on="0"/>
        <pt x="1176" y="270" on="1"/>
        <pt x="1044" y="205" on="0"/>
        <pt x="831" y="8" on="0"/>
        <pt x="683" y="-235" on="0"/>
        <pt x="647" y="-379" on="1"/>
        <pt x="643" y="-397" on="0"/>
        <pt x="625" y="-397" on="1"/>
        <pt x="606" y="-397" on="0"/>
      </contour>
    </TTGlyph>
    <TTGlyph name="arrowdblleft" xMin="115" yMin="-51" xMax="1931" yMax="1075">
      <contour>
        <pt x="131" y="492" on="1"/>
        <pt x="115" y="495" on="0"/>
        <pt x="115" y="512" on="1"/>
        <pt x="115" y="527" on="0"/>
        <pt x="131" y="535" on="1"/>
        <pt x="239" y="562" on="0"/>
        <pt x="430" y="658" on="0"/>
        <pt x="598" y="793" on="0"/>
        <pt x="733" y="963" on="0"/>
        <pt x="782" y="1063" on="1"/>
        <pt x="786" y="1075" on="0"/>
        <pt x="799" y="1075" on="1"/>
        <pt x="840" y="1075" on="1"/>
        <pt x="848" y="1075" on="0"/>
        <pt x="860" y="1061" on="0"/>
        <pt x="860" y="1053" on="1"/>
        <pt x="860" y="1019" on="0"/>
        <pt x="697" y="796" on="0"/>
        <pt x="653" y="752" on="1"/>
        <pt x="1894" y="752" on="1"/>
        <pt x="1910" y="752" on="0"/>
        <pt x="1931" y="726" on="0"/>
        <pt x="1931" y="711" on="1"/>
        <pt x="1931" y="694" on="0"/>
        <pt x="1910" y="670" on="0"/>
        <pt x="1894" y="670" on="1"/>
        <pt x="563" y="670" on="1"/>
        <pt x="443" y="571" on="0"/>
        <pt x="301" y="512" on="1"/>
        <pt x="443" y="453" on="0"/>
        <pt x="563" y="354" on="1"/>
        <pt x="1894" y="354" on="1"/>
        <pt x="1910" y="354" on="0"/>
        <pt x="1931" y="330" on="0"/>
        <pt x="1931" y="313" on="1"/>
        <pt x="1931" y="298" on="0"/>
        <pt x="1910" y="272" on="0"/>
        <pt x="1894" y="272" on="1"/>
        <pt x="653" y="272" on="1"/>
        <pt x="691" y="235" on="0"/>
        <pt x="860" y="7" on="0"/>
        <pt x="860" y="-29" on="1"/>
        <pt x="860" y="-51" on="0"/>
        <pt x="840" y="-51" on="1"/>
        <pt x="799" y="-51" on="1"/>
        <pt x="786" y="-51" on="0"/>
        <pt x="782" y="-39" on="1"/>
        <pt x="718" y="91" on="0"/>
        <pt x="521" y="306" on="0"/>
        <pt x="270" y="457" on="0"/>
      </contour>
    </TTGlyph>
    <TTGlyph name="arrowdblright" xMin="115" yMin="-51" xMax="1931" yMax="1075">
      <contour>
        <pt x="154" y="272" on="1"/>
        <pt x="137" y="272" on="0"/>
        <pt x="115" y="298" on="0"/>
        <pt x="115" y="313" on="1"/>
        <pt x="115" y="330" on="0"/>
        <pt x="137" y="354" on="0"/>
        <pt x="154" y="354" on="1"/>
        <pt x="1483" y="354" on="1"/>
        <pt x="1603" y="453" on="0"/>
        <pt x="1745" y="512" on="1"/>
        <pt x="1603" y="571" on="0"/>
        <pt x="1483" y="670" on="1"/>
        <pt x="154" y="670" on="1"/>
        <pt x="137" y="670" on="0"/>
        <pt x="115" y="694" on="0"/>
        <pt x="115" y="711" on="1"/>
        <pt x="115" y="726" on="0"/>
        <pt x="137" y="752" on="0"/>
        <pt x="154" y="752" on="1"/>
        <pt x="1393" y="752" on="1"/>
        <pt x="1342" y="805" on="0"/>
        <pt x="1186" y="1019" on="0"/>
        <pt x="1186" y="1053" on="1"/>
        <pt x="1186" y="1062" on="0"/>
        <pt x="1197" y="1075" on="0"/>
        <pt x="1206" y="1075" on="1"/>
        <pt x="1247" y="1075" on="1"/>
        <pt x="1260" y="1075" on="0"/>
        <pt x="1264" y="1063" on="1"/>
        <pt x="1315" y="963" on="0"/>
        <pt x="1446" y="797" on="0"/>
        <pt x="1618" y="657" on="0"/>
        <pt x="1808" y="563" on="0"/>
        <pt x="1917" y="535" on="1"/>
        <pt x="1931" y="526" on="0"/>
        <pt x="1931" y="512" on="1"/>
        <pt x="1931" y="496" on="0"/>
        <pt x="1917" y="492" on="1"/>
        <pt x="1704" y="438" on="0"/>
        <pt x="1363" y="160" on="0"/>
        <pt x="1264" y="-39" on="1"/>
        <pt x="1260" y="-51" on="0"/>
        <pt x="1247" y="-51" on="1"/>
        <pt x="1206" y="-51" on="1"/>
        <pt x="1186" y="-51" on="0"/>
        <pt x="1186" y="-29" on="1"/>
        <pt x="1186" y="-5" on="0"/>
        <pt x="1267" y="120" on="0"/>
        <pt x="1364" y="243" on="0"/>
        <pt x="1393" y="272" on="1"/>
      </contour>
    </TTGlyph>
    <TTGlyph name="arrowdblup" xMin="61" yMin="-397" xMax="1188" yMax="1421">
      <contour>
        <pt x="385" y="-360" on="1"/>
        <pt x="385" y="883" on="1"/>
        <pt x="340" y="838" on="0"/>
        <pt x="119" y="676" on="0"/>
        <pt x="84" y="676" on="1"/>
        <pt x="77" y="676" on="0"/>
        <pt x="61" y="689" on="0"/>
        <pt x="61" y="694" on="1"/>
        <pt x="61" y="739" on="1"/>
        <pt x="61" y="747" on="0"/>
        <pt x="74" y="754" on="1"/>
        <pt x="270" y="852" on="0"/>
        <pt x="549" y="1192" on="0"/>
        <pt x="602" y="1403" on="1"/>
        <pt x="606" y="1421" on="0"/>
        <pt x="625" y="1421" on="1"/>
        <pt x="632" y="1421" on="0"/>
        <pt x="645" y="1411" on="0"/>
        <pt x="647" y="1403" on="1"/>
        <pt x="683" y="1259" on="0"/>
        <pt x="831" y="1016" on="0"/>
        <pt x="1044" y="819" on="0"/>
        <pt x="1176" y="754" on="1"/>
        <pt x="1188" y="748" on="0"/>
        <pt x="1188" y="739" on="1"/>
        <pt x="1188" y="694" on="1"/>
        <pt x="1188" y="687" on="0"/>
        <pt x="1172" y="676" on="0"/>
        <pt x="1165" y="676" on="1"/>
        <pt x="1130" y="676" on="0"/>
        <pt x="914" y="836" on="0"/>
        <pt x="864" y="883" on="1"/>
        <pt x="864" y="-360" on="1"/>
        <pt x="864" y="-376" on="0"/>
        <pt x="840" y="-397" on="0"/>
        <pt x="823" y="-397" on="1"/>
        <pt x="808" y="-397" on="0"/>
        <pt x="782" y="-376" on="0"/>
        <pt x="782" y="-360" on="1"/>
        <pt x="782" y="973" on="1"/>
        <pt x="683" y="1095" on="0"/>
        <pt x="625" y="1237" on="1"/>
        <pt x="569" y="1098" on="0"/>
        <pt x="467" y="973" on="1"/>
        <pt x="467" y="-360" on="1"/>
        <pt x="467" y="-376" on="0"/>
        <pt x="441" y="-397" on="0"/>
        <pt x="426" y="-397" on="1"/>
        <pt x="411" y="-397" on="0"/>
        <pt x="385" y="-376" on="0"/>
      </contour>
    </TTGlyph>
    <TTGlyph name="arrowdown" xMin="35" yMin="-397" xMax="989" yMax="1421">
      <contour>
        <pt x="489" y="-379" on="1"/>
        <pt x="472" y="-260" on="0"/>
        <pt x="352" y="-65" on="0"/>
        <pt x="164" y="70" on="0"/>
        <pt x="49" y="96" on="1"/>
        <pt x="35" y="101" on="0"/>
        <pt x="35" y="115" on="1"/>
        <pt x="35" y="160" on="1"/>
        <pt x="35" y="167" on="0"/>
        <pt x="51" y="178" on="0"/>
        <pt x="57" y="178" on="1"/>
        <pt x="59" y="178" on="0"/>
        <pt x="63" y="176" on="1"/>
        <pt x="190" y="149" on="0"/>
        <pt x="403" y="-3" on="0"/>
        <pt x="471" y="-115" on="1"/>
        <pt x="471" y="1384" on="1"/>
        <pt x="471" y="1400" on="0"/>
        <pt x="497" y="1421" on="0"/>
        <pt x="512" y="1421" on="1"/>
        <pt x="527" y="1421" on="0"/>
        <pt x="553" y="1400" on="0"/>
        <pt x="553" y="1384" on="1"/>
        <pt x="553" y="-115" on="1"/>
        <pt x="621" y="-3" on="0"/>
        <pt x="836" y="149" on="0"/>
        <pt x="961" y="176" on="1"/>
        <pt x="965" y="178" on="0"/>
        <pt x="967" y="178" on="1"/>
        <pt x="975" y="178" on="0"/>
        <pt x="989" y="168" on="0"/>
        <pt x="989" y="160" on="1"/>
        <pt x="989" y="115" on="1"/>
        <pt x="989" y="111" on="0"/>
        <pt x="981" y="98" on="0"/>
        <pt x="975" y="96" on="1"/>
        <pt x="803" y="59" on="0"/>
        <pt x="559" y="-205" on="0"/>
        <pt x="535" y="-379" on="1"/>
        <pt x="530" y="-397" on="0"/>
        <pt x="512" y="-397" on="1"/>
        <pt x="494" y="-397" on="0"/>
      </contour>
    </TTGlyph>
    <TTGlyph name="arrowleft" xMin="115" yMin="-23" xMax="1931" yMax="1047">
      <contour>
        <pt x="551" y="-4" on="1"/>
        <pt x="536" y="80" on="0"/>
        <pt x="463" y="236" on="0"/>
        <pt x="353" y="366" on="0"/>
        <pt x="213" y="464" on="0"/>
        <pt x="131" y="492" on="1"/>
        <pt x="115" y="495" on="0"/>
        <pt x="115" y="512" on="1"/>
        <pt x="115" y="527" on="0"/>
        <pt x="131" y="535" on="1"/>
        <pt x="214" y="564" on="0"/>
        <pt x="353" y="659" on="0"/>
        <pt x="463" y="789" on="0"/>
        <pt x="536" y="945" on="0"/>
        <pt x="551" y="1028" on="1"/>
        <pt x="556" y="1047" on="0"/>
        <pt x="571" y="1047" on="1"/>
        <pt x="612" y="1047" on="1"/>
        <pt x="633" y="1047" on="0"/>
        <pt x="633" y="1020" on="1"/>
        <pt x="610" y="884" on="0"/>
        <pt x="455" y="638" on="0"/>
        <pt x="338" y="553" on="1"/>
        <pt x="1892" y="553" on="1"/>
        <pt x="1909" y="553" on="0"/>
        <pt x="1931" y="527" on="0"/>
        <pt x="1931" y="512" on="1"/>
        <pt x="1931" y="497" on="0"/>
        <pt x="1909" y="471" on="0"/>
        <pt x="1892" y="471" on="1"/>
        <pt x="338" y="471" on="1"/>
        <pt x="453" y="389" on="0"/>
        <pt x="610" y="140" on="0"/>
        <pt x="633" y="4" on="1"/>
        <pt x="633" y="-23" on="0"/>
        <pt x="612" y="-23" on="1"/>
        <pt x="571" y="-23" on="1"/>
        <pt x="556" y="-23" on="0"/>
      </contour>
    </TTGlyph>
    <TTGlyph name="arrownortheast" xMin="115" yMin="-395" xMax="1985" yMax="1475">
      <contour>
        <pt x="156" y="-395" on="1"/>
        <pt x="139" y="-395" on="0"/>
        <pt x="115" y="-371" on="0"/>
        <pt x="115" y="-354" on="1"/>
        <pt x="115" y="-338" on="0"/>
        <pt x="125" y="-328" on="1"/>
        <pt x="1739" y="1286" on="1"/>
        <pt x="1671" y="1276" on="0"/>
        <pt x="1616" y="1276" on="1"/>
        <pt x="1506" y="1276" on="0"/>
        <pt x="1292" y="1345" on="0"/>
        <pt x="1198" y="1409" on="1"/>
        <pt x="1190" y="1412" on="0"/>
        <pt x="1190" y="1425" on="1"/>
        <pt x="1190" y="1432" on="0"/>
        <pt x="1194" y="1440" on="1"/>
        <pt x="1225" y="1468" on="1"/>
        <pt x="1228" y="1475" on="0"/>
        <pt x="1239" y="1475" on="1"/>
        <pt x="1245" y="1475" on="0"/>
        <pt x="1249" y="1470" on="1"/>
        <pt x="1422" y="1354" on="0"/>
        <pt x="1618" y="1354" on="1"/>
        <pt x="1766" y="1354" on="0"/>
        <pt x="1903" y="1421" on="1"/>
        <pt x="1909" y="1421" on="1"/>
        <pt x="1919" y="1421" on="0"/>
        <pt x="1931" y="1409" on="0"/>
        <pt x="1931" y="1399" on="1"/>
        <pt x="1931" y="1395" on="0"/>
        <pt x="1929" y="1391" on="1"/>
        <pt x="1864" y="1258" on="0"/>
        <pt x="1864" y="1108" on="1"/>
        <pt x="1864" y="912" on="0"/>
        <pt x="1980" y="739" on="1"/>
        <pt x="1985" y="733" on="0"/>
        <pt x="1985" y="729" on="1"/>
        <pt x="1985" y="719" on="0"/>
        <pt x="1978" y="715" on="1"/>
        <pt x="1950" y="684" on="1"/>
        <pt x="1942" y="680" on="0"/>
        <pt x="1935" y="680" on="1"/>
        <pt x="1922" y="680" on="0"/>
        <pt x="1919" y="688" on="1"/>
        <pt x="1855" y="782" on="0"/>
        <pt x="1786" y="996" on="0"/>
        <pt x="1786" y="1106" on="1"/>
        <pt x="1786" y="1161" on="0"/>
        <pt x="1796" y="1229" on="1"/>
        <pt x="182" y="-385" on="1"/>
        <pt x="172" y="-395" on="0"/>
      </contour>
    </TTGlyph>
    <TTGlyph name="arrownorthwest" xMin="61" yMin="-395" xMax="1931" yMax="1475">
      <contour>
        <pt x="111" y="680" on="1"/>
        <pt x="104" y="680" on="0"/>
        <pt x="96" y="684" on="1"/>
        <pt x="68" y="715" on="1"/>
        <pt x="61" y="718" on="0"/>
        <pt x="61" y="729" on="1"/>
        <pt x="61" y="735" on="0"/>
        <pt x="66" y="739" on="1"/>
        <pt x="182" y="912" on="0"/>
        <pt x="182" y="1108" on="1"/>
        <pt x="182" y="1258" on="0"/>
        <pt x="117" y="1391" on="1"/>
        <pt x="115" y="1395" on="0"/>
        <pt x="115" y="1399" on="1"/>
        <pt x="115" y="1408" on="0"/>
        <pt x="128" y="1421" on="0"/>
        <pt x="137" y="1421" on="1"/>
        <pt x="145" y="1421" on="1"/>
        <pt x="279" y="1354" on="0"/>
        <pt x="428" y="1354" on="1"/>
        <pt x="624" y="1354" on="0"/>
        <pt x="797" y="1470" on="1"/>
        <pt x="801" y="1475" on="0"/>
        <pt x="807" y="1475" on="1"/>
        <pt x="818" y="1475" on="0"/>
        <pt x="821" y="1468" on="1"/>
        <pt x="852" y="1440" on="1"/>
        <pt x="856" y="1436" on="0"/>
        <pt x="856" y="1425" on="1"/>
        <pt x="856" y="1412" on="0"/>
        <pt x="848" y="1409" on="1"/>
        <pt x="784" y="1365" on="0"/>
        <pt x="649" y="1307" on="0"/>
        <pt x="505" y="1276" on="0"/>
        <pt x="430" y="1276" on="1"/>
        <pt x="375" y="1276" on="0"/>
        <pt x="307" y="1286" on="1"/>
        <pt x="1921" y="-328" on="1"/>
        <pt x="1931" y="-338" on="0"/>
        <pt x="1931" y="-354" on="1"/>
        <pt x="1931" y="-372" on="0"/>
        <pt x="1907" y="-395" on="0"/>
        <pt x="1890" y="-395" on="1"/>
        <pt x="1874" y="-395" on="0"/>
        <pt x="1864" y="-385" on="1"/>
        <pt x="250" y="1229" on="1"/>
        <pt x="260" y="1161" on="0"/>
        <pt x="260" y="1106" on="1"/>
        <pt x="260" y="996" on="0"/>
        <pt x="191" y="782" on="0"/>
        <pt x="127" y="688" on="1"/>
        <pt x="124" y="680" on="0"/>
      </contour>
    </TTGlyph>
    <TTGlyph name="arrowright" xMin="115" yMin="-23" xMax="1931" yMax="1047">
      <contour>
        <pt x="154" y="471" on="1"/>
        <pt x="137" y="471" on="0"/>
        <pt x="115" y="497" on="0"/>
        <pt x="115" y="512" on="1"/>
        <pt x="115" y="527" on="0"/>
        <pt x="137" y="553" on="0"/>
        <pt x="154" y="553" on="1"/>
        <pt x="1708" y="553" on="1"/>
        <pt x="1630" y="609" on="0"/>
        <pt x="1510" y="756" on="0"/>
        <pt x="1430" y="925" on="0"/>
        <pt x="1413" y="1020" on="1"/>
        <pt x="1413" y="1047" on="0"/>
        <pt x="1434" y="1047" on="1"/>
        <pt x="1475" y="1047" on="1"/>
        <pt x="1482" y="1047" on="0"/>
        <pt x="1493" y="1035" on="0"/>
        <pt x="1495" y="1028" on="1"/>
        <pt x="1512" y="940" on="0"/>
        <pt x="1585" y="789" on="0"/>
        <pt x="1695" y="659" on="0"/>
        <pt x="1831" y="565" on="0"/>
        <pt x="1917" y="535" on="1"/>
        <pt x="1931" y="526" on="0"/>
        <pt x="1931" y="512" on="1"/>
        <pt x="1931" y="496" on="0"/>
        <pt x="1917" y="492" on="1"/>
        <pt x="1810" y="455" on="0"/>
        <pt x="1632" y="308" on="0"/>
        <pt x="1516" y="109" on="0"/>
        <pt x="1495" y="-4" on="1"/>
        <pt x="1493" y="-11" on="0"/>
        <pt x="1481" y="-23" on="0"/>
        <pt x="1475" y="-23" on="1"/>
        <pt x="1434" y="-23" on="1"/>
        <pt x="1413" y="-23" on="0"/>
        <pt x="1413" y="4" on="1"/>
        <pt x="1439" y="144" on="0"/>
        <pt x="1595" y="391" on="0"/>
        <pt x="1708" y="471" on="1"/>
      </contour>
    </TTGlyph>
    <TTGlyph name="arrowsoutheast" xMin="115" yMin="-451" xMax="1985" yMax="1419">
      <contour>
        <pt x="1190" y="-401" on="1"/>
        <pt x="1190" y="-388" on="0"/>
        <pt x="1198" y="-385" on="1"/>
        <pt x="1292" y="-321" on="0"/>
        <pt x="1506" y="-252" on="0"/>
        <pt x="1616" y="-252" on="1"/>
        <pt x="1671" y="-252" on="0"/>
        <pt x="1739" y="-262" on="1"/>
        <pt x="125" y="1352" on="1"/>
        <pt x="115" y="1362" on="0"/>
        <pt x="115" y="1378" on="1"/>
        <pt x="115" y="1395" on="0"/>
        <pt x="137" y="1419" on="0"/>
        <pt x="156" y="1419" on="1"/>
        <pt x="172" y="1419" on="0"/>
        <pt x="182" y="1409" on="1"/>
        <pt x="1796" y="-205" on="1"/>
        <pt x="1786" y="-137" on="0"/>
        <pt x="1786" y="-82" on="1"/>
        <pt x="1786" y="-7" on="0"/>
        <pt x="1817" y="137" on="0"/>
        <pt x="1875" y="272" on="0"/>
        <pt x="1919" y="336" on="1"/>
        <pt x="1922" y="344" on="0"/>
        <pt x="1935" y="344" on="1"/>
        <pt x="1942" y="344" on="0"/>
        <pt x="1950" y="340" on="1"/>
        <pt x="1978" y="309" on="1"/>
        <pt x="1985" y="306" on="0"/>
        <pt x="1985" y="295" on="1"/>
        <pt x="1985" y="289" on="0"/>
        <pt x="1980" y="285" on="1"/>
        <pt x="1864" y="112" on="0"/>
        <pt x="1864" y="-84" on="1"/>
        <pt x="1864" y="-234" on="0"/>
        <pt x="1929" y="-367" on="1"/>
        <pt x="1931" y="-371" on="0"/>
        <pt x="1931" y="-375" on="1"/>
        <pt x="1931" y="-384" on="0"/>
        <pt x="1918" y="-397" on="0"/>
        <pt x="1909" y="-397" on="1"/>
        <pt x="1903" y="-397" on="1"/>
        <pt x="1766" y="-330" on="0"/>
        <pt x="1618" y="-330" on="1"/>
        <pt x="1422" y="-330" on="0"/>
        <pt x="1249" y="-446" on="1"/>
        <pt x="1245" y="-451" on="0"/>
        <pt x="1239" y="-451" on="1"/>
        <pt x="1228" y="-451" on="0"/>
        <pt x="1225" y="-444" on="1"/>
        <pt x="1194" y="-416" on="1"/>
        <pt x="1190" y="-408" on="0"/>
      </contour>
    </TTGlyph>
    <TTGlyph name="arrowsouthwest" xMin="61" yMin="-451" xMax="1931" yMax="1419">
      <contour>
        <pt x="115" y="-375" on="1"/>
        <pt x="115" y="-371" on="0"/>
        <pt x="117" y="-367" on="1"/>
        <pt x="182" y="-234" on="0"/>
        <pt x="182" y="-84" on="1"/>
        <pt x="182" y="112" on="0"/>
        <pt x="66" y="285" on="1"/>
        <pt x="61" y="291" on="0"/>
        <pt x="61" y="295" on="1"/>
        <pt x="61" y="306" on="0"/>
        <pt x="68" y="309" on="1"/>
        <pt x="96" y="340" on="1"/>
        <pt x="104" y="344" on="0"/>
        <pt x="111" y="344" on="1"/>
        <pt x="124" y="344" on="0"/>
        <pt x="127" y="336" on="1"/>
        <pt x="171" y="272" on="0"/>
        <pt x="229" y="137" on="0"/>
        <pt x="260" y="-7" on="0"/>
        <pt x="260" y="-82" on="1"/>
        <pt x="260" y="-137" on="0"/>
        <pt x="250" y="-205" on="1"/>
        <pt x="1864" y="1409" on="1"/>
        <pt x="1874" y="1419" on="0"/>
        <pt x="1890" y="1419" on="1"/>
        <pt x="1908" y="1419" on="0"/>
        <pt x="1931" y="1397" on="0"/>
        <pt x="1931" y="1378" on="1"/>
        <pt x="1931" y="1362" on="0"/>
        <pt x="1921" y="1352" on="1"/>
        <pt x="307" y="-262" on="1"/>
        <pt x="375" y="-252" on="0"/>
        <pt x="430" y="-252" on="1"/>
        <pt x="505" y="-252" on="0"/>
        <pt x="649" y="-283" on="0"/>
        <pt x="784" y="-341" on="0"/>
        <pt x="848" y="-385" on="1"/>
        <pt x="856" y="-388" on="0"/>
        <pt x="856" y="-401" on="1"/>
        <pt x="856" y="-408" on="0"/>
        <pt x="852" y="-416" on="1"/>
        <pt x="821" y="-444" on="1"/>
        <pt x="818" y="-451" on="0"/>
        <pt x="807" y="-451" on="1"/>
        <pt x="801" y="-451" on="0"/>
        <pt x="797" y="-446" on="1"/>
        <pt x="624" y="-330" on="0"/>
        <pt x="428" y="-330" on="1"/>
        <pt x="279" y="-330" on="0"/>
        <pt x="145" y="-397" on="1"/>
        <pt x="137" y="-397" on="1"/>
        <pt x="115" y="-397" on="0"/>
      </contour>
    </TTGlyph>
    <TTGlyph name="arrowup" xMin="35" yMin="-397" xMax="989" yMax="1421">
      <contour>
        <pt x="471" y="-360" on="1"/>
        <pt x="471" y="1139" on="1"/>
        <pt x="425" y="1063" on="0"/>
        <pt x="300" y="947" on="0"/>
        <pt x="147" y="866" on="0"/>
        <pt x="63" y="848" on="1"/>
        <pt x="59" y="846" on="0"/>
        <pt x="57" y="846" on="1"/>
        <pt x="35" y="846" on="0"/>
        <pt x="35" y="864" on="1"/>
        <pt x="35" y="909" on="1"/>
        <pt x="35" y="923" on="0"/>
        <pt x="49" y="928" on="1"/>
        <pt x="164" y="954" on="0"/>
        <pt x="352" y="1089" on="0"/>
        <pt x="472" y="1284" on="0"/>
        <pt x="489" y="1403" on="1"/>
        <pt x="493" y="1412" on="0"/>
        <pt x="505" y="1421" on="0"/>
        <pt x="512" y="1421" on="1"/>
        <pt x="519" y="1421" on="0"/>
        <pt x="533" y="1410" on="0"/>
        <pt x="535" y="1403" on="1"/>
        <pt x="559" y="1229" on="0"/>
        <pt x="801" y="967" on="0"/>
        <pt x="975" y="928" on="1"/>
        <pt x="981" y="926" on="0"/>
        <pt x="989" y="913" on="0"/>
        <pt x="989" y="909" on="1"/>
        <pt x="989" y="864" on="1"/>
        <pt x="989" y="858" on="0"/>
        <pt x="975" y="846" on="0"/>
        <pt x="967" y="846" on="1"/>
        <pt x="965" y="846" on="0"/>
        <pt x="961" y="848" on="1"/>
        <pt x="877" y="866" on="0"/>
        <pt x="724" y="947" on="0"/>
        <pt x="599" y="1063" on="0"/>
        <pt x="553" y="1139" on="1"/>
        <pt x="553" y="-360" on="1"/>
        <pt x="553" y="-376" on="0"/>
        <pt x="527" y="-397" on="0"/>
        <pt x="512" y="-397" on="1"/>
        <pt x="497" y="-397" on="0"/>
        <pt x="471" y="-376" on="0"/>
      </contour>
    </TTGlyph>
    <TTGlyph name="asteriskmath" xMin="133" yMin="70" xMax="889" yMax="952">
      <contour>
        <pt x="193" y="260" on="1"/>
        <pt x="170" y="260" on="0"/>
        <pt x="133" y="299" on="0"/>
        <pt x="133" y="322" on="1"/>
        <pt x="133" y="357" on="0"/>
        <pt x="162" y="371" on="1"/>
        <pt x="457" y="512" on="1"/>
        <pt x="162" y="651" on="1"/>
        <pt x="133" y="663" on="0"/>
        <pt x="133" y="700" on="1"/>
        <pt x="133" y="723" on="0"/>
        <pt x="170" y="762" on="0"/>
        <pt x="193" y="762" on="1"/>
        <pt x="208" y="762" on="0"/>
        <pt x="221" y="752" on="1"/>
        <pt x="483" y="561" on="1"/>
        <pt x="453" y="895" on="1"/>
        <pt x="453" y="920" on="0"/>
        <pt x="487" y="952" on="0"/>
        <pt x="512" y="952" on="1"/>
        <pt x="536" y="952" on="0"/>
        <pt x="569" y="922" on="0"/>
        <pt x="569" y="899" on="1"/>
        <pt x="569" y="895" on="1"/>
        <pt x="539" y="561" on="1"/>
        <pt x="801" y="752" on="1"/>
        <pt x="814" y="762" on="0"/>
        <pt x="829" y="762" on="1"/>
        <pt x="854" y="762" on="0"/>
        <pt x="889" y="723" on="0"/>
        <pt x="889" y="700" on="1"/>
        <pt x="889" y="663" on="0"/>
        <pt x="860" y="651" on="1"/>
        <pt x="565" y="512" on="1"/>
        <pt x="860" y="371" on="1"/>
        <pt x="889" y="357" on="0"/>
        <pt x="889" y="322" on="1"/>
        <pt x="889" y="299" on="0"/>
        <pt x="854" y="260" on="0"/>
        <pt x="829" y="260" on="1"/>
        <pt x="814" y="260" on="0"/>
        <pt x="801" y="270" on="1"/>
        <pt x="539" y="461" on="1"/>
        <pt x="569" y="129" on="1"/>
        <pt x="569" y="123" on="1"/>
        <pt x="569" y="100" on="0"/>
        <pt x="534" y="70" on="0"/>
        <pt x="512" y="70" on="1"/>
        <pt x="488" y="70" on="0"/>
        <pt x="453" y="103" on="0"/>
        <pt x="453" y="127" on="1"/>
        <pt x="483" y="461" on="1"/>
        <pt x="221" y="270" on="1"/>
        <pt x="208" y="260" on="0"/>
      </contour>
    </TTGlyph>
    <TTGlyph name="backslash" xMin="115" yMin="-512" xMax="907" yMax="1536">
      <contour>
        <pt x="829" y="-487" on="1"/>
        <pt x="119" y="1481" on="1"/>
        <pt x="115" y="1489" on="0"/>
        <pt x="115" y="1495" on="1"/>
        <pt x="115" y="1512" on="0"/>
        <pt x="137" y="1536" on="0"/>
        <pt x="156" y="1536" on="1"/>
        <pt x="183" y="1536" on="0"/>
        <pt x="195" y="1511" on="1"/>
        <pt x="905" y="-457" on="1"/>
        <pt x="906" y="-460" on="0"/>
        <pt x="907" y="-465" on="0"/>
        <pt x="907" y="-471" on="1"/>
        <pt x="907" y="-489" on="0"/>
        <pt x="883" y="-512" on="0"/>
        <pt x="866" y="-512" on="1"/>
        <pt x="837" y="-512" on="0"/>
      </contour>
    </TTGlyph>
    <TTGlyph name="bar" xMin="244" yMin="-512" xMax="326" yMax="1536">
      <contour>
        <pt x="244" y="-475" on="1"/>
        <pt x="244" y="1499" on="1"/>
        <pt x="244" y="1515" on="0"/>
        <pt x="268" y="1536" on="0"/>
        <pt x="285" y="1536" on="1"/>
        <pt x="300" y="1536" on="0"/>
        <pt x="326" y="1515" on="0"/>
        <pt x="326" y="1499" on="1"/>
        <pt x="326" y="-475" on="1"/>
        <pt x="326" y="-491" on="0"/>
        <pt x="300" y="-512" on="0"/>
        <pt x="285" y="-512" on="1"/>
        <pt x="268" y="-512" on="0"/>
        <pt x="244" y="-491" on="0"/>
      </contour>
    </TTGlyph>
    <TTGlyph name="bardbl" xMin="272" yMin="-512" xMax="752" yMax="1536">
      <contour>
        <pt x="272" y="-475" on="1"/>
        <pt x="272" y="1499" on="1"/>
        <pt x="272" y="1515" on="0"/>
        <pt x="298" y="1536" on="0"/>
        <pt x="313" y="1536" on="1"/>
        <pt x="330" y="1536" on="0"/>
        <pt x="354" y="1515" on="0"/>
        <pt x="354" y="1499" on="1"/>
        <pt x="354" y="-475" on="1"/>
        <pt x="354" y="-491" on="0"/>
        <pt x="330" y="-512" on="0"/>
        <pt x="313" y="-512" on="1"/>
        <pt x="298" y="-512" on="0"/>
        <pt x="272" y="-491" on="0"/>
      </contour>
      <contour>
        <pt x="670" y="-475" on="1"/>
        <pt x="670" y="1499" on="1"/>
        <pt x="670" y="1515" on="0"/>
        <pt x="694" y="1536" on="0"/>
        <pt x="711" y="1536" on="1"/>
        <pt x="726" y="1536" on="0"/>
        <pt x="752" y="1515" on="0"/>
        <pt x="752" y="1499" on="1"/>
        <pt x="752" y="-475" on="1"/>
        <pt x="752" y="-491" on="0"/>
        <pt x="726" y="-512" on="0"/>
        <pt x="711" y="-512" on="1"/>
        <pt x="694" y="-512" on="0"/>
        <pt x="670" y="-491" on="0"/>
      </contour>
    </TTGlyph>
    <TTGlyph name="braceleft" xMin="143" yMin="-512" xMax="879" yMax="1536">
      <contour>
        <pt x="438" y="-246" on="1"/>
        <pt x="438" y="254" on="1"/>
        <pt x="438" y="357" on="0"/>
        <pt x="270" y="485" on="0"/>
        <pt x="162" y="485" on="1"/>
        <pt x="143" y="485" on="0"/>
        <pt x="143" y="504" on="1"/>
        <pt x="143" y="522" on="1"/>
        <pt x="143" y="528" on="0"/>
        <pt x="153" y="539" on="0"/>
        <pt x="162" y="539" on="1"/>
        <pt x="270" y="539" on="0"/>
        <pt x="438" y="667" on="0"/>
        <pt x="438" y="770" on="1"/>
        <pt x="438" y="1270" on="1"/>
        <pt x="438" y="1363" on="0"/>
        <pt x="565" y="1482" on="0"/>
        <pt x="752" y="1536" on="0"/>
        <pt x="844" y="1536" on="1"/>
        <pt x="862" y="1536" on="1"/>
        <pt x="868" y="1536" on="0"/>
        <pt x="879" y="1527" on="0"/>
        <pt x="879" y="1520" on="1"/>
        <pt x="879" y="1501" on="1"/>
        <pt x="879" y="1483" on="0"/>
        <pt x="862" y="1483" on="1"/>
        <pt x="795" y="1483" on="0"/>
        <pt x="666" y="1433" on="0"/>
        <pt x="584" y="1335" on="0"/>
        <pt x="584" y="1266" on="1"/>
        <pt x="584" y="766" on="1"/>
        <pt x="584" y="700" on="0"/>
        <pt x="514" y="596" on="0"/>
        <pt x="401" y="528" on="0"/>
        <pt x="336" y="512" on="1"/>
        <pt x="439" y="487" on="0"/>
        <pt x="584" y="356" on="0"/>
        <pt x="584" y="258" on="1"/>
        <pt x="584" y="-242" on="1"/>
        <pt x="584" y="-344" on="0"/>
        <pt x="754" y="-459" on="0"/>
        <pt x="862" y="-459" on="1"/>
        <pt x="868" y="-459" on="0"/>
        <pt x="879" y="-468" on="0"/>
        <pt x="879" y="-477" on="1"/>
        <pt x="879" y="-496" on="1"/>
        <pt x="879" y="-502" on="0"/>
        <pt x="868" y="-512" on="0"/>
        <pt x="862" y="-512" on="1"/>
        <pt x="844" y="-512" on="1"/>
        <pt x="696" y="-512" on="0"/>
        <pt x="438" y="-380" on="0"/>
      </contour>
    </TTGlyph>
    <TTGlyph name="braceright" xMin="143" yMin="-512" xMax="879" yMax="1536">
      <contour>
        <pt x="143" y="-496" on="1"/>
        <pt x="143" y="-477" on="1"/>
        <pt x="143" y="-469" on="0"/>
        <pt x="154" y="-459" on="0"/>
        <pt x="162" y="-459" on="1"/>
        <pt x="228" y="-459" on="0"/>
        <pt x="356" y="-409" on="0"/>
        <pt x="438" y="-311" on="0"/>
        <pt x="438" y="-242" on="1"/>
        <pt x="438" y="258" on="1"/>
        <pt x="438" y="356" on="0"/>
        <pt x="584" y="487" on="0"/>
        <pt x="686" y="512" on="1"/>
        <pt x="582" y="539" on="0"/>
        <pt x="438" y="668" on="0"/>
        <pt x="438" y="766" on="1"/>
        <pt x="438" y="1266" on="1"/>
        <pt x="438" y="1335" on="0"/>
        <pt x="356" y="1433" on="0"/>
        <pt x="229" y="1483" on="0"/>
        <pt x="162" y="1483" on="1"/>
        <pt x="143" y="1483" on="0"/>
        <pt x="143" y="1501" on="1"/>
        <pt x="143" y="1520" on="1"/>
        <pt x="143" y="1536" on="0"/>
        <pt x="162" y="1536" on="1"/>
        <pt x="180" y="1536" on="1"/>
        <pt x="271" y="1536" on="0"/>
        <pt x="458" y="1482" on="0"/>
        <pt x="584" y="1362" on="0"/>
        <pt x="584" y="1270" on="1"/>
        <pt x="584" y="770" on="1"/>
        <pt x="584" y="667" on="0"/>
        <pt x="754" y="539" on="0"/>
        <pt x="862" y="539" on="1"/>
        <pt x="868" y="539" on="0"/>
        <pt x="879" y="529" on="0"/>
        <pt x="879" y="522" on="1"/>
        <pt x="879" y="504" on="1"/>
        <pt x="879" y="496" on="0"/>
        <pt x="869" y="485" on="0"/>
        <pt x="862" y="485" on="1"/>
        <pt x="754" y="485" on="0"/>
        <pt x="584" y="357" on="0"/>
        <pt x="584" y="254" on="1"/>
        <pt x="584" y="-246" on="1"/>
        <pt x="584" y="-381" on="0"/>
        <pt x="328" y="-512" on="0"/>
        <pt x="180" y="-512" on="1"/>
        <pt x="162" y="-512" on="1"/>
        <pt x="143" y="-512" on="0"/>
      </contour>
    </TTGlyph>
    <TTGlyph name="bullet" xMin="115" yMin="115" xMax="907" yMax="909">
      <contour>
        <pt x="512" y="115" on="1"/>
        <pt x="406" y="115" on="0"/>
        <pt x="223" y="222" on="0"/>
        <pt x="115" y="408" on="0"/>
        <pt x="115" y="512" on="1"/>
        <pt x="115" y="616" on="0"/>
        <pt x="223" y="802" on="0"/>
        <pt x="406" y="909" on="0"/>
        <pt x="512" y="909" on="1"/>
        <pt x="618" y="909" on="0"/>
        <pt x="800" y="801" on="0"/>
        <pt x="907" y="616" on="0"/>
        <pt x="907" y="512" on="1"/>
        <pt x="907" y="408" on="0"/>
        <pt x="800" y="223" on="0"/>
        <pt x="618" y="115" on="0"/>
      </contour>
    </TTGlyph>
    <TTGlyph name="ceilingleft" xMin="356" yMin="-512" xMax="864" yMax="1536">
      <contour>
        <pt x="356" y="-475" on="1"/>
        <pt x="356" y="1499" on="1"/>
        <pt x="356" y="1513" on="0"/>
        <pt x="379" y="1536" on="0"/>
        <pt x="395" y="1536" on="1"/>
        <pt x="827" y="1536" on="1"/>
        <pt x="843" y="1536" on="0"/>
        <pt x="864" y="1512" on="0"/>
        <pt x="864" y="1495" on="1"/>
        <pt x="864" y="1480" on="0"/>
        <pt x="843" y="1454" on="0"/>
        <pt x="827" y="1454" on="1"/>
        <pt x="438" y="1454" on="1"/>
        <pt x="438" y="-475" on="1"/>
        <pt x="438" y="-491" on="0"/>
        <pt x="414" y="-512" on="0"/>
        <pt x="397" y="-512" on="1"/>
        <pt x="382" y="-512" on="0"/>
        <pt x="356" y="-491" on="0"/>
      </contour>
    </TTGlyph>
    <TTGlyph name="ceilingright" xMin="43" yMin="-512" xMax="551" yMax="1536">
      <contour>
        <pt x="469" y="-475" on="1"/>
        <pt x="469" y="1454" on="1"/>
        <pt x="80" y="1454" on="1"/>
        <pt x="64" y="1454" on="0"/>
        <pt x="43" y="1480" on="0"/>
        <pt x="43" y="1495" on="1"/>
        <pt x="43" y="1512" on="0"/>
        <pt x="64" y="1536" on="0"/>
        <pt x="80" y="1536" on="1"/>
        <pt x="514" y="1536" on="1"/>
        <pt x="528" y="1536" on="0"/>
        <pt x="551" y="1513" on="0"/>
        <pt x="551" y="1499" on="1"/>
        <pt x="551" y="-475" on="1"/>
        <pt x="551" y="-491" on="0"/>
        <pt x="525" y="-512" on="0"/>
        <pt x="510" y="-512" on="1"/>
        <pt x="493" y="-512" on="0"/>
        <pt x="469" y="-491" on="0"/>
      </contour>
    </TTGlyph>
    <TTGlyph name="circlecopyrt" xMin="115" yMin="-442" xMax="1931" yMax="1466">
      <contour>
        <pt x="1024" y="-442" on="1"/>
        <pt x="769" y="-442" on="0"/>
        <pt x="353" y="-179" on="0"/>
        <pt x="115" y="262" on="0"/>
        <pt x="115" y="512" on="1"/>
        <pt x="115" y="702" on="0"/>
        <pt x="251" y="1047" on="0"/>
        <pt x="498" y="1313" on="0"/>
        <pt x="834" y="1466" on="0"/>
        <pt x="1024" y="1466" on="1"/>
        <pt x="1215" y="1466" on="0"/>
        <pt x="1550" y="1313" on="0"/>
        <pt x="1795" y="1047" on="0"/>
        <pt x="1931" y="702" on="0"/>
        <pt x="1931" y="512" on="1"/>
        <pt x="1931" y="262" on="0"/>
        <pt x="1693" y="-179" on="0"/>
        <pt x="1278" y="-442" on="0"/>
      </contour>
      <contour>
        <pt x="1024" y="-360" on="1"/>
        <pt x="1196" y="-360" on="0"/>
        <pt x="1503" y="-220" on="0"/>
        <pt x="1727" y="25" on="0"/>
        <pt x="1849" y="342" on="0"/>
        <pt x="1849" y="512" on="1"/>
        <pt x="1849" y="683" on="0"/>
        <pt x="1726" y="1001" on="0"/>
        <pt x="1502" y="1245" on="0"/>
        <pt x="1197" y="1384" on="0"/>
        <pt x="1024" y="1384" on="1"/>
        <pt x="851" y="1384" on="0"/>
        <pt x="548" y="1246" on="0"/>
        <pt x="320" y="999" on="0"/>
        <pt x="197" y="683" on="0"/>
        <pt x="197" y="512" on="1"/>
        <pt x="197" y="342" on="0"/>
        <pt x="320" y="27" on="0"/>
        <pt x="547" y="-221" on="0"/>
        <pt x="852" y="-360" on="0"/>
      </contour>
    </TTGlyph>
    <TTGlyph name="circledivide" xMin="115" yMin="-170" xMax="1477" yMax="1194">
      <contour>
        <pt x="797" y="-170" on="1"/>
        <pt x="657" y="-170" on="0"/>
        <pt x="411" y="-64" on="0"/>
        <pt x="220" y="125" on="0"/>
        <pt x="115" y="374" on="0"/>
        <pt x="115" y="512" on="1"/>
        <pt x="115" y="652" on="0"/>
        <pt x="219" y="898" on="0"/>
        <pt x="411" y="1090" on="0"/>
        <pt x="657" y="1194" on="0"/>
        <pt x="797" y="1194" on="1"/>
        <pt x="936" y="1194" on="0"/>
        <pt x="1184" y="1088" on="0"/>
        <pt x="1372" y="899" on="0"/>
        <pt x="1477" y="651" on="0"/>
        <pt x="1477" y="512" on="1"/>
        <pt x="1477" y="375" on="0"/>
        <pt x="1371" y="124" on="0"/>
        <pt x="1184" y="-63" on="0"/>
        <pt x="936" y="-170" on="0"/>
      </contour>
      <contour>
        <pt x="377" y="51" on="1"/>
        <pt x="556" y="-111" on="0"/>
        <pt x="797" y="-111" on="1"/>
        <pt x="921" y="-111" on="0"/>
        <pt x="1149" y="-14" on="0"/>
        <pt x="1321" y="158" on="0"/>
        <pt x="1417" y="385" on="0"/>
        <pt x="1417" y="512" on="1"/>
        <pt x="1417" y="591" on="0"/>
        <pt x="1380" y="739" on="0"/>
        <pt x="1306" y="877" on="0"/>
        <pt x="1255" y="932" on="1"/>
      </contour>
      <contour>
        <pt x="336" y="92" on="1"/>
        <pt x="1214" y="973" on="1"/>
        <pt x="1127" y="1052" on="0"/>
        <pt x="914" y="1135" on="0"/>
        <pt x="797" y="1135" on="1"/>
        <pt x="669" y="1135" on="0"/>
        <pt x="441" y="1037" on="0"/>
        <pt x="273" y="869" on="0"/>
        <pt x="174" y="635" on="0"/>
        <pt x="174" y="512" on="1"/>
        <pt x="174" y="433" on="0"/>
        <pt x="211" y="285" on="0"/>
        <pt x="285" y="147" on="0"/>
      </contour>
    </TTGlyph>
    <TTGlyph name="circledot" xMin="115" yMin="-170" xMax="1477" yMax="1194">
      <contour>
        <pt x="797" y="-170" on="1"/>
        <pt x="657" y="-170" on="0"/>
        <pt x="411" y="-64" on="0"/>
        <pt x="220" y="125" on="0"/>
        <pt x="115" y="374" on="0"/>
        <pt x="115" y="512" on="1"/>
        <pt x="115" y="652" on="0"/>
        <pt x="219" y="898" on="0"/>
        <pt x="411" y="1090" on="0"/>
        <pt x="657" y="1194" on="0"/>
        <pt x="797" y="1194" on="1"/>
        <pt x="936" y="1194" on="0"/>
        <pt x="1184" y="1088" on="0"/>
        <pt x="1372" y="899" on="0"/>
        <pt x="1477" y="651" on="0"/>
        <pt x="1477" y="512" on="1"/>
        <pt x="1477" y="375" on="0"/>
        <pt x="1371" y="124" on="0"/>
        <pt x="1184" y="-63" on="0"/>
        <pt x="936" y="-170" on="0"/>
      </contour>
      <contour>
        <pt x="797" y="-111" on="1"/>
        <pt x="921" y="-111" on="0"/>
        <pt x="1149" y="-14" on="0"/>
        <pt x="1321" y="158" on="0"/>
        <pt x="1417" y="385" on="0"/>
        <pt x="1417" y="512" on="1"/>
        <pt x="1417" y="639" on="0"/>
        <pt x="1320" y="868" on="0"/>
        <pt x="1152" y="1037" on="0"/>
        <pt x="925" y="1135" on="0"/>
        <pt x="797" y="1135" on="1"/>
        <pt x="669" y="1135" on="0"/>
        <pt x="441" y="1037" on="0"/>
        <pt x="273" y="869" on="0"/>
        <pt x="174" y="635" on="0"/>
        <pt x="174" y="512" on="1"/>
        <pt x="174" y="389" on="0"/>
        <pt x="271" y="158" on="0"/>
        <pt x="444" y="-14" on="0"/>
        <pt x="673" y="-111" on="0"/>
      </contour>
      <contour>
        <pt x="797" y="365" on="1"/>
        <pt x="738" y="365" on="0"/>
        <pt x="649" y="452" on="0"/>
        <pt x="649" y="512" on="1"/>
        <pt x="649" y="553" on="0"/>
        <pt x="689" y="619" on="0"/>
        <pt x="757" y="659" on="0"/>
        <pt x="797" y="659" on="1"/>
        <pt x="835" y="659" on="0"/>
        <pt x="902" y="619" on="0"/>
        <pt x="942" y="553" on="0"/>
        <pt x="942" y="512" on="1"/>
        <pt x="942" y="452" on="0"/>
        <pt x="855" y="365" on="0"/>
      </contour>
    </TTGlyph>
    <TTGlyph name="circleminus" xMin="115" yMin="-170" xMax="1477" yMax="1194">
      <contour>
        <pt x="797" y="-170" on="1"/>
        <pt x="657" y="-170" on="0"/>
        <pt x="411" y="-64" on="0"/>
        <pt x="220" y="125" on="0"/>
        <pt x="115" y="374" on="0"/>
        <pt x="115" y="512" on="1"/>
        <pt x="115" y="652" on="0"/>
        <pt x="219" y="898" on="0"/>
        <pt x="411" y="1090" on="0"/>
        <pt x="657" y="1194" on="0"/>
        <pt x="797" y="1194" on="1"/>
        <pt x="936" y="1194" on="0"/>
        <pt x="1184" y="1088" on="0"/>
        <pt x="1372" y="899" on="0"/>
        <pt x="1477" y="651" on="0"/>
        <pt x="1477" y="512" on="1"/>
        <pt x="1477" y="375" on="0"/>
        <pt x="1371" y="124" on="0"/>
        <pt x="1184" y="-63" on="0"/>
        <pt x="936" y="-170" on="0"/>
      </contour>
      <contour>
        <pt x="174" y="483" on="1"/>
        <pt x="174" y="365" on="0"/>
        <pt x="275" y="148" on="0"/>
        <pt x="455" y="-20" on="0"/>
        <pt x="678" y="-111" on="0"/>
        <pt x="797" y="-111" on="1"/>
        <pt x="915" y="-111" on="0"/>
        <pt x="1140" y="-18" on="0"/>
        <pt x="1315" y="146" on="0"/>
        <pt x="1417" y="365" on="0"/>
        <pt x="1417" y="483" on="1"/>
      </contour>
      <contour>
        <pt x="174" y="543" on="1"/>
        <pt x="1417" y="543" on="1"/>
        <pt x="1417" y="661" on="0"/>
        <pt x="1315" y="881" on="0"/>
        <pt x="1142" y="1042" on="0"/>
        <pt x="915" y="1135" on="0"/>
        <pt x="797" y="1135" on="1"/>
        <pt x="678" y="1135" on="0"/>
        <pt x="453" y="1043" on="0"/>
        <pt x="275" y="879" on="0"/>
        <pt x="174" y="661" on="0"/>
      </contour>
    </TTGlyph>
    <TTGlyph name="circlemultiply" xMin="115" yMin="-170" xMax="1477" yMax="1194">
      <contour>
        <pt x="797" y="-170" on="1"/>
        <pt x="657" y="-170" on="0"/>
        <pt x="411" y="-64" on="0"/>
        <pt x="220" y="125" on="0"/>
        <pt x="115" y="374" on="0"/>
        <pt x="115" y="512" on="1"/>
        <pt x="115" y="652" on="0"/>
        <pt x="219" y="898" on="0"/>
        <pt x="411" y="1090" on="0"/>
        <pt x="657" y="1194" on="0"/>
        <pt x="797" y="1194" on="1"/>
        <pt x="936" y="1194" on="0"/>
        <pt x="1184" y="1088" on="0"/>
        <pt x="1372" y="899" on="0"/>
        <pt x="1477" y="651" on="0"/>
        <pt x="1477" y="512" on="1"/>
        <pt x="1477" y="375" on="0"/>
        <pt x="1371" y="124" on="0"/>
        <pt x="1184" y="-63" on="0"/>
        <pt x="936" y="-170" on="0"/>
      </contour>
      <contour>
        <pt x="377" y="51" on="1"/>
        <pt x="556" y="-111" on="0"/>
        <pt x="797" y="-111" on="1"/>
        <pt x="910" y="-111" on="0"/>
        <pt x="1130" y="-26" on="0"/>
        <pt x="1214" y="51" on="1"/>
        <pt x="797" y="469" on="1"/>
      </contour>
      <contour>
        <pt x="336" y="92" on="1"/>
        <pt x="754" y="512" on="1"/>
        <pt x="336" y="932" on="1"/>
        <pt x="257" y="846" on="0"/>
        <pt x="174" y="629" on="0"/>
        <pt x="174" y="512" on="1"/>
        <pt x="174" y="433" on="0"/>
        <pt x="211" y="285" on="0"/>
        <pt x="285" y="147" on="0"/>
      </contour>
      <contour>
        <pt x="1255" y="92" on="1"/>
        <pt x="1306" y="147" on="0"/>
        <pt x="1380" y="285" on="0"/>
        <pt x="1417" y="433" on="0"/>
        <pt x="1417" y="512" on="1"/>
        <pt x="1417" y="591" on="0"/>
        <pt x="1380" y="739" on="0"/>
        <pt x="1306" y="877" on="0"/>
        <pt x="1255" y="932" on="1"/>
        <pt x="838" y="512" on="1"/>
      </contour>
      <contour>
        <pt x="797" y="555" on="1"/>
        <pt x="1214" y="973" on="1"/>
        <pt x="1127" y="1052" on="0"/>
        <pt x="914" y="1135" on="0"/>
        <pt x="797" y="1135" on="1"/>
        <pt x="679" y="1135" on="0"/>
        <pt x="466" y="1053" on="0"/>
        <pt x="377" y="973" on="1"/>
      </contour>
    </TTGlyph>
    <TTGlyph name="circleplus" xMin="115" yMin="-170" xMax="1477" yMax="1194">
      <contour>
        <pt x="797" y="-170" on="1"/>
        <pt x="657" y="-170" on="0"/>
        <pt x="411" y="-64" on="0"/>
        <pt x="220" y="125" on="0"/>
        <pt x="115" y="374" on="0"/>
        <pt x="115" y="512" on="1"/>
        <pt x="115" y="652" on="0"/>
        <pt x="219" y="898" on="0"/>
        <pt x="411" y="1090" on="0"/>
        <pt x="657" y="1194" on="0"/>
        <pt x="797" y="1194" on="1"/>
        <pt x="936" y="1194" on="0"/>
        <pt x="1184" y="1088" on="0"/>
        <pt x="1372" y="899" on="0"/>
        <pt x="1477" y="651" on="0"/>
        <pt x="1477" y="512" on="1"/>
        <pt x="1477" y="375" on="0"/>
        <pt x="1371" y="124" on="0"/>
        <pt x="1184" y="-63" on="0"/>
        <pt x="936" y="-170" on="0"/>
      </contour>
      <contour>
        <pt x="766" y="-111" on="1"/>
        <pt x="766" y="483" on="1"/>
        <pt x="174" y="483" on="1"/>
        <pt x="174" y="335" on="0"/>
        <pt x="342" y="60" on="0"/>
        <pt x="618" y="-111" on="0"/>
      </contour>
      <contour>
        <pt x="825" y="-111" on="1"/>
        <pt x="937" y="-111" on="0"/>
        <pt x="1149" y="-14" on="0"/>
        <pt x="1321" y="160" on="0"/>
        <pt x="1417" y="372" on="0"/>
        <pt x="1417" y="483" on="1"/>
        <pt x="825" y="483" on="1"/>
      </contour>
      <contour>
        <pt x="174" y="543" on="1"/>
        <pt x="766" y="543" on="1"/>
        <pt x="766" y="1135" on="1"/>
        <pt x="618" y="1135" on="0"/>
        <pt x="343" y="966" on="0"/>
        <pt x="174" y="691" on="0"/>
      </contour>
      <contour>
        <pt x="825" y="543" on="1"/>
        <pt x="1417" y="543" on="1"/>
        <pt x="1417" y="655" on="0"/>
        <pt x="1322" y="866" on="0"/>
        <pt x="1148" y="1040" on="0"/>
        <pt x="937" y="1135" on="0"/>
        <pt x="825" y="1135" on="1"/>
      </contour>
    </TTGlyph>
    <TTGlyph name="club" xMin="57" yMin="-266" xMax="1536" yMax="1489">
      <contour>
        <pt x="408" y="-45" on="1"/>
        <pt x="305" y="-45" on="0"/>
        <pt x="145" y="69" on="0"/>
        <pt x="57" y="254" on="0"/>
        <pt x="57" y="354" on="1"/>
        <pt x="57" y="448" on="0"/>
        <pt x="124" y="634" on="0"/>
        <pt x="261" y="754" on="0"/>
        <pt x="356" y="754" on="1"/>
        <pt x="475" y="754" on="0"/>
        <pt x="545" y="666" on="1"/>
        <pt x="592" y="760" on="1"/>
        <pt x="516" y="818" on="0"/>
        <pt x="434" y="996" on="0"/>
        <pt x="434" y="1090" on="1"/>
        <pt x="434" y="1189" on="0"/>
        <pt x="528" y="1376" on="0"/>
        <pt x="696" y="1489" on="0"/>
        <pt x="797" y="1489" on="1"/>
        <pt x="876" y="1489" on="0"/>
        <pt x="1008" y="1425" on="0"/>
        <pt x="1106" y="1309" on="0"/>
        <pt x="1159" y="1168" on="0"/>
        <pt x="1159" y="1090" on="1"/>
        <pt x="1159" y="996" on="0"/>
        <pt x="1076" y="816" on="0"/>
        <pt x="1001" y="760" on="1"/>
        <pt x="1049" y="666" on="1"/>
        <pt x="1119" y="754" on="0"/>
        <pt x="1239" y="754" on="1"/>
        <pt x="1335" y="754" on="0"/>
        <pt x="1469" y="634" on="0"/>
        <pt x="1536" y="448" on="0"/>
        <pt x="1536" y="354" on="1"/>
        <pt x="1536" y="254" on="0"/>
        <pt x="1449" y="69" on="0"/>
        <pt x="1289" y="-45" on="0"/>
        <pt x="1186" y="-45" on="1"/>
        <pt x="1092" y="-45" on="0"/>
        <pt x="940" y="53" on="0"/>
        <pt x="940" y="143" on="1"/>
        <pt x="838" y="143" on="1"/>
        <pt x="838" y="-37" on="0"/>
        <pt x="895" y="-217" on="1"/>
        <pt x="895" y="-225" on="1"/>
        <pt x="895" y="-242" on="0"/>
        <pt x="874" y="-266" on="0"/>
        <pt x="858" y="-266" on="1"/>
        <pt x="737" y="-266" on="1"/>
        <pt x="720" y="-266" on="0"/>
        <pt x="698" y="-242" on="0"/>
        <pt x="698" y="-225" on="1"/>
        <pt x="698" y="-219" on="0"/>
        <pt x="700" y="-217" on="1"/>
        <pt x="756" y="-30" on="0"/>
        <pt x="756" y="143" on="1"/>
        <pt x="653" y="143" on="1"/>
        <pt x="653" y="82" on="0"/>
        <pt x="579" y="-4" on="0"/>
        <pt x="466" y="-45" on="0"/>
      </contour>
    </TTGlyph>
    <TTGlyph name="coproduct" xMin="70" yMin="0" xMax="1464" yMax="1399">
      <contour>
        <pt x="70" y="18" on="1"/>
        <pt x="70" y="53" on="1"/>
        <pt x="70" y="60" on="0"/>
        <pt x="84" y="72" on="0"/>
        <pt x="90" y="72" on="1"/>
        <pt x="252" y="72" on="0"/>
        <pt x="270" y="94" on="1"/>
        <pt x="281" y="112" on="0"/>
        <pt x="281" y="141" on="1"/>
        <pt x="281" y="1257" on="1"/>
        <pt x="281" y="1304" on="0"/>
        <pt x="260" y="1313" on="1"/>
        <pt x="217" y="1327" on="0"/>
        <pt x="90" y="1327" on="1"/>
        <pt x="85" y="1327" on="0"/>
        <pt x="70" y="1340" on="0"/>
        <pt x="70" y="1346" on="1"/>
        <pt x="70" y="1380" on="1"/>
        <pt x="70" y="1386" on="0"/>
        <pt x="86" y="1399" on="0"/>
        <pt x="92" y="1399" on="1"/>
        <pt x="647" y="1399" on="1"/>
        <pt x="654" y="1399" on="0"/>
        <pt x="670" y="1387" on="0"/>
        <pt x="670" y="1380" on="1"/>
        <pt x="670" y="1346" on="1"/>
        <pt x="670" y="1339" on="0"/>
        <pt x="654" y="1327" on="0"/>
        <pt x="649" y="1327" on="1"/>
        <pt x="487" y="1327" on="0"/>
        <pt x="469" y="1305" on="1"/>
        <pt x="459" y="1286" on="0"/>
        <pt x="459" y="1257" on="1"/>
        <pt x="459" y="72" on="1"/>
        <pt x="1075" y="72" on="1"/>
        <pt x="1075" y="1257" on="1"/>
        <pt x="1075" y="1304" on="0"/>
        <pt x="1055" y="1313" on="1"/>
        <pt x="1012" y="1327" on="0"/>
        <pt x="885" y="1327" on="1"/>
        <pt x="881" y="1327" on="0"/>
        <pt x="864" y="1340" on="0"/>
        <pt x="864" y="1346" on="1"/>
        <pt x="864" y="1380" on="1"/>
        <pt x="864" y="1386" on="0"/>
        <pt x="880" y="1399" on="0"/>
        <pt x="887" y="1399" on="1"/>
        <pt x="1442" y="1399" on="1"/>
        <pt x="1449" y="1399" on="0"/>
        <pt x="1464" y="1388" on="0"/>
        <pt x="1464" y="1380" on="1"/>
        <pt x="1464" y="1346" on="1"/>
        <pt x="1464" y="1340" on="0"/>
        <pt x="1449" y="1327" on="0"/>
        <pt x="1444" y="1327" on="1"/>
        <pt x="1282" y="1327" on="0"/>
        <pt x="1264" y="1305" on="1"/>
        <pt x="1253" y="1287" on="0"/>
        <pt x="1253" y="1257" on="1"/>
        <pt x="1253" y="141" on="1"/>
        <pt x="1253" y="95" on="0"/>
        <pt x="1274" y="86" on="1"/>
        <pt x="1317" y="72" on="0"/>
        <pt x="1444" y="72" on="1"/>
        <pt x="1450" y="72" on="0"/>
        <pt x="1464" y="60" on="0"/>
        <pt x="1464" y="53" on="1"/>
        <pt x="1464" y="18" on="1"/>
        <pt x="1464" y="13" on="0"/>
        <pt x="1449" y="0" on="0"/>
        <pt x="1444" y="0" on="1"/>
        <pt x="90" y="0" on="1"/>
        <pt x="85" y="0" on="0"/>
        <pt x="70" y="13" on="0"/>
      </contour>
    </TTGlyph>
    <TTGlyph name="dagger" xMin="115" yMin="-442" xMax="793" yMax="1444">
      <contour>
        <pt x="424" y="-426" on="1"/>
        <pt x="417" y="-348" on="0"/>
        <pt x="400" y="-121" on="0"/>
        <pt x="386" y="196" on="0"/>
        <pt x="381" y="387" on="0"/>
        <pt x="381" y="502" on="1"/>
        <pt x="381" y="565" on="0"/>
        <pt x="430" y="798" on="0"/>
        <pt x="430" y="856" on="1"/>
        <pt x="408" y="856" on="0"/>
        <pt x="363" y="846" on="0"/>
        <pt x="291" y="826" on="0"/>
        <pt x="214" y="809" on="0"/>
        <pt x="188" y="809" on="1"/>
        <pt x="157" y="809" on="0"/>
        <pt x="115" y="851" on="0"/>
        <pt x="115" y="883" on="1"/>
        <pt x="115" y="913" on="0"/>
        <pt x="156" y="954" on="0"/>
        <pt x="188" y="954" on="1"/>
        <pt x="232" y="954" on="0"/>
        <pt x="402" y="907" on="0"/>
        <pt x="430" y="907" on="1"/>
        <pt x="430" y="960" on="0"/>
        <pt x="416" y="1075" on="0"/>
        <pt x="393" y="1215" on="0"/>
        <pt x="381" y="1316" on="0"/>
        <pt x="381" y="1372" on="1"/>
        <pt x="381" y="1402" on="0"/>
        <pt x="423" y="1444" on="0"/>
        <pt x="455" y="1444" on="1"/>
        <pt x="485" y="1444" on="0"/>
        <pt x="526" y="1403" on="0"/>
        <pt x="526" y="1372" on="1"/>
        <pt x="526" y="1287" on="0"/>
        <pt x="477" y="983" on="0"/>
        <pt x="477" y="907" on="1"/>
        <pt x="507" y="907" on="0"/>
        <pt x="677" y="954" on="0"/>
        <pt x="721" y="954" on="1"/>
        <pt x="752" y="954" on="0"/>
        <pt x="793" y="913" on="0"/>
        <pt x="793" y="883" on="1"/>
        <pt x="793" y="851" on="0"/>
        <pt x="751" y="809" on="0"/>
        <pt x="721" y="809" on="1"/>
        <pt x="694" y="809" on="0"/>
        <pt x="621" y="825" on="0"/>
        <pt x="560" y="842" on="0"/>
        <pt x="498" y="856" on="0"/>
        <pt x="477" y="856" on="1"/>
        <pt x="477" y="803" on="0"/>
        <pt x="526" y="570" on="0"/>
        <pt x="526" y="502" on="1"/>
        <pt x="526" y="500" on="1"/>
        <pt x="526" y="365" on="0"/>
        <pt x="516" y="29" on="0"/>
        <pt x="498" y="-270" on="0"/>
        <pt x="483" y="-426" on="1"/>
        <pt x="483" y="-432" on="0"/>
        <pt x="473" y="-442" on="0"/>
        <pt x="467" y="-442" on="1"/>
        <pt x="442" y="-442" on="1"/>
        <pt x="424" y="-442" on="0"/>
      </contour>
    </TTGlyph>
    <TTGlyph name="daggerdbl" xMin="115" yMin="-420" xMax="793" yMax="1444">
      <contour>
        <pt x="381" y="-348" on="1"/>
        <pt x="381" y="-282" on="0"/>
        <pt x="430" y="-41" on="0"/>
        <pt x="430" y="20" on="1"/>
        <pt x="395" y="20" on="0"/>
        <pt x="232" y="-29" on="0"/>
        <pt x="188" y="-29" on="1"/>
        <pt x="156" y="-29" on="0"/>
        <pt x="115" y="14" on="0"/>
        <pt x="115" y="45" on="1"/>
        <pt x="115" y="76" on="0"/>
        <pt x="156" y="119" on="0"/>
        <pt x="188" y="119" on="1"/>
        <pt x="235" y="119" on="0"/>
        <pt x="398" y="70" on="0"/>
        <pt x="430" y="70" on="1"/>
        <pt x="430" y="131" on="0"/>
        <pt x="381" y="374" on="0"/>
        <pt x="381" y="438" on="1"/>
        <pt x="381" y="468" on="0"/>
        <pt x="423" y="510" on="0"/>
        <pt x="455" y="510" on="1"/>
        <pt x="485" y="510" on="0"/>
        <pt x="526" y="469" on="0"/>
        <pt x="526" y="438" on="1"/>
        <pt x="526" y="369" on="0"/>
        <pt x="477" y="126" on="0"/>
        <pt x="477" y="70" on="1"/>
        <pt x="511" y="70" on="0"/>
        <pt x="674" y="119" on="0"/>
        <pt x="721" y="119" on="1"/>
        <pt x="752" y="119" on="0"/>
        <pt x="793" y="76" on="0"/>
        <pt x="793" y="45" on="1"/>
        <pt x="793" y="14" on="0"/>
        <pt x="752" y="-29" on="0"/>
        <pt x="721" y="-29" on="1"/>
        <pt x="677" y="-29" on="0"/>
        <pt x="514" y="20" on="0"/>
        <pt x="477" y="20" on="1"/>
        <pt x="477" y="-36" on="0"/>
        <pt x="526" y="-277" on="0"/>
        <pt x="526" y="-348" on="1"/>
        <pt x="526" y="-377" on="0"/>
        <pt x="485" y="-420" on="0"/>
        <pt x="455" y="-420" on="1"/>
        <pt x="423" y="-420" on="0"/>
        <pt x="381" y="-376" on="0"/>
      </contour>
      <contour>
        <pt x="381" y="586" on="1"/>
        <pt x="381" y="651" on="0"/>
        <pt x="430" y="892" on="0"/>
        <pt x="430" y="952" on="1"/>
        <pt x="408" y="952" on="0"/>
        <pt x="363" y="942" on="0"/>
        <pt x="291" y="922" on="0"/>
        <pt x="214" y="905" on="0"/>
        <pt x="188" y="905" on="1"/>
        <pt x="157" y="905" on="0"/>
        <pt x="115" y="947" on="0"/>
        <pt x="115" y="979" on="1"/>
        <pt x="115" y="1011" on="0"/>
        <pt x="157" y="1051" on="0"/>
        <pt x="188" y="1051" on="1"/>
        <pt x="232" y="1051" on="0"/>
        <pt x="402" y="1004" on="0"/>
        <pt x="430" y="1004" on="1"/>
        <pt x="430" y="1064" on="0"/>
        <pt x="381" y="1307" on="0"/>
        <pt x="381" y="1372" on="1"/>
        <pt x="381" y="1402" on="0"/>
        <pt x="423" y="1444" on="0"/>
        <pt x="455" y="1444" on="1"/>
        <pt x="485" y="1444" on="0"/>
        <pt x="526" y="1403" on="0"/>
        <pt x="526" y="1372" on="1"/>
        <pt x="526" y="1302" on="0"/>
        <pt x="477" y="1059" on="0"/>
        <pt x="477" y="1004" on="1"/>
        <pt x="507" y="1004" on="0"/>
        <pt x="677" y="1051" on="0"/>
        <pt x="721" y="1051" on="1"/>
        <pt x="751" y="1051" on="0"/>
        <pt x="793" y="1011" on="0"/>
        <pt x="793" y="979" on="1"/>
        <pt x="793" y="947" on="0"/>
        <pt x="751" y="905" on="0"/>
        <pt x="721" y="905" on="1"/>
        <pt x="694" y="905" on="0"/>
        <pt x="621" y="921" on="0"/>
        <pt x="560" y="938" on="0"/>
        <pt x="498" y="952" on="0"/>
        <pt x="477" y="952" on="1"/>
        <pt x="477" y="912" on="0"/>
        <pt x="489" y="835" on="0"/>
        <pt x="513" y="723" on="0"/>
        <pt x="526" y="630" on="0"/>
        <pt x="526" y="586" on="1"/>
        <pt x="526" y="554" on="0"/>
        <pt x="486" y="512" on="0"/>
        <pt x="455" y="512" on="1"/>
        <pt x="422" y="512" on="0"/>
        <pt x="381" y="555" on="0"/>
      </contour>
    </TTGlyph>
    <TTGlyph name="diamond" xMin="115" yMin="-334" xMax="1479" yMax="1489">
      <contour>
        <pt x="762" y="-315" on="1"/>
        <pt x="504" y="206" on="0"/>
        <pt x="125" y="551" on="1"/>
        <pt x="115" y="561" on="0"/>
        <pt x="115" y="578" on="1"/>
        <pt x="115" y="593" on="0"/>
        <pt x="125" y="606" on="1"/>
        <pt x="251" y="719" on="0"/>
        <pt x="487" y="1002" on="0"/>
        <pt x="682" y="1309" on="0"/>
        <pt x="762" y="1470" on="1"/>
        <pt x="772" y="1489" on="0"/>
        <pt x="797" y="1489" on="1"/>
        <pt x="821" y="1489" on="0"/>
        <pt x="831" y="1470" on="1"/>
        <pt x="911" y="1309" on="0"/>
        <pt x="1106" y="1002" on="0"/>
        <pt x="1342" y="719" on="0"/>
        <pt x="1468" y="606" on="1"/>
        <pt x="1479" y="593" on="0"/>
        <pt x="1479" y="578" on="1"/>
        <pt x="1479" y="560" on="0"/>
        <pt x="1468" y="551" on="1"/>
        <pt x="1089" y="206" on="0"/>
        <pt x="831" y="-315" on="1"/>
        <pt x="821" y="-334" on="0"/>
        <pt x="797" y="-334" on="1"/>
        <pt x="772" y="-334" on="0"/>
      </contour>
      <contour>
        <pt x="797" y="-203" on="1"/>
        <pt x="854" y="-94" on="0"/>
        <pt x="983" y="116" on="0"/>
        <pt x="1124" y="308" on="0"/>
        <pt x="1293" y="500" on="0"/>
        <pt x="1376" y="578" on="1"/>
        <pt x="1297" y="653" on="0"/>
        <pt x="1130" y="839" on="0"/>
        <pt x="975" y="1052" on="0"/>
        <pt x="856" y="1246" on="0"/>
        <pt x="797" y="1358" on="1"/>
        <pt x="678" y="1129" on="0"/>
        <pt x="396" y="746" on="0"/>
        <pt x="217" y="578" on="1"/>
        <pt x="299" y="502" on="0"/>
        <pt x="470" y="308" on="0"/>
        <pt x="604" y="127" on="0"/>
        <pt x="741" y="-93" on="0"/>
      </contour>
    </TTGlyph>
    <TTGlyph name="diamondmath" xMin="23" yMin="23" xMax="1001" yMax="1001">
      <contour>
        <pt x="481" y="37" on="1"/>
        <pt x="33" y="485" on="1"/>
        <pt x="23" y="497" on="0"/>
        <pt x="23" y="512" on="1"/>
        <pt x="23" y="526" on="0"/>
        <pt x="33" y="541" on="1"/>
        <pt x="481" y="989" on="1"/>
        <pt x="497" y="1001" on="0"/>
        <pt x="512" y="1001" on="1"/>
        <pt x="527" y="1001" on="0"/>
        <pt x="543" y="989" on="1"/>
        <pt x="991" y="541" on="1"/>
        <pt x="1001" y="526" on="0"/>
        <pt x="1001" y="512" on="1"/>
        <pt x="1001" y="497" on="0"/>
        <pt x="991" y="485" on="1"/>
        <pt x="543" y="37" on="1"/>
        <pt x="529" y="23" on="0"/>
        <pt x="512" y="23" on="1"/>
        <pt x="495" y="23" on="0"/>
      </contour>
      <contour>
        <pt x="512" y="123" on="1"/>
        <pt x="903" y="512" on="1"/>
        <pt x="512" y="903" on="1"/>
        <pt x="123" y="512" on="1"/>
      </contour>
    </TTGlyph>
    <TTGlyph name="divide" xMin="115" yMin="-66" xMax="1479" yMax="1090">
      <contour>
        <pt x="664" y="70" on="1"/>
        <pt x="664" y="124" on="0"/>
        <pt x="741" y="205" on="0"/>
        <pt x="797" y="205" on="1"/>
        <pt x="852" y="205" on="0"/>
        <pt x="932" y="125" on="0"/>
        <pt x="932" y="70" on="1"/>
        <pt x="932" y="14" on="0"/>
        <pt x="850" y="-66" on="0"/>
        <pt x="797" y="-66" on="1"/>
        <pt x="743" y="-66" on="0"/>
        <pt x="664" y="15" on="0"/>
      </contour>
      <contour>
        <pt x="154" y="471" on="1"/>
        <pt x="137" y="471" on="0"/>
        <pt x="115" y="497" on="0"/>
        <pt x="115" y="512" on="1"/>
        <pt x="115" y="527" on="0"/>
        <pt x="137" y="553" on="0"/>
        <pt x="154" y="553" on="1"/>
        <pt x="1442" y="553" on="1"/>
        <pt x="1457" y="553" on="0"/>
        <pt x="1479" y="527" on="0"/>
        <pt x="1479" y="512" on="1"/>
        <pt x="1479" y="497" on="0"/>
        <pt x="1457" y="471" on="0"/>
        <pt x="1442" y="471" on="1"/>
      </contour>
      <contour>
        <pt x="664" y="954" on="1"/>
        <pt x="664" y="1009" on="0"/>
        <pt x="741" y="1090" on="0"/>
        <pt x="797" y="1090" on="1"/>
        <pt x="852" y="1090" on="0"/>
        <pt x="932" y="1010" on="0"/>
        <pt x="932" y="954" on="1"/>
        <pt x="932" y="899" on="0"/>
        <pt x="850" y="819" on="0"/>
        <pt x="797" y="819" on="1"/>
        <pt x="743" y="819" on="0"/>
        <pt x="664" y="900" on="0"/>
      </contour>
    </TTGlyph>
    <TTGlyph name="element" xMin="170" yMin="-82" xMax="1194" yMax="1106">
      <contour>
        <pt x="434" y="129" on="1"/>
        <pt x="588" y="0" on="0"/>
        <pt x="799" y="0" on="1"/>
        <pt x="1157" y="0" on="1"/>
        <pt x="1173" y="0" on="0"/>
        <pt x="1194" y="-24" on="0"/>
        <pt x="1194" y="-41" on="1"/>
        <pt x="1194" y="-56" on="0"/>
        <pt x="1173" y="-82" on="0"/>
        <pt x="1157" y="-82" on="1"/>
        <pt x="793" y="-82" on="1"/>
        <pt x="630" y="-82" on="0"/>
        <pt x="342" y="74" on="0"/>
        <pt x="170" y="347" on="0"/>
        <pt x="170" y="512" on="1"/>
        <pt x="170" y="677" on="0"/>
        <pt x="342" y="950" on="0"/>
        <pt x="630" y="1106" on="0"/>
        <pt x="793" y="1106" on="1"/>
        <pt x="1157" y="1106" on="1"/>
        <pt x="1173" y="1106" on="0"/>
        <pt x="1194" y="1080" on="0"/>
        <pt x="1194" y="1065" on="1"/>
        <pt x="1194" y="1048" on="0"/>
        <pt x="1173" y="1024" on="0"/>
        <pt x="1157" y="1024" on="1"/>
        <pt x="799" y="1024" on="1"/>
        <pt x="699" y="1024" on="0"/>
        <pt x="510" y="958" on="0"/>
        <pt x="434" y="895" on="1"/>
        <pt x="359" y="832" on="0"/>
        <pt x="254" y="643" on="0"/>
        <pt x="254" y="553" on="1"/>
        <pt x="1157" y="553" on="1"/>
        <pt x="1173" y="553" on="0"/>
        <pt x="1194" y="527" on="0"/>
        <pt x="1194" y="512" on="1"/>
        <pt x="1194" y="497" on="0"/>
        <pt x="1173" y="471" on="0"/>
        <pt x="1157" y="471" on="1"/>
        <pt x="254" y="471" on="1"/>
        <pt x="254" y="382" on="0"/>
        <pt x="359" y="192" on="0"/>
      </contour>
    </TTGlyph>
    <TTGlyph name="emptyset" xMin="92" yMin="-160" xMax="930" yMax="1581">
      <contour>
        <pt x="227" y="-119" on="1"/>
        <pt x="227" y="-113" on="0"/>
        <pt x="229" y="-111" on="1"/>
        <pt x="274" y="47" on="1"/>
        <pt x="163" y="148" on="0"/>
        <pt x="92" y="494" on="0"/>
        <pt x="92" y="705" on="1"/>
        <pt x="92" y="1007" on="0"/>
        <pt x="262" y="1466" on="0"/>
        <pt x="512" y="1466" on="1"/>
        <pt x="598" y="1466" on="0"/>
        <pt x="676" y="1423" on="1"/>
        <pt x="715" y="1550" on="1"/>
        <pt x="722" y="1581" on="0"/>
        <pt x="754" y="1581" on="1"/>
        <pt x="771" y="1581" on="0"/>
        <pt x="795" y="1557" on="0"/>
        <pt x="795" y="1540" on="1"/>
        <pt x="795" y="1532" on="1"/>
        <pt x="748" y="1372" on="1"/>
        <pt x="824" y="1301" on="0"/>
        <pt x="906" y="1078" on="0"/>
        <pt x="930" y="837" on="0"/>
        <pt x="930" y="705" on="1"/>
        <pt x="930" y="528" on="0"/>
        <pt x="871" y="195" on="0"/>
        <pt x="685" y="-45" on="0"/>
        <pt x="512" y="-45" on="1"/>
        <pt x="420" y="-45" on="0"/>
        <pt x="344" y="-2" on="1"/>
        <pt x="309" y="-129" on="1"/>
        <pt x="297" y="-160" on="0"/>
        <pt x="268" y="-160" on="1"/>
        <pt x="253" y="-160" on="0"/>
        <pt x="227" y="-134" on="0"/>
      </contour>
      <contour>
        <pt x="365" y="68" on="1"/>
        <pt x="431" y="8" on="0"/>
        <pt x="512" y="8" on="1"/>
        <pt x="607" y="8" on="0"/>
        <pt x="721" y="165" on="0"/>
        <pt x="773" y="405" on="0"/>
        <pt x="784" y="618" on="0"/>
        <pt x="784" y="739" on="1"/>
        <pt x="784" y="917" on="0"/>
        <pt x="762" y="1191" on="0"/>
        <pt x="719" y="1278" on="1"/>
      </contour>
      <contour>
        <pt x="303" y="150" on="1"/>
        <pt x="657" y="1356" on="1"/>
        <pt x="590" y="1413" on="0"/>
        <pt x="512" y="1413" on="1"/>
        <pt x="416" y="1413" on="0"/>
        <pt x="302" y="1272" on="0"/>
        <pt x="251" y="1064" on="0"/>
        <pt x="238" y="856" on="0"/>
        <pt x="238" y="739" on="1"/>
        <pt x="238" y="546" on="0"/>
        <pt x="260" y="247" on="0"/>
      </contour>
    </TTGlyph>
    <TTGlyph name="equivalence" xMin="115" yMin="74" xMax="1477" yMax="950">
      <contour>
        <pt x="154" y="74" on="1"/>
        <pt x="137" y="74" on="0"/>
        <pt x="115" y="98" on="0"/>
        <pt x="115" y="115" on="1"/>
        <pt x="115" y="130" on="0"/>
        <pt x="137" y="156" on="0"/>
        <pt x="154" y="156" on="1"/>
        <pt x="1440" y="156" on="1"/>
        <pt x="1455" y="156" on="0"/>
        <pt x="1477" y="130" on="0"/>
        <pt x="1477" y="115" on="1"/>
        <pt x="1477" y="98" on="0"/>
        <pt x="1455" y="74" on="0"/>
        <pt x="1440" y="74" on="1"/>
      </contour>
      <contour>
        <pt x="154" y="471" on="1"/>
        <pt x="137" y="471" on="0"/>
        <pt x="115" y="497" on="0"/>
        <pt x="115" y="512" on="1"/>
        <pt x="115" y="527" on="0"/>
        <pt x="137" y="553" on="0"/>
        <pt x="154" y="553" on="1"/>
        <pt x="1440" y="553" on="1"/>
        <pt x="1455" y="553" on="0"/>
        <pt x="1477" y="527" on="0"/>
        <pt x="1477" y="512" on="1"/>
        <pt x="1477" y="497" on="0"/>
        <pt x="1455" y="471" on="0"/>
        <pt x="1440" y="471" on="1"/>
      </contour>
      <contour>
        <pt x="154" y="868" on="1"/>
        <pt x="137" y="868" on="0"/>
        <pt x="115" y="894" on="0"/>
        <pt x="115" y="909" on="1"/>
        <pt x="115" y="926" on="0"/>
        <pt x="137" y="950" on="0"/>
        <pt x="154" y="950" on="1"/>
        <pt x="1440" y="950" on="1"/>
        <pt x="1455" y="950" on="0"/>
        <pt x="1477" y="926" on="0"/>
        <pt x="1477" y="909" on="1"/>
        <pt x="1477" y="894" on="0"/>
        <pt x="1455" y="868" on="0"/>
        <pt x="1440" y="868" on="1"/>
      </contour>
    </TTGlyph>
    <TTGlyph name="equivasymptotic" xMin="115" yMin="33" xMax="1477" yMax="991">
      <contour>
        <pt x="115" y="74" on="1"/>
        <pt x="115" y="93" on="0"/>
        <pt x="131" y="106" on="1"/>
        <pt x="462" y="377" on="0"/>
        <pt x="797" y="377" on="1"/>
        <pt x="1129" y="377" on="0"/>
        <pt x="1460" y="106" on="1"/>
        <pt x="1477" y="92" on="0"/>
        <pt x="1477" y="74" on="1"/>
        <pt x="1477" y="57" on="0"/>
        <pt x="1451" y="33" on="0"/>
        <pt x="1436" y="33" on="1"/>
        <pt x="1419" y="33" on="0"/>
        <pt x="1411" y="41" on="1"/>
        <pt x="1271" y="157" on="0"/>
        <pt x="958" y="295" on="0"/>
        <pt x="797" y="295" on="1"/>
        <pt x="634" y="295" on="0"/>
        <pt x="320" y="157" on="0"/>
        <pt x="180" y="41" on="1"/>
        <pt x="172" y="33" on="0"/>
        <pt x="156" y="33" on="1"/>
        <pt x="139" y="33" on="0"/>
        <pt x="115" y="57" on="0"/>
      </contour>
      <contour>
        <pt x="131" y="918" on="1"/>
        <pt x="115" y="931" on="0"/>
        <pt x="115" y="950" on="1"/>
        <pt x="115" y="967" on="0"/>
        <pt x="137" y="991" on="0"/>
        <pt x="156" y="991" on="1"/>
        <pt x="172" y="991" on="0"/>
        <pt x="180" y="983" on="1"/>
        <pt x="325" y="865" on="0"/>
        <pt x="634" y="729" on="0"/>
        <pt x="797" y="729" on="1"/>
        <pt x="958" y="729" on="0"/>
        <pt x="1267" y="865" on="0"/>
        <pt x="1411" y="983" on="1"/>
        <pt x="1419" y="991" on="0"/>
        <pt x="1436" y="991" on="1"/>
        <pt x="1453" y="991" on="0"/>
        <pt x="1477" y="967" on="0"/>
        <pt x="1477" y="950" on="1"/>
        <pt x="1477" y="932" on="0"/>
        <pt x="1460" y="918" on="1"/>
        <pt x="1129" y="647" on="0"/>
        <pt x="797" y="647" on="1"/>
        <pt x="462" y="647" on="0"/>
      </contour>
    </TTGlyph>
    <TTGlyph name="existential" xMin="115" yMin="0" xMax="1022" yMax="1421">
      <contour>
        <pt x="154" y="0" on="1"/>
        <pt x="137" y="0" on="0"/>
        <pt x="115" y="24" on="0"/>
        <pt x="115" y="41" on="1"/>
        <pt x="115" y="56" on="0"/>
        <pt x="137" y="82" on="0"/>
        <pt x="154" y="82" on="1"/>
        <pt x="940" y="82" on="1"/>
        <pt x="940" y="670" on="1"/>
        <pt x="180" y="670" on="1"/>
        <pt x="165" y="670" on="0"/>
        <pt x="143" y="694" on="0"/>
        <pt x="143" y="711" on="1"/>
        <pt x="143" y="726" on="0"/>
        <pt x="165" y="752" on="0"/>
        <pt x="180" y="752" on="1"/>
        <pt x="940" y="752" on="1"/>
        <pt x="940" y="1339" on="1"/>
        <pt x="154" y="1339" on="1"/>
        <pt x="137" y="1339" on="0"/>
        <pt x="115" y="1365" on="0"/>
        <pt x="115" y="1380" on="1"/>
        <pt x="115" y="1397" on="0"/>
        <pt x="137" y="1421" on="0"/>
        <pt x="154" y="1421" on="1"/>
        <pt x="985" y="1421" on="1"/>
        <pt x="1000" y="1421" on="0"/>
        <pt x="1022" y="1399" on="0"/>
        <pt x="1022" y="1384" on="1"/>
        <pt x="1022" y="39" on="1"/>
        <pt x="1022" y="23" on="0"/>
        <pt x="999" y="0" on="0"/>
        <pt x="985" y="0" on="1"/>
      </contour>
    </TTGlyph>
    <TTGlyph name="floorleft" xMin="356" yMin="-512" xMax="864" yMax="1536">
      <contour>
        <pt x="356" y="-475" on="1"/>
        <pt x="356" y="1499" on="1"/>
        <pt x="356" y="1515" on="0"/>
        <pt x="382" y="1536" on="0"/>
        <pt x="397" y="1536" on="1"/>
        <pt x="414" y="1536" on="0"/>
        <pt x="438" y="1515" on="0"/>
        <pt x="438" y="1499" on="1"/>
        <pt x="438" y="-430" on="1"/>
        <pt x="827" y="-430" on="1"/>
        <pt x="843" y="-430" on="0"/>
        <pt x="864" y="-456" on="0"/>
        <pt x="864" y="-471" on="1"/>
        <pt x="864" y="-488" on="0"/>
        <pt x="843" y="-512" on="0"/>
        <pt x="827" y="-512" on="1"/>
        <pt x="395" y="-512" on="1"/>
        <pt x="381" y="-512" on="0"/>
        <pt x="356" y="-489" on="0"/>
      </contour>
    </TTGlyph>
    <TTGlyph name="floorright" xMin="43" yMin="-512" xMax="551" yMax="1536">
      <contour>
        <pt x="80" y="-512" on="1"/>
        <pt x="64" y="-512" on="0"/>
        <pt x="43" y="-488" on="0"/>
        <pt x="43" y="-471" on="1"/>
        <pt x="43" y="-456" on="0"/>
        <pt x="64" y="-430" on="0"/>
        <pt x="80" y="-430" on="1"/>
        <pt x="469" y="-430" on="1"/>
        <pt x="469" y="1499" on="1"/>
        <pt x="469" y="1515" on="0"/>
        <pt x="493" y="1536" on="0"/>
        <pt x="510" y="1536" on="1"/>
        <pt x="525" y="1536" on="0"/>
        <pt x="551" y="1515" on="0"/>
        <pt x="551" y="1499" on="1"/>
        <pt x="551" y="-475" on="1"/>
        <pt x="551" y="-489" on="0"/>
        <pt x="526" y="-512" on="0"/>
        <pt x="514" y="-512" on="1"/>
      </contour>
    </TTGlyph>
    <TTGlyph name="follows" xMin="170" yMin="-82" xMax="1421" yMax="1104">
      <contour>
        <pt x="211" y="-82" on="1"/>
        <pt x="192" y="-82" on="0"/>
        <pt x="170" y="-55" on="0"/>
        <pt x="170" y="-37" on="1"/>
        <pt x="187" y="127" on="0"/>
        <pt x="380" y="354" on="0"/>
        <pt x="663" y="480" on="0"/>
        <pt x="834" y="510" on="1"/>
        <pt x="705" y="533" on="0"/>
        <pt x="487" y="611" on="0"/>
        <pt x="302" y="743" on="0"/>
        <pt x="185" y="931" on="0"/>
        <pt x="170" y="1061" on="1"/>
        <pt x="170" y="1078" on="0"/>
        <pt x="192" y="1104" on="0"/>
        <pt x="211" y="1104" on="1"/>
        <pt x="228" y="1104" on="0"/>
        <pt x="251" y="1081" on="0"/>
        <pt x="252" y="1067" on="1"/>
        <pt x="275" y="842" on="0"/>
        <pt x="651" y="614" on="0"/>
        <pt x="1123" y="551" on="0"/>
        <pt x="1384" y="551" on="1"/>
        <pt x="1400" y="551" on="0"/>
        <pt x="1421" y="525" on="0"/>
        <pt x="1421" y="510" on="1"/>
        <pt x="1421" y="493" on="0"/>
        <pt x="1400" y="469" on="0"/>
        <pt x="1384" y="469" on="1"/>
        <pt x="1124" y="469" on="0"/>
        <pt x="652" y="406" on="0"/>
        <pt x="275" y="178" on="0"/>
        <pt x="252" y="-43" on="1"/>
        <pt x="251" y="-59" on="0"/>
        <pt x="228" y="-82" on="0"/>
      </contour>
    </TTGlyph>
    <TTGlyph name="followsequal" xMin="170" yMin="-281" xMax="1421" yMax="1303">
      <contour>
        <pt x="209" y="-281" on="1"/>
        <pt x="192" y="-281" on="0"/>
        <pt x="170" y="-255" on="0"/>
        <pt x="170" y="-240" on="1"/>
        <pt x="170" y="-223" on="0"/>
        <pt x="192" y="-199" on="0"/>
        <pt x="209" y="-199" on="1"/>
        <pt x="1384" y="-199" on="1"/>
        <pt x="1400" y="-199" on="0"/>
        <pt x="1421" y="-223" on="0"/>
        <pt x="1421" y="-240" on="1"/>
        <pt x="1421" y="-255" on="0"/>
        <pt x="1400" y="-281" on="0"/>
        <pt x="1384" y="-281" on="1"/>
      </contour>
      <contour>
        <pt x="211" y="117" on="1"/>
        <pt x="192" y="117" on="0"/>
        <pt x="170" y="143" on="0"/>
        <pt x="170" y="162" on="1"/>
        <pt x="187" y="326" on="0"/>
        <pt x="379" y="552" on="0"/>
        <pt x="662" y="677" on="0"/>
        <pt x="834" y="709" on="1"/>
        <pt x="662" y="739" on="0"/>
        <pt x="379" y="865" on="0"/>
        <pt x="187" y="1093" on="0"/>
        <pt x="170" y="1260" on="1"/>
        <pt x="170" y="1277" on="0"/>
        <pt x="192" y="1303" on="0"/>
        <pt x="211" y="1303" on="1"/>
        <pt x="228" y="1303" on="0"/>
        <pt x="251" y="1280" on="0"/>
        <pt x="252" y="1266" on="1"/>
        <pt x="275" y="1041" on="0"/>
        <pt x="651" y="813" on="0"/>
        <pt x="1123" y="750" on="0"/>
        <pt x="1384" y="750" on="1"/>
        <pt x="1400" y="750" on="0"/>
        <pt x="1421" y="724" on="0"/>
        <pt x="1421" y="709" on="1"/>
        <pt x="1421" y="692" on="0"/>
        <pt x="1400" y="668" on="0"/>
        <pt x="1384" y="668" on="1"/>
        <pt x="1124" y="668" on="0"/>
        <pt x="652" y="605" on="0"/>
        <pt x="275" y="377" on="0"/>
        <pt x="252" y="156" on="1"/>
        <pt x="251" y="140" on="0"/>
        <pt x="228" y="117" on="0"/>
      </contour>
    </TTGlyph>
    <TTGlyph name="greaterequal" xMin="170" yMin="-281" xMax="1421" yMax="1303">
      <contour>
        <pt x="209" y="-281" on="1"/>
        <pt x="192" y="-281" on="0"/>
        <pt x="170" y="-255" on="0"/>
        <pt x="170" y="-240" on="1"/>
        <pt x="170" y="-223" on="0"/>
        <pt x="192" y="-199" on="0"/>
        <pt x="209" y="-199" on="1"/>
        <pt x="1384" y="-199" on="1"/>
        <pt x="1400" y="-199" on="0"/>
        <pt x="1421" y="-223" on="0"/>
        <pt x="1421" y="-240" on="1"/>
        <pt x="1421" y="-255" on="0"/>
        <pt x="1400" y="-281" on="0"/>
        <pt x="1384" y="-281" on="1"/>
      </contour>
      <contour>
        <pt x="170" y="158" on="1"/>
        <pt x="170" y="183" on="0"/>
        <pt x="197" y="197" on="1"/>
        <pt x="1284" y="711" on="1"/>
        <pt x="190" y="1227" on="1"/>
        <pt x="170" y="1236" on="0"/>
        <pt x="170" y="1262" on="1"/>
        <pt x="170" y="1277" on="0"/>
        <pt x="194" y="1303" on="0"/>
        <pt x="211" y="1303" on="1"/>
        <pt x="221" y="1303" on="0"/>
        <pt x="227" y="1300" on="1"/>
        <pt x="1403" y="745" on="1"/>
        <pt x="1421" y="736" on="0"/>
        <pt x="1421" y="711" on="1"/>
        <pt x="1421" y="686" on="0"/>
        <pt x="1397" y="672" on="1"/>
        <pt x="227" y="121" on="1"/>
        <pt x="221" y="117" on="0"/>
        <pt x="211" y="117" on="1"/>
        <pt x="194" y="117" on="0"/>
        <pt x="170" y="141" on="0"/>
      </contour>
    </TTGlyph>
    <TTGlyph name="greatermuch" xMin="115" yMin="-137" xMax="1931" yMax="1161">
      <contour>
        <pt x="115" y="-96" on="1"/>
        <pt x="115" y="-73" on="0"/>
        <pt x="135" y="-61" on="1"/>
        <pt x="1180" y="512" on="1"/>
        <pt x="135" y="1085" on="1"/>
        <pt x="115" y="1097" on="0"/>
        <pt x="115" y="1120" on="1"/>
        <pt x="115" y="1136" on="0"/>
        <pt x="138" y="1161" on="0"/>
        <pt x="156" y="1161" on="1"/>
        <pt x="161" y="1161" on="0"/>
        <pt x="173" y="1157" on="0"/>
        <pt x="178" y="1155" on="1"/>
        <pt x="1288" y="547" on="1"/>
        <pt x="1307" y="536" on="0"/>
        <pt x="1307" y="512" on="1"/>
        <pt x="1307" y="488" on="0"/>
        <pt x="1288" y="477" on="1"/>
        <pt x="178" y="-131" on="1"/>
        <pt x="172" y="-132" on="0"/>
        <pt x="161" y="-137" on="0"/>
        <pt x="156" y="-137" on="1"/>
        <pt x="138" y="-137" on="0"/>
        <pt x="115" y="-112" on="0"/>
      </contour>
      <contour>
        <pt x="739" y="-96" on="1"/>
        <pt x="739" y="-73" on="0"/>
        <pt x="760" y="-61" on="1"/>
        <pt x="1804" y="512" on="1"/>
        <pt x="760" y="1085" on="1"/>
        <pt x="739" y="1097" on="0"/>
        <pt x="739" y="1120" on="1"/>
        <pt x="739" y="1136" on="0"/>
        <pt x="764" y="1161" on="0"/>
        <pt x="780" y="1161" on="1"/>
        <pt x="785" y="1161" on="0"/>
        <pt x="797" y="1157" on="0"/>
        <pt x="803" y="1155" on="1"/>
        <pt x="1913" y="547" on="1"/>
        <pt x="1931" y="536" on="0"/>
        <pt x="1931" y="512" on="1"/>
        <pt x="1931" y="488" on="0"/>
        <pt x="1913" y="477" on="1"/>
        <pt x="803" y="-131" on="1"/>
        <pt x="795" y="-133" on="0"/>
        <pt x="785" y="-137" on="0"/>
        <pt x="780" y="-137" on="1"/>
        <pt x="764" y="-137" on="0"/>
        <pt x="739" y="-112" on="0"/>
      </contour>
    </TTGlyph>
    <TTGlyph name="heart" xMin="115" yMin="-68" xMax="1479" yMax="1466">
      <contour>
        <pt x="442" y="381" on="1"/>
        <pt x="352" y="471" on="0"/>
        <pt x="206" y="661" on="0"/>
        <pt x="115" y="878" on="0"/>
        <pt x="115" y="993" on="1"/>
        <pt x="115" y="1189" on="0"/>
        <pt x="274" y="1466" on="0"/>
        <pt x="455" y="1466" on="1"/>
        <pt x="528" y="1466" on="0"/>
        <pt x="661" y="1407" on="0"/>
        <pt x="765" y="1303" on="0"/>
        <pt x="797" y="1237" on="1"/>
        <pt x="847" y="1340" on="0"/>
        <pt x="1027" y="1466" on="0"/>
        <pt x="1139" y="1466" on="1"/>
        <pt x="1320" y="1466" on="0"/>
        <pt x="1479" y="1189" on="0"/>
        <pt x="1479" y="993" on="1"/>
        <pt x="1479" y="878" on="0"/>
        <pt x="1389" y="661" on="0"/>
        <pt x="1247" y="477" on="0"/>
        <pt x="1151" y="381" on="1"/>
        <pt x="1140" y="370" on="0"/>
        <pt x="990" y="223" on="0"/>
        <pt x="928" y="150" on="0"/>
        <pt x="864" y="35" on="0"/>
        <pt x="836" y="-43" on="1"/>
        <pt x="824" y="-68" on="0"/>
        <pt x="797" y="-68" on="1"/>
        <pt x="767" y="-68" on="0"/>
        <pt x="760" y="-43" on="1"/>
        <pt x="722" y="60" on="0"/>
        <pt x="637" y="188" on="0"/>
        <pt x="509" y="316" on="0"/>
      </contour>
      <contour>
        <pt x="504" y="436" on="1"/>
        <pt x="561" y="380" on="0"/>
        <pt x="675" y="269" on="0"/>
        <pt x="757" y="161" on="0"/>
        <pt x="797" y="80" on="1"/>
        <pt x="827" y="141" on="0"/>
        <pt x="892" y="235" on="0"/>
        <pt x="956" y="305" on="0"/>
        <pt x="1056" y="402" on="0"/>
        <pt x="1090" y="436" on="1"/>
        <pt x="1184" y="530" on="0"/>
        <pt x="1312" y="694" on="0"/>
        <pt x="1397" y="889" on="0"/>
        <pt x="1397" y="995" on="1"/>
        <pt x="1397" y="1156" on="0"/>
        <pt x="1283" y="1384" on="0"/>
        <pt x="1139" y="1384" on="1"/>
        <pt x="1062" y="1384" on="0"/>
        <pt x="932" y="1302" on="0"/>
        <pt x="849" y="1167" on="0"/>
        <pt x="838" y="1092" on="1"/>
        <pt x="831" y="1053" on="0"/>
        <pt x="797" y="1053" on="1"/>
        <pt x="782" y="1053" on="0"/>
        <pt x="759" y="1070" on="0"/>
        <pt x="758" y="1085" on="1"/>
        <pt x="746" y="1163" on="0"/>
        <pt x="664" y="1302" on="0"/>
        <pt x="536" y="1384" on="0"/>
        <pt x="455" y="1384" on="1"/>
        <pt x="378" y="1384" on="0"/>
        <pt x="277" y="1315" on="0"/>
        <pt x="220" y="1202" on="0"/>
        <pt x="197" y="1065" on="0"/>
        <pt x="197" y="995" on="1"/>
        <pt x="197" y="915" on="0"/>
        <pt x="248" y="763" on="0"/>
        <pt x="332" y="625" on="0"/>
        <pt x="434" y="506" on="0"/>
      </contour>
    </TTGlyph>
    <TTGlyph name="infinity" xMin="115" yMin="-23" xMax="1931" yMax="905">
      <contour>
        <pt x="504" y="-23" on="1"/>
        <pt x="388" y="-23" on="0"/>
        <pt x="209" y="113" on="0"/>
        <pt x="115" y="329" on="0"/>
        <pt x="115" y="442" on="1"/>
        <pt x="115" y="529" on="0"/>
        <pt x="170" y="695" on="0"/>
        <pt x="274" y="827" on="0"/>
        <pt x="421" y="905" on="0"/>
        <pt x="510" y="905" on="1"/>
        <pt x="602" y="905" on="0"/>
        <pt x="774" y="835" on="0"/>
        <pt x="917" y="719" on="0"/>
        <pt x="979" y="643" on="1"/>
        <pt x="1040" y="561" on="1"/>
        <pt x="1101" y="658" on="0"/>
        <pt x="1249" y="811" on="0"/>
        <pt x="1436" y="905" on="0"/>
        <pt x="1542" y="905" on="1"/>
        <pt x="1631" y="905" on="0"/>
        <pt x="1777" y="826" on="0"/>
        <pt x="1879" y="690" on="0"/>
        <pt x="1931" y="525" on="0"/>
        <pt x="1931" y="442" on="1"/>
        <pt x="1931" y="326" on="0"/>
        <pt x="1834" y="111" on="0"/>
        <pt x="1655" y="-23" on="0"/>
        <pt x="1536" y="-23" on="1"/>
        <pt x="1402" y="-23" on="0"/>
        <pt x="1161" y="121" on="0"/>
        <pt x="1067" y="240" on="1"/>
        <pt x="1006" y="322" on="1"/>
        <pt x="912" y="169" on="0"/>
        <pt x="657" y="-23" on="0"/>
      </contour>
      <contour>
        <pt x="483" y="49" on="1"/>
        <pt x="743" y="49" on="0"/>
        <pt x="948" y="397" on="1"/>
        <pt x="840" y="535" on="1"/>
        <pt x="746" y="659" on="0"/>
        <pt x="584" y="799" on="0"/>
        <pt x="477" y="799" on="1"/>
        <pt x="386" y="799" on="0"/>
        <pt x="245" y="696" on="0"/>
        <pt x="168" y="530" on="0"/>
        <pt x="168" y="440" on="1"/>
        <pt x="168" y="371" on="0"/>
        <pt x="211" y="232" on="0"/>
        <pt x="293" y="118" on="0"/>
        <pt x="410" y="49" on="0"/>
      </contour>
      <contour>
        <pt x="1206" y="348" on="1"/>
        <pt x="1300" y="224" on="0"/>
        <pt x="1462" y="84" on="0"/>
        <pt x="1569" y="84" on="1"/>
        <pt x="1637" y="84" on="0"/>
        <pt x="1751" y="144" on="0"/>
        <pt x="1834" y="246" on="0"/>
        <pt x="1878" y="374" on="0"/>
        <pt x="1878" y="442" on="1"/>
        <pt x="1878" y="537" on="0"/>
        <pt x="1802" y="718" on="0"/>
        <pt x="1659" y="834" on="0"/>
        <pt x="1563" y="834" on="1"/>
        <pt x="1303" y="834" on="0"/>
        <pt x="1098" y="485" on="1"/>
      </contour>
    </TTGlyph>
    <TTGlyph name="integral" xMin="115" yMin="-442" xMax="965" yMax="1466">
      <contour>
        <pt x="203" y="-350" on="1"/>
        <pt x="230" y="-389" on="0"/>
        <pt x="272" y="-389" on="1"/>
        <pt x="319" y="-389" on="0"/>
        <pt x="372" y="-288" on="0"/>
        <pt x="390" y="-183" on="0"/>
        <pt x="399" y="-104" on="1"/>
        <pt x="412" y="9" on="0"/>
        <pt x="433" y="232" on="0"/>
        <pt x="459" y="459" on="0"/>
        <pt x="467" y="514" on="1"/>
        <pt x="481" y="607" on="0"/>
        <pt x="503" y="750" on="0"/>
        <pt x="528" y="900" on="0"/>
        <pt x="555" y="1056" on="0"/>
        <pt x="569" y="1133" on="1"/>
        <pt x="595" y="1273" on="0"/>
        <pt x="697" y="1466" on="0"/>
        <pt x="805" y="1466" on="1"/>
        <pt x="875" y="1466" on="0"/>
        <pt x="965" y="1358" on="0"/>
        <pt x="965" y="1288" on="1"/>
        <pt x="965" y="1251" on="0"/>
        <pt x="916" y="1200" on="0"/>
        <pt x="879" y="1200" on="1"/>
        <pt x="840" y="1200" on="0"/>
        <pt x="791" y="1251" on="0"/>
        <pt x="791" y="1288" on="1"/>
        <pt x="791" y="1323" on="0"/>
        <pt x="842" y="1374" on="0"/>
        <pt x="877" y="1374" on="1"/>
        <pt x="848" y="1413" on="0"/>
        <pt x="807" y="1413" on="1"/>
        <pt x="760" y="1413" on="0"/>
        <pt x="707" y="1312" on="0"/>
        <pt x="689" y="1207" on="0"/>
        <pt x="680" y="1128" on="1"/>
        <pt x="667" y="1015" on="0"/>
        <pt x="646" y="792" on="0"/>
        <pt x="620" y="565" on="0"/>
        <pt x="612" y="510" on="1"/>
        <pt x="580" y="278" on="0"/>
        <pt x="510" y="-109" on="1"/>
        <pt x="486" y="-247" on="0"/>
        <pt x="381" y="-442" on="0"/>
        <pt x="274" y="-442" on="1"/>
        <pt x="206" y="-442" on="0"/>
        <pt x="115" y="-332" on="0"/>
        <pt x="115" y="-264" on="1"/>
        <pt x="115" y="-240" on="0"/>
        <pt x="137" y="-200" on="0"/>
        <pt x="177" y="-176" on="0"/>
        <pt x="203" y="-176" on="1"/>
        <pt x="240" y="-176" on="0"/>
        <pt x="289" y="-225" on="0"/>
        <pt x="289" y="-264" on="1"/>
        <pt x="289" y="-300" on="0"/>
        <pt x="239" y="-350" on="0"/>
      </contour>
    </TTGlyph>
    <TTGlyph name="intersection" xMin="115" yMin="-45" xMax="1249" yMax="1225">
      <contour>
        <pt x="115" y="-8" on="1"/>
        <pt x="115" y="791" on="1"/>
        <pt x="115" y="927" on="0"/>
        <pt x="285" y="1125" on="0"/>
        <pt x="551" y="1225" on="0"/>
        <pt x="682" y="1225" on="1"/>
        <pt x="779" y="1225" on="0"/>
        <pt x="978" y="1172" on="0"/>
        <pt x="1147" y="1061" on="0"/>
        <pt x="1249" y="895" on="0"/>
        <pt x="1249" y="791" on="1"/>
        <pt x="1249" y="-8" on="1"/>
        <pt x="1249" y="-24" on="0"/>
        <pt x="1225" y="-45" on="0"/>
        <pt x="1208" y="-45" on="1"/>
        <pt x="1193" y="-45" on="0"/>
        <pt x="1167" y="-24" on="0"/>
        <pt x="1167" y="-8" on="1"/>
        <pt x="1167" y="784" on="1"/>
        <pt x="1167" y="874" on="0"/>
        <pt x="1078" y="1011" on="0"/>
        <pt x="939" y="1097" on="0"/>
        <pt x="765" y="1143" on="0"/>
        <pt x="682" y="1143" on="1"/>
        <pt x="568" y="1143" on="0"/>
        <pt x="345" y="1063" on="0"/>
        <pt x="197" y="901" on="0"/>
        <pt x="197" y="784" on="1"/>
        <pt x="197" y="-8" on="1"/>
        <pt x="197" y="-24" on="0"/>
        <pt x="171" y="-45" on="0"/>
        <pt x="156" y="-45" on="1"/>
        <pt x="139" y="-45" on="0"/>
        <pt x="115" y="-24" on="0"/>
      </contour>
    </TTGlyph>
    <TTGlyph name="intersectionsq" xMin="125" yMin="0" xMax="1239" yMax="1225">
      <contour>
        <pt x="125" y="39" on="1"/>
        <pt x="125" y="1188" on="1"/>
        <pt x="125" y="1201" on="0"/>
        <pt x="149" y="1225" on="0"/>
        <pt x="164" y="1225" on="1"/>
        <pt x="1202" y="1225" on="1"/>
        <pt x="1216" y="1225" on="0"/>
        <pt x="1239" y="1202" on="0"/>
        <pt x="1239" y="1188" on="1"/>
        <pt x="1239" y="39" on="1"/>
        <pt x="1239" y="22" on="0"/>
        <pt x="1215" y="0" on="0"/>
        <pt x="1198" y="0" on="1"/>
        <pt x="1183" y="0" on="0"/>
        <pt x="1157" y="22" on="0"/>
        <pt x="1157" y="39" on="1"/>
        <pt x="1157" y="1143" on="1"/>
        <pt x="207" y="1143" on="1"/>
        <pt x="207" y="39" on="1"/>
        <pt x="207" y="22" on="0"/>
        <pt x="181" y="0" on="0"/>
        <pt x="166" y="0" on="1"/>
        <pt x="149" y="0" on="0"/>
        <pt x="125" y="22" on="0"/>
      </contour>
    </TTGlyph>
    <TTGlyph name="latticetop" xMin="115" yMin="0" xMax="1479" yMax="1364">
      <contour>
        <pt x="756" y="39" on="1"/>
        <pt x="756" y="1282" on="1"/>
        <pt x="154" y="1282" on="1"/>
        <pt x="137" y="1282" on="0"/>
        <pt x="115" y="1308" on="0"/>
        <pt x="115" y="1323" on="1"/>
        <pt x="115" y="1338" on="0"/>
        <pt x="137" y="1364" on="0"/>
        <pt x="154" y="1364" on="1"/>
        <pt x="1442" y="1364" on="1"/>
        <pt x="1457" y="1364" on="0"/>
        <pt x="1479" y="1338" on="0"/>
        <pt x="1479" y="1323" on="1"/>
        <pt x="1479" y="1308" on="0"/>
        <pt x="1457" y="1282" on="0"/>
        <pt x="1442" y="1282" on="1"/>
        <pt x="838" y="1282" on="1"/>
        <pt x="838" y="39" on="1"/>
        <pt x="838" y="22" on="0"/>
        <pt x="812" y="0" on="0"/>
        <pt x="797" y="0" on="1"/>
        <pt x="780" y="0" on="0"/>
        <pt x="756" y="22" on="0"/>
      </contour>
    </TTGlyph>
</ttFont>
